<?xml version="1.0" encoding="utf-8"?>
<!-- Generator: Adobe Illustrator 16.0.3, SVG Export Plug-In . SVG Version: 6.00 Build 0)  -->
<!DOCTYPE svg PUBLIC "-//W3C//DTD SVG 1.1//EN" "http://www.w3.org/Graphics/SVG/1.1/DTD/svg11.dtd">
<svg version="1.1" id="ghost1" xmlns="http://www.w3.org/2000/svg" xmlns:xlink="http://www.w3.org/1999/xlink" x="0px" y="0px"
	 width="200px" height="200px" viewBox="0 0 200 200" enable-background="new 0 0 200 200" xml:space="preserve">
<g>
	<path fill="#E3FFFA" d="M147.546,121.359c-14.563-13.699-5.955-45.433-5.178-50.967c0.797-5.666,1.805-11.341,1.672-17.061
		c-0.365-15.645-10.014-30.723-24.068-37.604c-8.448-4.138-18.345-5.194-27.542-3.36c-18.677,3.725-33.254,20.76-39.7,39.078
		c-3-3.548-4.458-8.472-6.532-12.775c-1.075-2.23-2.648-4.564-5.079-5.037c-3.13-0.608-6.066,1.422-6.996,5.273
		c-1.524,6.313,0.455,22.89,15.049,31.871c0.091,13.594,6.87,25.961,15.555,36.454c18.268,22.068,64.112,40.844,66.901,49.063
		c2.04,6.012-5.882,25.164-6.775,28.014c-0.984,3.133,0.527,5.678,5.19,3.188c8.906-4.754,21.293-24.68,23.916-32.768
		C157.944,142.439,156.958,130.211,147.546,121.359z"/>
	<path fill="#B1C7DE" d="M128.427,174.289c2.215-6.586,4.384-14.508,3.196-17.99c-1.519-4.486-15.9-12.133-31.607-21.732
		c-0.022-0.023-0.046-0.035-0.068-0.057c25.991,7.031,36.014,7.064,39.003,15.557C140.479,154.404,133.415,166.459,128.427,174.289z
		"/>
	<g>
		<path fill="#074739" d="M74.059,52.938c-0.561,1.646-0.676,3.513,0.063,5.087c1.147,2.445,3.799,2.914,5.966,1.502
			c2.459-1.601,3.763-4.533,4.142-7.354c0.378-2.818-1.097-6.185-4.46-5.651C76.658,47.015,74.976,50.245,74.059,52.938z"/>
		<path fill="#074739" d="M76.116,28.424c1.07-1.388,2.588-2.312,3.626-1.855c1.68,0.737,0.479,3.494,0.04,4.332
			c-1.9,3.626-4.084,7.104-6.524,10.391c-0.859,1.158-2.06,2.382-3.597,1.6c-1.109-0.565-1.188-1.479-0.804-2.539
			C69.918,37.427,74.639,30.339,76.116,28.424z"/>
		<path fill="#074739" d="M97.318,28.424c1.07-1.388,2.757-2.268,3.779-1.776c1.805,0.868,0.662,3.884,0.223,4.722
			c-1.9,3.625-4.021,7.151-6.523,10.39c-0.93,1.202-2.5,2.336-4.085,1.378c-0.97-0.586-1.037-1.726-0.652-2.786
			C91.12,37.427,95.841,30.339,97.318,28.424z"/>
	</g>
	<g>
		<g>
			<path fill="#B1C7DE" d="M115.474,73.393c3.098-1.723,6.087-3.541,8.592-5.938c2.527-2.343,4.679-5.042,6.32-8.021
				c1.615-2.985,2.888-6.159,3.574-9.473c0.341-1.651,0.641-3.319,0.718-4.991c0.131-1.667,0.06-3.35-0.194-4.901
				c-0.207-1.555-0.798-2.893-1.748-3.831c-0.938-0.948-2.218-1.31-3.512-1.112c-1.165,0.159-2.28,1.131-3.162,2.441
				c-0.451,0.652-0.827,1.362-1.216,2.133c-0.399,0.759-0.773,1.546-1.151,2.337c-1.509,3.154-2.935,6.558-5.333,9.417
				c-1.229,1.391-2.712,2.584-4.356,3.402c-1.64,0.827-3.375,1.282-5.093,1.713l-0.007,0.002c-0.048,0.012-0.097-0.017-0.108-0.065
				c-0.012-0.045,0.014-0.09,0.057-0.106c1.663-0.587,3.336-1.175,4.857-2.056c1.518-0.882,2.831-2.086,3.908-3.47
				c2.151-2.798,3.421-6.14,4.801-9.382c0.708-1.618,1.366-3.272,2.334-4.78c0.947-1.477,2.318-2.896,4.159-3.239
				c1.783-0.355,3.732,0.216,5.023,1.505c1.317,1.262,2.05,3.023,2.305,4.784c0.277,1.764,0.322,3.556,0.173,5.325
				c-0.105,1.775-0.42,3.529-0.815,5.257c-0.819,3.453-2.173,6.781-4.022,9.808c-1.847,3.029-4.197,5.739-6.907,8.027
				c-2.745,2.261-5.879,3.972-9.128,5.377c-0.045,0.02-0.098-0.001-0.117-0.046c-0.018-0.042-0.001-0.091,0.038-0.113
				L115.474,73.393z"/>
		</g>
		<g>
			<path fill="#B1C7DE" d="M85.692,61.907c-0.251,2.196-1.534,4.131-3.417,5.408c-0.951,0.602-2.078,1.096-3.268,1.225
				c-1.092,0.174-2.251,0.218-3.417-0.014c-1.155-0.218-2.338-0.66-3.28-1.426c-0.951-0.744-1.699-1.692-2.148-2.717
				c-0.944-2.039-0.988-4.205-0.564-6.157l0.005-0.023c0.012-0.053,0.064-0.087,0.117-0.076c0.045,0.01,0.076,0.049,0.078,0.093
				c0.068,1.916,0.467,3.863,1.462,5.498c0.965,1.649,2.69,2.795,4.582,3.004c1.888,0.229,3.842-0.138,5.5-1.058
				c1.672-0.92,3.076-2.301,4.186-3.87c0.03-0.042,0.089-0.052,0.131-0.022c0.029,0.021,0.043,0.055,0.04,0.087L85.692,61.907z"/>
		</g>
	</g>
</g>
</svg>
