<?xml version="1.0" encoding="utf-8"?>
<!-- Generator: Adobe Illustrator 16.0.3, SVG Export Plug-In . SVG Version: 6.00 Build 0)  -->
<!DOCTYPE svg PUBLIC "-//W3C//DTD SVG 1.1//EN" "http://www.w3.org/Graphics/SVG/1.1/DTD/svg11.dtd">
<svg version="1.1" id="Capa_2" xmlns="http://www.w3.org/2000/svg" xmlns:xlink="http://www.w3.org/1999/xlink" x="0px" y="0px"
	 width="200px" height="200px" viewBox="0 0 200 200" enable-background="new 0 0 200 200" xml:space="preserve">
<g>
	<path fill="#E3FFFA" d="M170.351,92.323c-1.848-3.052-4.455-5.528-7.582-7.448c1.813-8.188,2.316-16.617,1.006-25.052
		c-4.15-26.704-31.039-48.479-57.998-39.053C94.825,24.6,87.598,34.964,84.624,45.802c-0.928,3.381-1.573,6.84-2.073,10.328
		c-1.49-1.262-2.661-3.082-3.429-4.896c-1.404-3.313-2.182-7.043-4.657-9.653c-2.563-2.702-6.751-3.667-10.289-2.503
		s-6.298,4.337-7.116,7.971c-0.613,2.725-0.204,5.581,0.503,8.283c1.683,6.437,5.107,12.465,10.047,16.922
		c3.591,3.241,7.997,5.609,12.689,6.738c-0.657,7.863-1.542,15.804-4.864,22.986c-2.562,5.539-7.297,9.609-12.133,13.331
		c-5.737,4.415-14.239,11.184-17.167,17.805c-1.064,2.409-1.896,5.435-0.255,7.495c2.71,3.399,8.368,0.387,12.459,1.857
		c-7.658,5.663-13.305,14.121-14.944,23.504c-0.628,3.595,0.387,7.096,4.524,8.682c5.955,2.281,12.237-3.466,15.46-6.886
		c1.316-1.396,3.009-3.162,4.797-2.465c1.45,0.565,1.85,2.529,1.356,4.006c-0.494,1.478-1.6,2.654-2.423,3.977
		c-2.725,4.374-1.971,10.601,1.718,14.199c0.994,0.97,2.234,1.779,3.619,1.887c3.476,0.27,5.593-3.578,7.269-6.635
		c5.507-10.039,15.306-16.924,25.134-22.799c11.176-6.681,22.729-13.184,31.383-23.132c7.123-8.188,12.559-17.712,17.334-27.451
		c1.195,2.486,2.135,5.068,3.572,7.466c1.215,2.022,3.611,3.955,6.297,4.535c7.16,1.545,10.195-5.225,10.891-9.773
		C175.278,105.369,173.739,97.921,170.351,92.323z"/>
	<g>
		<path fill="#074739" d="M117.581,62.617c-1.047,9.078-4.414,11.798-6.355,11.798c-2.734,0-4.482-2.863-4.131-11.59
			c-1.209,2.673-1.771,5.671-1.395,8.621c0.201,1.459,0.686,2.957,1.736,4.093c1.033,1.167,2.666,1.646,4.148,1.598
			c1.504,0.011,3.074-0.59,4.09-1.745c1.031-1.135,1.572-2.584,1.895-4.018C118.188,68.472,118.032,65.497,117.581,62.617z"/>
		<path fill="#074739" d="M98.073,57.538c0.324-8.204,2.805-12.416,4.711-12.468c2.355-0.064,4.701,4.641,4.914,13.795
			L98.073,57.538z"/>
		<path fill="#074739" d="M118.231,58.765c0.047-3.587,0.621-12.878,4.309-13.557c3.467-0.639,5.537,6.966,5.982,12.115
			L118.231,58.765z"/>
	</g>
	<g>
		<g>
			<g>
				<path fill="#B1C7DE" d="M142.837,99.992c1.32-0.413,2.74-0.296,4.043,0.128c1.313,0.418,2.512,1.155,3.508,2.079
					c1.006,0.917,1.791,2.041,2.363,3.246c0.139,0.304,0.277,0.605,0.381,0.923l0.248,0.958c0.129,0.653,0.26,1.296,0.268,1.981
					v0.034c0,0.045-0.035,0.082-0.08,0.083c-0.031,0-0.059-0.017-0.072-0.042l-0.912-1.604c-0.289-0.543-0.588-1.078-0.947-1.574
					c-0.701-1.002-1.494-1.942-2.402-2.758c-0.891-0.829-1.877-1.568-2.965-2.119c-1.086-0.552-2.25-0.953-3.457-1.167
					c-0.045-0.008-0.074-0.05-0.066-0.095c0.006-0.03,0.029-0.055,0.057-0.063L142.837,99.992z"/>
			</g>
			<g>
				<path fill="#B1C7DE" d="M162.735,84.943c-1.592-0.89-3.225-1.699-4.936-2.321c-1.691-0.678-3.449-1.166-5.215-1.618
					c-0.043-0.011-0.068-0.054-0.057-0.096c0.006-0.025,0.023-0.044,0.047-0.053l0.045-0.018c1.021-0.397,2.014-0.474,2.98-0.411
					c0.967,0.063,1.914,0.259,2.805,0.608c0.896,0.34,1.736,0.825,2.5,1.433c0.76,0.607,1.449,1.341,1.918,2.331l0.021,0.042
					c0.018,0.039,0.002,0.086-0.037,0.104C162.784,84.957,162.757,84.955,162.735,84.943z"/>
			</g>
		</g>
		<g>
			<path fill="#B1C7DE" d="M114.669,154.026c-3.25,2.02-6.551,3.96-9.82,5.91c-9.831,5.88-19.63,12.76-25.13,22.8
				c-1.68,3.06-3.8,6.899-7.27,6.63c-1.391-0.101-2.63-0.91-3.62-1.88c-3.69-3.601-4.44-9.83-1.72-14.2
				c0.819-1.32,1.93-2.5,2.42-3.979c0.5-1.48,0.1-3.44-1.351-4c-1.79-0.7-3.479,1.06-4.8,2.46c-3.22,3.42-9.5,9.17-15.46,6.89
				c-1.36-0.521-2.38-1.25-3.11-2.12c2.38,1.17,5.49,1.08,7.891-0.8c1.75-1.38,7.43-8.48,14.46-12.96
				c4.8-3.061,8.63-3.95,9.85-3.351c2.21,1.08,1.94,3.37,1.05,5.301c-1.6,3.479-3.979,6.43-5.109,10.149
				c-0.311,1-0.75,2.431-0.28,3.46c1.23,2.721,5.44-0.06,6.83-1.12c9.91-7.64,20.491-13.88,32.299-18.13
				C112.728,154.746,113.688,154.386,114.669,154.026z"/>
			<path fill="#B1C7DE" d="M58.338,142.466c-4.09-1.47-9.75,1.54-12.46-1.859c-1.1-1.38-1.09-3.2-0.63-4.98
				c0,0.86,0.85,2.26,6.189,2.61C59.289,138.746,58.338,142.466,58.338,142.466z"/>
		</g>
	</g>
</g>
</svg>
