<?xml version="1.0" encoding="utf-8"?>
<!-- Generator: Adobe Illustrator 16.0.3, SVG Export Plug-In . SVG Version: 6.00 Build 0)  -->
<!DOCTYPE svg PUBLIC "-//W3C//DTD SVG 1.1//EN" "http://www.w3.org/Graphics/SVG/1.1/DTD/svg11.dtd">
<svg version="1.1" id="Capa_1" xmlns="http://www.w3.org/2000/svg" xmlns:xlink="http://www.w3.org/1999/xlink" x="0px" y="0px"
	 width="1280px" height="720px" viewBox="0 0 1280 720" enable-background="new 0 0 1280 720" xml:space="preserve">
<g>
	<g>
		<linearGradient id="SVGID_1_" gradientUnits="userSpaceOnUse" x1="520.6899" y1="200.2148" x2="547.5508" y2="200.2148">
			<stop  offset="0.0179" style="stop-color:#000000"/>
			<stop  offset="1" style="stop-color:#1C2B36"/>
		</linearGradient>
		<polygon fill="url(#SVGID_1_)" points="520.69,198.093 536.092,196.396 547.551,204.034 537.973,204.034 		"/>
		<polygon points="520.69,192.165 536.21,190.167 536.092,196.396 520.69,198.093 		"/>
		<linearGradient id="SVGID_2_" gradientUnits="userSpaceOnUse" x1="536.0923" y1="197.1006" x2="547.5508" y2="197.1006">
			<stop  offset="0" style="stop-color:#111517"/>
			<stop  offset="1" style="stop-color:#3C4952"/>
		</linearGradient>
		<polygon fill="url(#SVGID_2_)" points="547.551,204.034 547.551,198.093 536.21,190.167 536.092,196.396 		"/>
		<polygon points="521.285,242.342 525.281,199.099 534.682,197.923 532.097,240.227 		"/>
		<linearGradient id="SVGID_3_" gradientUnits="userSpaceOnUse" x1="532.0967" y1="219.0752" x2="542.9087" y2="219.0752">
			<stop  offset="0" style="stop-color:#111517"/>
			<stop  offset="1" style="stop-color:#3C4952"/>
		</linearGradient>
		<polygon fill="url(#SVGID_3_)" points="540.558,238.112 542.909,202.624 534.682,197.923 532.097,240.227 		"/>
		<linearGradient id="SVGID_4_" gradientUnits="userSpaceOnUse" x1="513.7637" y1="278.2813" x2="587.5659" y2="278.2813">
			<stop  offset="0" style="stop-color:#1C2B36"/>
			<stop  offset="0.9821" style="stop-color:#000000"/>
		</linearGradient>
		<polygon fill="url(#SVGID_4_)" points="513.764,307.208 520.824,251.543 587.566,249.354 584.276,307.208 		"/>
		<linearGradient id="SVGID_5_" gradientUnits="userSpaceOnUse" x1="510.0029" y1="231.2339" x2="587.5659" y2="231.2339">
			<stop  offset="0" style="stop-color:#1C2B36"/>
			<stop  offset="0.9821" style="stop-color:#000000"/>
		</linearGradient>
		<polygon fill="url(#SVGID_5_)" points="587.566,216.96 554.896,219.78 510.003,245.507 587.566,242.342 		"/>
		<polygon points="514.704,251.744 587.566,249.354 587.566,242.342 510.003,245.507 		"/>
		<linearGradient id="SVGID_6_" gradientUnits="userSpaceOnUse" x1="617.6514" y1="139.3423" x2="635.5142" y2="139.3423">
			<stop  offset="0.0179" style="stop-color:#000000"/>
			<stop  offset="1" style="stop-color:#1C2B36"/>
		</linearGradient>
		<polygon fill="url(#SVGID_6_)" points="628.934,123.3 626.583,123.3 624.233,123.3 617.651,155.384 626.583,155.384 
			635.514,155.384 		"/>
		<linearGradient id="SVGID_7_" gradientUnits="userSpaceOnUse" x1="588.0366" y1="176.4189" x2="665.1289" y2="176.4189">
			<stop  offset="0" style="stop-color:#111A20"/>
			<stop  offset="1" style="stop-color:#1A2832"/>
		</linearGradient>
		<path fill="url(#SVGID_7_)" d="M649.382,154.444c0,0-7.521-5.641-22.799-5.641c-15.277,0-22.798,5.641-22.798,5.641
			l-15.748,48.649l38.546,0.94l38.546-0.94L649.382,154.444z"/>
		<linearGradient id="SVGID_8_" gradientUnits="userSpaceOnUse" x1="512.3535" y1="355.8589" x2="740.8125" y2="355.8589">
			<stop  offset="0" style="stop-color:#1C2B36"/>
			<stop  offset="0.5" style="stop-color:#000000"/>
			<stop  offset="1" style="stop-color:#1C2B36"/>
		</linearGradient>
		<polygon fill="url(#SVGID_8_)" points="732.912,315.904 626.583,311.439 520.255,315.904 512.354,400.278 626.583,399.933 
			740.813,400.278 		"/>
		<linearGradient id="SVGID_9_" gradientUnits="userSpaceOnUse" x1="665.5996" y1="278.2813" x2="739.4023" y2="278.2813">
			<stop  offset="0.0179" style="stop-color:#000000"/>
			<stop  offset="1" style="stop-color:#1C2B36"/>
		</linearGradient>
		<polygon fill="url(#SVGID_9_)" points="739.402,307.208 732.342,251.543 665.6,249.354 668.891,307.208 		"/>
		<linearGradient id="SVGID_10_" gradientUnits="userSpaceOnUse" x1="665.5996" y1="231.2339" x2="743.1641" y2="231.2339">
			<stop  offset="0.0179" style="stop-color:#000000"/>
			<stop  offset="1" style="stop-color:#1C2B36"/>
		</linearGradient>
		<polygon fill="url(#SVGID_10_)" points="665.6,216.96 698.27,219.78 743.164,245.507 665.6,242.342 		"/>
		<polygon points="738.461,251.744 665.6,249.354 665.6,242.342 743.164,245.507 		"/>
		<linearGradient id="SVGID_11_" gradientUnits="userSpaceOnUse" x1="655.2578" y1="249.3535" x2="675.9414" y2="249.3535">
			<stop  offset="0" style="stop-color:#1C2B36"/>
			<stop  offset="1" style="stop-color:#152129"/>
		</linearGradient>
		<polygon fill="url(#SVGID_11_)" points="672.182,220.425 655.258,199.099 658.078,294.987 675.941,299.608 		"/>
		<linearGradient id="SVGID_12_" gradientUnits="userSpaceOnUse" x1="595.0879" y1="245.3979" x2="658.0781" y2="245.3979">
			<stop  offset="0" style="stop-color:#111A20"/>
			<stop  offset="1" style="stop-color:#1A2832"/>
		</linearGradient>
		<polygon fill="url(#SVGID_12_)" points="655.258,199.099 626.583,195.809 597.908,199.099 595.088,294.987 626.583,294.987 
			658.078,294.987 		"/>
		<linearGradient id="SVGID_13_" gradientUnits="userSpaceOnUse" x1="749.9082" y1="343.4409" x2="754.2409" y2="343.2002">
			<stop  offset="0.0179" style="stop-color:#000000"/>
			<stop  offset="1" style="stop-color:#1C2B36"/>
		</linearGradient>
		<polygon fill="url(#SVGID_13_)" points="756.35,368.918 750.85,368.918 746.688,317.785 752.188,317.785 		"/>
		<linearGradient id="SVGID_14_" gradientUnits="userSpaceOnUse" x1="668.8906" y1="312.7314" x2="760.0859" y2="312.7314">
			<stop  offset="0.0179" style="stop-color:#000000"/>
			<stop  offset="1" style="stop-color:#1C2B36"/>
		</linearGradient>
		<polygon fill="url(#SVGID_14_)" points="760.086,321.075 739.402,307.208 668.891,304.388 670.77,319.666 		"/>
		<g>
			<linearGradient id="SVGID_15_" gradientUnits="userSpaceOnUse" x1="500.6504" y1="387.1953" x2="497.2119" y2="386.9027">
				<stop  offset="0.0179" style="stop-color:#000000"/>
				<stop  offset="1" style="stop-color:#1C2B36"/>
			</linearGradient>
			<polygon fill="url(#SVGID_15_)" points="495.763,404.056 499.42,404.056 502.188,370.05 498.531,370.05 			"/>
			<linearGradient id="SVGID_16_" gradientUnits="userSpaceOnUse" x1="509.8892" y1="386.6152" x2="506.6706" y2="386.3958">
				<stop  offset="0.0179" style="stop-color:#000000"/>
				<stop  offset="1" style="stop-color:#1C2B36"/>
			</linearGradient>
			<polygon fill="url(#SVGID_16_)" points="504.796,403.491 508.454,403.491 511.223,369.482 507.564,369.482 			"/>
			<linearGradient id="SVGID_17_" gradientUnits="userSpaceOnUse" x1="518.7041" y1="386.0684" x2="515.4119" y2="385.7757">
				<stop  offset="0.0179" style="stop-color:#000000"/>
				<stop  offset="1" style="stop-color:#1C2B36"/>
			</linearGradient>
			<polygon fill="url(#SVGID_17_)" points="513.83,402.924 517.488,402.924 520.255,368.918 516.598,368.918 			"/>
			<linearGradient id="SVGID_18_" gradientUnits="userSpaceOnUse" x1="527.7544" y1="385.5068" x2="524.5356" y2="385.2142">
				<stop  offset="0.0179" style="stop-color:#000000"/>
				<stop  offset="1" style="stop-color:#1C2B36"/>
			</linearGradient>
			<polygon fill="url(#SVGID_18_)" points="522.863,402.357 526.521,402.357 529.29,368.351 525.631,368.351 			"/>
			<linearGradient id="SVGID_19_" gradientUnits="userSpaceOnUse" x1="536.7578" y1="384.9395" x2="533.5391" y2="384.6469">
				<stop  offset="0.0179" style="stop-color:#000000"/>
				<stop  offset="1" style="stop-color:#1C2B36"/>
			</linearGradient>
			<polygon fill="url(#SVGID_19_)" points="531.897,401.792 535.555,401.792 538.323,367.787 534.666,367.787 			"/>
			<linearGradient id="SVGID_20_" gradientUnits="userSpaceOnUse" x1="545.6851" y1="384.3896" x2="542.319" y2="384.0238">
				<stop  offset="0.0179" style="stop-color:#000000"/>
				<stop  offset="1" style="stop-color:#1C2B36"/>
			</linearGradient>
			<polygon fill="url(#SVGID_20_)" points="540.931,401.227 544.588,401.227 547.356,367.218 543.698,367.218 			"/>
			<linearGradient id="SVGID_21_" gradientUnits="userSpaceOnUse" x1="554.835" y1="383.8018" x2="551.4702" y2="383.5092">
				<stop  offset="0.0179" style="stop-color:#000000"/>
				<stop  offset="1" style="stop-color:#1C2B36"/>
			</linearGradient>
			<polygon fill="url(#SVGID_21_)" points="549.964,400.66 553.622,400.66 556.39,366.654 552.732,366.654 			"/>
			<linearGradient id="SVGID_22_" gradientUnits="userSpaceOnUse" x1="563.8262" y1="383.2314" x2="560.4605" y2="382.9388">
				<stop  offset="0.0179" style="stop-color:#000000"/>
				<stop  offset="1" style="stop-color:#1C2B36"/>
			</linearGradient>
			<polygon fill="url(#SVGID_22_)" points="558.998,400.096 562.656,400.096 565.424,366.086 561.766,366.086 			"/>
			<linearGradient id="SVGID_23_" gradientUnits="userSpaceOnUse" x1="494.6865" y1="368.8037" x2="571.9585" y2="368.8037">
				<stop  offset="0.0179" style="stop-color:#000000"/>
				<stop  offset="1" style="stop-color:#1C2B36"/>
			</linearGradient>
			<polygon fill="url(#SVGID_23_)" points="495.43,367.376 571.958,364.555 571.958,369.254 494.687,373.053 			"/>
		</g>
		<g>
			<linearGradient id="SVGID_24_" gradientUnits="userSpaceOnUse" x1="752.6855" y1="387.2139" x2="756.0575" y2="386.8526">
				<stop  offset="0.0179" style="stop-color:#000000"/>
				<stop  offset="1" style="stop-color:#1C2B36"/>
			</linearGradient>
			<polygon fill="url(#SVGID_24_)" points="757.402,404.056 753.744,404.056 750.977,370.05 754.637,370.05 			"/>
			<linearGradient id="SVGID_25_" gradientUnits="userSpaceOnUse" x1="743.6221" y1="386.6104" x2="746.6321" y2="386.3695">
				<stop  offset="0.0179" style="stop-color:#000000"/>
				<stop  offset="1" style="stop-color:#1C2B36"/>
			</linearGradient>
			<polygon fill="url(#SVGID_25_)" points="748.371,403.491 744.711,403.491 741.943,369.482 745.602,369.482 			"/>
			<linearGradient id="SVGID_26_" gradientUnits="userSpaceOnUse" x1="734.5557" y1="386.0469" x2="737.5641" y2="385.8062">
				<stop  offset="0.0179" style="stop-color:#000000"/>
				<stop  offset="1" style="stop-color:#1C2B36"/>
			</linearGradient>
			<polygon fill="url(#SVGID_26_)" points="739.336,402.924 735.678,402.924 732.91,368.918 736.566,368.918 			"/>
			<linearGradient id="SVGID_27_" gradientUnits="userSpaceOnUse" x1="725.4678" y1="385.4844" x2="728.4783" y2="385.2435">
				<stop  offset="0.0179" style="stop-color:#000000"/>
				<stop  offset="1" style="stop-color:#1C2B36"/>
			</linearGradient>
			<polygon fill="url(#SVGID_27_)" points="730.303,402.357 726.645,402.357 723.875,368.351 727.533,368.351 			"/>
			<linearGradient id="SVGID_28_" gradientUnits="userSpaceOnUse" x1="716.7715" y1="384.8955" x2="719.6605" y2="384.6548">
				<stop  offset="0.0179" style="stop-color:#000000"/>
				<stop  offset="1" style="stop-color:#1C2B36"/>
			</linearGradient>
			<polygon fill="url(#SVGID_28_)" points="721.27,401.792 717.611,401.792 714.844,367.787 718.502,367.787 			"/>
			<linearGradient id="SVGID_29_" gradientUnits="userSpaceOnUse" x1="707.4805" y1="384.3359" x2="710.7297" y2="384.0952">
				<stop  offset="0.0179" style="stop-color:#000000"/>
				<stop  offset="1" style="stop-color:#1C2B36"/>
			</linearGradient>
			<polygon fill="url(#SVGID_29_)" points="712.234,401.227 708.576,401.227 705.809,367.218 709.467,367.218 			"/>
			<linearGradient id="SVGID_30_" gradientUnits="userSpaceOnUse" x1="698.5752" y1="383.7705" x2="701.5857" y2="383.5297">
				<stop  offset="0.0179" style="stop-color:#000000"/>
				<stop  offset="1" style="stop-color:#1C2B36"/>
			</linearGradient>
			<polygon fill="url(#SVGID_30_)" points="703.203,400.66 699.543,400.66 696.775,366.654 700.434,366.654 			"/>
			<linearGradient id="SVGID_31_" gradientUnits="userSpaceOnUse" x1="689.7432" y1="383.2002" x2="692.3918" y2="382.9594">
				<stop  offset="0.0179" style="stop-color:#000000"/>
				<stop  offset="1" style="stop-color:#1C2B36"/>
			</linearGradient>
			<polygon fill="url(#SVGID_31_)" points="694.168,400.096 690.51,400.096 687.741,366.086 691.4,366.086 			"/>
			<linearGradient id="SVGID_32_" gradientUnits="userSpaceOnUse" x1="681.207" y1="368.8037" x2="758.4805" y2="368.8037">
				<stop  offset="0.0179" style="stop-color:#000000"/>
				<stop  offset="1" style="stop-color:#1C2B36"/>
			</linearGradient>
			<polygon fill="url(#SVGID_32_)" points="757.736,367.376 681.207,364.555 681.207,369.254 758.48,373.053 			"/>
		</g>
		<linearGradient id="SVGID_33_" gradientUnits="userSpaceOnUse" x1="564.5327" y1="364.5547" x2="579.3838" y2="364.5547">
			<stop  offset="0" style="stop-color:#0A0F13"/>
			<stop  offset="0.259" style="stop-color:#000000"/>
			<stop  offset="1" style="stop-color:#1C2B36"/>
		</linearGradient>
		<path fill="url(#SVGID_33_)" d="M578.165,328.832c0,0,3.291,36.192-0.94,71.447h-12.692c0,0,0.214-47.208,7.426-71.447H578.165z"
			/>
		<linearGradient id="SVGID_34_" gradientUnits="userSpaceOnUse" x1="673.7822" y1="364.5547" x2="688.6328" y2="364.5547">
			<stop  offset="0.0179" style="stop-color:#000000"/>
			<stop  offset="1" style="stop-color:#1C2B36"/>
		</linearGradient>
		<path fill="url(#SVGID_34_)" d="M675.002,328.832c0,0-3.291,36.192,0.939,71.447h12.691c0,0-0.214-47.208-7.426-71.447H675.002z"
			/>
		<linearGradient id="SVGID_35_" gradientUnits="userSpaceOnUse" x1="626.583" y1="453.8633" x2="626.583" y2="394.6387">
			<stop  offset="0.0179" style="stop-color:#000000"/>
			<stop  offset="1" style="stop-color:#111920"/>
		</linearGradient>
		<path fill="url(#SVGID_35_)" d="M761.025,400.748c0,0-78.974-6.109-134.443-6.109s-134.443,6.109-134.443,6.109l-8.931,53.115
			h143.374h143.375L761.025,400.748z"/>
		<polygon points="580.985,220.425 597.908,199.099 595.088,294.987 577.225,299.608 		"/>
		<linearGradient id="SVGID_36_" gradientUnits="userSpaceOnUse" x1="578.1646" y1="205.2959" x2="597.9077" y2="205.2959">
			<stop  offset="0.0179" style="stop-color:#000000"/>
			<stop  offset="1" style="stop-color:#1C2B36"/>
		</linearGradient>
		<polygon fill="url(#SVGID_36_)" points="578.165,212.729 595.088,190.167 597.908,199.099 580.985,220.425 		"/>
		<linearGradient id="SVGID_37_" gradientUnits="userSpaceOnUse" x1="503.7051" y1="343.6455" x2="498.6501" y2="342.9234">
			<stop  offset="0" style="stop-color:#0A0F13"/>
			<stop  offset="0.259" style="stop-color:#000000"/>
			<stop  offset="1" style="stop-color:#1C2B36"/>
		</linearGradient>
		<polygon fill="url(#SVGID_37_)" points="496.816,368.918 502.315,368.918 506.478,317.785 500.977,317.785 		"/>
		<linearGradient id="SVGID_38_" gradientUnits="userSpaceOnUse" x1="493.0801" y1="312.7314" x2="584.2759" y2="312.7314">
			<stop  offset="0" style="stop-color:#1C2B36"/>
			<stop  offset="0.9821" style="stop-color:#000000"/>
		</linearGradient>
		<polygon fill="url(#SVGID_38_)" points="493.08,321.075 513.764,307.208 584.276,304.388 582.395,319.666 		"/>
		<radialGradient id="SVGID_39_" cx="627.3467" cy="351.8716" r="32.1259" gradientUnits="userSpaceOnUse">
			<stop  offset="0" style="stop-color:#FF992E"/>
			<stop  offset="0.0725" style="stop-color:#E78B2A"/>
			<stop  offset="0.2382" style="stop-color:#B76D21"/>
			<stop  offset="0.4029" style="stop-color:#8F551A"/>
			<stop  offset="0.5636" style="stop-color:#6F4214"/>
			<stop  offset="0.7192" style="stop-color:#593510"/>
			<stop  offset="0.8673" style="stop-color:#4C2D0E"/>
			<stop  offset="1" style="stop-color:#472A0D"/>
		</radialGradient>
		<path fill="url(#SVGID_39_)" d="M643.575,394.639h-34.455v-41.003c0-9.513,7.712-17.225,17.227-17.225h0.001
			c9.514,0,17.227,7.712,17.227,17.225V394.639z"/>
		<linearGradient id="SVGID_40_" gradientUnits="userSpaceOnUse" x1="620.002" y1="284.6465" x2="633.1636" y2="284.6465">
			<stop  offset="0.0179" style="stop-color:#000000"/>
			<stop  offset="1" style="stop-color:#1C2B36"/>
		</linearGradient>
		<circle fill="url(#SVGID_40_)" cx="626.583" cy="284.646" r="6.581"/>
		<g>
			<radialGradient id="SVGID_41_" cx="627.7549" cy="229.7939" r="22.3231" gradientUnits="userSpaceOnUse">
				<stop  offset="0" style="stop-color:#FF992E"/>
				<stop  offset="1" style="stop-color:#472A0D"/>
			</radialGradient>
			<polygon fill="url(#SVGID_41_)" points="609.611,215.143 609.532,255.573 645.841,255.573 645.978,216.96 627.375,204.015 			"/>
			<linearGradient id="SVGID_42_" gradientUnits="userSpaceOnUse" x1="607.3091" y1="237.4072" x2="648.207" y2="237.4072">
				<stop  offset="0.0179" style="stop-color:#000000"/>
				<stop  offset="1" style="stop-color:#1C2B36"/>
			</linearGradient>
			<polygon fill="url(#SVGID_42_)" points="644.682,216.96 644.682,254.328 610.835,254.328 610.835,216.96 607.309,216.96 
				607.309,254.328 607.309,257.854 610.835,257.854 644.682,257.854 648.207,257.854 648.207,254.328 648.207,216.96 			"/>
			<linearGradient id="SVGID_43_" gradientUnits="userSpaceOnUse" x1="607.3091" y1="231.1592" x2="648.207" y2="231.1592">
				<stop  offset="0.0179" style="stop-color:#000000"/>
				<stop  offset="1" style="stop-color:#1C2B36"/>
			</linearGradient>
			<polygon fill="url(#SVGID_43_)" points="648.207,230.239 628.346,230.239 628.346,204.464 624.82,204.464 624.82,230.239 
				607.309,230.239 607.309,233.764 624.82,233.764 624.82,257.854 628.346,257.854 628.346,233.764 648.207,233.764 			"/>
			<linearGradient id="SVGID_44_" gradientUnits="userSpaceOnUse" x1="600.4937" y1="211.4297" x2="652.6719" y2="211.4297">
				<stop  offset="0.0179" style="stop-color:#000000"/>
				<stop  offset="1" style="stop-color:#1C2B36"/>
			</linearGradient>
			<polygon fill="url(#SVGID_44_)" points="626.583,200.024 600.494,219.075 603.313,222.836 626.583,206.384 649.853,222.836 
				652.672,219.075 			"/>
		</g>
		<g>
			<radialGradient id="SVGID_45_" cx="546.498" cy="281.3291" r="16.6221" gradientUnits="userSpaceOnUse">
				<stop  offset="0" style="stop-color:#FF992E"/>
				<stop  offset="1" style="stop-color:#472A0D"/>
			</radialGradient>
			<polygon fill="url(#SVGID_45_)" points="534.121,271.117 531.718,299.608 558.209,299.608 561.279,272.517 547.551,263.051 			
				"/>
			<linearGradient id="SVGID_46_" gradientUnits="userSpaceOnUse" x1="531.9634" y1="282.2197" x2="561.1548" y2="282.2197">
				<stop  offset="0" style="stop-color:#1C2B36"/>
				<stop  offset="0.9821" style="stop-color:#000000"/>
			</linearGradient>
			<polygon fill="url(#SVGID_46_)" points="561.155,281.574 547.11,281.574 549.101,263.527 546.607,263.527 544.617,281.574 
				532.235,281.574 531.963,284.042 544.345,284.042 542.485,300.912 544.978,300.912 546.838,284.042 560.882,284.042 			"/>
			<linearGradient id="SVGID_47_" gradientUnits="userSpaceOnUse" x1="530.1021" y1="286.5938" x2="562.1802" y2="286.5938">
				<stop  offset="0" style="stop-color:#1C2B36"/>
				<stop  offset="0.9821" style="stop-color:#000000"/>
			</linearGradient>
			<polygon fill="url(#SVGID_47_)" points="562.18,272.276 559.687,272.276 556.802,298.443 532.868,298.443 535.753,272.276 
				533.26,272.276 530.375,298.443 530.375,298.443 530.102,300.912 532.595,300.912 556.529,300.912 559.022,300.912 
				559.294,298.443 559.294,298.443 			"/>
			<linearGradient id="SVGID_48_" gradientUnits="userSpaceOnUse" x1="528.2773" y1="268.4038" x2="565.1753" y2="268.4038">
				<stop  offset="0" style="stop-color:#1C2B36"/>
				<stop  offset="0.9821" style="stop-color:#000000"/>
			</linearGradient>
			<polygon fill="url(#SVGID_48_)" points="548.197,260.418 528.277,273.757 529.981,276.389 547.706,264.871 562.89,276.389 
				565.175,273.757 			"/>
		</g>
		<g>
			<radialGradient id="SVGID_49_" cx="543.4307" cy="344.2749" r="16.4802" gradientUnits="userSpaceOnUse">
				<stop  offset="0" style="stop-color:#FF992E"/>
				<stop  offset="1" style="stop-color:#472A0D"/>
			</radialGradient>
			<polygon fill="url(#SVGID_49_)" points="531.292,334.655 528.702,362.337 554.896,362.337 558.16,335.332 546.106,326.213 			"/>
			<linearGradient id="SVGID_50_" gradientUnits="userSpaceOnUse" x1="528.9678" y1="344.9063" x2="558.1602" y2="344.9063">
				<stop  offset="0.0179" style="stop-color:#000000"/>
				<stop  offset="1" style="stop-color:#1C2B36"/>
			</linearGradient>
			<polygon fill="url(#SVGID_50_)" points="558.16,344.262 544.116,344.262 546.106,326.213 543.613,326.213 541.623,344.262 
				529.24,344.262 528.968,346.729 541.351,346.729 539.49,363.6 541.983,363.6 543.844,346.729 557.888,346.729 			"/>
			<linearGradient id="SVGID_51_" gradientUnits="userSpaceOnUse" x1="527.1079" y1="349.2822" x2="559.1855" y2="349.2822">
				<stop  offset="0" style="stop-color:#1C2B36"/>
				<stop  offset="0.9821" style="stop-color:#000000"/>
			</linearGradient>
			<polygon fill="url(#SVGID_51_)" points="556.693,334.964 553.806,361.129 529.874,361.129 532.759,334.964 530.265,334.964 
				527.38,361.129 527.38,361.129 527.108,363.6 529.601,363.6 553.534,363.6 556.027,363.6 559.186,334.964 			"/>
			<linearGradient id="SVGID_52_" gradientUnits="userSpaceOnUse" x1="525.2822" y1="331.0908" x2="562.1802" y2="331.0908">
				<stop  offset="0" style="stop-color:#1C2B36"/>
				<stop  offset="0.9821" style="stop-color:#000000"/>
			</linearGradient>
			<polygon fill="url(#SVGID_52_)" points="545.203,323.105 525.282,336.444 526.986,339.077 544.711,327.557 559.896,339.077 
				562.18,336.444 			"/>
		</g>
		<polygon points="626.583,265.845 557.481,307.208 626.583,307.208 695.686,307.208 		"/>
		<linearGradient id="SVGID_53_" gradientUnits="userSpaceOnUse" x1="567.8228" y1="286.2451" x2="685.3438" y2="286.2451">
			<stop  offset="0.0179" style="stop-color:#000000"/>
			<stop  offset="1" style="stop-color:#1C2B36"/>
		</linearGradient>
		<polygon fill="url(#SVGID_53_)" points="626.583,268.658 567.823,303.832 626.583,303.832 685.344,303.832 		"/>
		<linearGradient id="SVGID_54_" gradientUnits="userSpaceOnUse" x1="557.4814" y1="319.665" x2="695.6855" y2="319.665">
			<stop  offset="0" style="stop-color:#131E26"/>
			<stop  offset="1" style="stop-color:#1C2B36"/>
		</linearGradient>
		<path fill="url(#SVGID_54_)" d="M626.583,307.208h-69.101l10.811,24.914h18.334c0,0,5.641-17.393,39.956-17.393
			c34.316,0,39.958,17.393,39.958,17.393h18.333l10.813-24.914H626.583z"/>
		<linearGradient id="SVGID_55_" gradientUnits="userSpaceOnUse" x1="656.4678" y1="194.6064" x2="673.4386" y2="215.5492">
			<stop  offset="0.0179" style="stop-color:#000000"/>
			<stop  offset="1" style="stop-color:#1C2B36"/>
		</linearGradient>
		<polygon fill="url(#SVGID_55_)" points="675.002,212.729 658.078,190.167 655.258,199.099 672.182,220.425 		"/>
		<polygon points="626.583,186.877 595.088,190.167 597.908,199.099 626.583,195.809 655.258,199.099 658.078,190.167 		"/>
		<linearGradient id="SVGID_56_" gradientUnits="userSpaceOnUse" x1="626.5825" y1="421.1162" x2="626.5825" y2="407.3291">
			<stop  offset="0.0179" style="stop-color:#000000"/>
			<stop  offset="1" style="stop-color:#141F26"/>
		</linearGradient>
		<polygon fill="url(#SVGID_56_)" points="626.583,407.329 576.049,407.329 576.049,421.116 626.583,421.116 677.115,421.116 
			677.115,407.329 		"/>
		<linearGradient id="SVGID_57_" gradientUnits="userSpaceOnUse" x1="626.5835" y1="434.9053" x2="626.5835" y2="421.1162">
			<stop  offset="0.0179" style="stop-color:#000000"/>
			<stop  offset="1" style="stop-color:#141F26"/>
		</linearGradient>
		<polygon fill="url(#SVGID_57_)" points="626.583,421.116 566.413,421.116 566.413,434.905 626.583,434.905 686.754,434.905 
			686.754,421.116 		"/>
		<linearGradient id="SVGID_58_" gradientUnits="userSpaceOnUse" x1="626.5825" y1="448.6924" x2="626.5825" y2="434.9053">
			<stop  offset="0.0179" style="stop-color:#000000"/>
			<stop  offset="1" style="stop-color:#141F26"/>
		</linearGradient>
		<polygon fill="url(#SVGID_58_)" points="626.583,434.905 554.896,434.905 554.896,448.692 626.583,448.692 698.27,448.692 
			698.27,434.905 		"/>
		<g>
			<radialGradient id="SVGID_59_" cx="706.6074" cy="281.5322" r="16.2096" gradientUnits="userSpaceOnUse">
				<stop  offset="0" style="stop-color:#FF992E"/>
				<stop  offset="1" style="stop-color:#472A0D"/>
			</radialGradient>
			<polygon fill="url(#SVGID_59_)" points="692.012,272.589 695.451,299.209 721.203,299.209 718.734,272.208 705.338,263.856 			
				"/>
			<linearGradient id="SVGID_60_" gradientUnits="userSpaceOnUse" x1="692.0117" y1="282.2197" x2="721.2031" y2="282.2197">
				<stop  offset="0.0179" style="stop-color:#000000"/>
				<stop  offset="1" style="stop-color:#1C2B36"/>
			</linearGradient>
			<polygon fill="url(#SVGID_60_)" points="721.203,284.042 720.932,281.574 708.549,281.574 706.557,263.527 704.064,263.527 
				706.057,281.574 692.012,281.574 692.283,284.042 706.328,284.042 708.188,300.912 710.682,300.912 708.82,284.042 			"/>
			<linearGradient id="SVGID_61_" gradientUnits="userSpaceOnUse" x1="690.9854" y1="286.5938" x2="723.0625" y2="286.5938">
				<stop  offset="0.0179" style="stop-color:#000000"/>
				<stop  offset="1" style="stop-color:#1C2B36"/>
			</linearGradient>
			<polygon fill="url(#SVGID_61_)" points="722.791,298.443 722.791,298.443 719.906,272.276 717.414,272.276 720.297,298.443 
				696.365,298.443 693.479,272.276 690.985,272.276 693.873,298.443 693.873,298.443 694.145,300.912 696.637,300.912 
				720.57,300.912 723.063,300.912 			"/>
			<linearGradient id="SVGID_62_" gradientUnits="userSpaceOnUse" x1="687.9912" y1="268.4038" x2="724.8906" y2="268.4038">
				<stop  offset="0.0179" style="stop-color:#000000"/>
				<stop  offset="1" style="stop-color:#1C2B36"/>
			</linearGradient>
			<polygon fill="url(#SVGID_62_)" points="704.969,260.418 687.991,273.757 690.275,276.389 705.461,264.871 723.184,276.389 
				724.891,273.757 			"/>
		</g>
		<g>
			<radialGradient id="SVGID_63_" cx="709.8242" cy="344.2749" r="16.3221" gradientUnits="userSpaceOnUse">
				<stop  offset="0" style="stop-color:#FF992E"/>
				<stop  offset="1" style="stop-color:#472A0D"/>
			</radialGradient>
			<path fill="url(#SVGID_63_)" d="M695.451,335.332l3.732,27.005h25.014c0,0-2.066-27.686-2.928-27.53
				c-0.861,0.157-14.209-8.594-14.209-8.594L695.451,335.332z"/>
			<linearGradient id="SVGID_64_" gradientUnits="userSpaceOnUse" x1="695.0059" y1="344.9063" x2="724.1973" y2="344.9063">
				<stop  offset="0.0179" style="stop-color:#000000"/>
				<stop  offset="1" style="stop-color:#1C2B36"/>
			</linearGradient>
			<polygon fill="url(#SVGID_64_)" points="724.197,346.729 723.926,344.262 711.543,344.262 709.553,326.213 707.061,326.213 
				709.051,344.262 695.006,344.262 695.277,346.729 709.322,346.729 711.184,363.6 713.676,363.6 711.814,346.729 			"/>
			<linearGradient id="SVGID_65_" gradientUnits="userSpaceOnUse" x1="693.9785" y1="349.2822" x2="726.0566" y2="349.2822">
				<stop  offset="0.0179" style="stop-color:#000000"/>
				<stop  offset="1" style="stop-color:#1C2B36"/>
			</linearGradient>
			<polygon fill="url(#SVGID_65_)" points="725.787,361.129 725.787,361.129 722.9,334.964 720.408,334.964 723.291,361.129 
				699.359,361.129 696.473,334.964 693.979,334.964 697.139,363.6 699.633,363.6 723.564,363.6 726.057,363.6 			"/>
			<linearGradient id="SVGID_66_" gradientUnits="userSpaceOnUse" x1="690.9854" y1="331.0908" x2="727.8828" y2="331.0908">
				<stop  offset="0.0179" style="stop-color:#000000"/>
				<stop  offset="1" style="stop-color:#1C2B36"/>
			</linearGradient>
			<polygon fill="url(#SVGID_66_)" points="707.963,323.105 690.985,336.444 693.271,339.077 708.455,327.557 726.178,339.077 
				727.883,336.444 			"/>
		</g>
	</g>
</g>
</svg>
