<?xml version="1.0" encoding="utf-8"?>
<!-- Generator: Adobe Illustrator 16.0.3, SVG Export Plug-In . SVG Version: 6.00 Build 0)  -->
<!DOCTYPE svg PUBLIC "-//W3C//DTD SVG 1.1//EN" "http://www.w3.org/Graphics/SVG/1.1/DTD/svg11.dtd">
<svg version="1.1" id="moon" xmlns="http://www.w3.org/2000/svg" xmlns:xlink="http://www.w3.org/1999/xlink" x="0px" y="0px"
	 width="200px" height="200px" viewBox="0 0 200 200" enable-background="new 0 0 200 200" xml:space="preserve">
<g>
	<g>
		<g>
			
				<radialGradient id="SVGID_1_" cx="-841.7998" cy="-293.3574" r="38.3999" gradientTransform="matrix(-1.6929 -1.6929 1.6785 -1.6785 -834.1359 -1817.9388)" gradientUnits="userSpaceOnUse">
				<stop  offset="0" style="stop-color:#6A229D"/>
				<stop  offset="0.1554" style="stop-color:#672199"/>
				<stop  offset="0.3155" style="stop-color:#5F1E8C"/>
				<stop  offset="0.4779" style="stop-color:#511A78"/>
				<stop  offset="0.6419" style="stop-color:#3D145B"/>
				<stop  offset="0.8071" style="stop-color:#240C36"/>
				<stop  offset="0.9711" style="stop-color:#060209"/>
				<stop  offset="1" style="stop-color:#000000"/>
			</radialGradient>
			<path fill="url(#SVGID_1_)" d="M33.538,34.537C-2.061,70.134-1.813,128.098,34.09,163.999
				c35.901,35.902,93.863,36.149,129.462,0.552c35.598-35.598,35.352-93.56-0.553-129.462C127.097-0.813,69.136-1.061,33.538,34.537
				z"/>
		</g>
		<g>
			
				<radialGradient id="SVGID_2_" cx="-840.9795" cy="-291.8853" r="32.7593" gradientTransform="matrix(-1.6929 -1.6929 1.6785 -1.6785 -834.1359 -1817.9388)" gradientUnits="userSpaceOnUse">
				<stop  offset="0" style="stop-color:#0037A4"/>
				<stop  offset="0.1534" style="stop-color:#0036A0"/>
				<stop  offset="0.31" style="stop-color:#003294"/>
				<stop  offset="0.4681" style="stop-color:#002B7F"/>
				<stop  offset="0.6272" style="stop-color:#002163"/>
				<stop  offset="0.7871" style="stop-color:#00153E"/>
				<stop  offset="0.9456" style="stop-color:#000611"/>
				<stop  offset="1" style="stop-color:#000000"/>
			</radialGradient>
			<path fill="url(#SVGID_2_)" d="M44.171,40.226c-30.367,30.369-30.156,79.817,0.472,110.445
				c30.629,30.629,80.074,30.839,110.443,0.472c30.368-30.369,30.157-79.816-0.472-110.444
				C123.985,10.069,74.539,9.858,44.171,40.226z"/>
		</g>
		<path fill="#E7EFFF" d="M29.442,95.869c0,38.506,31.216,69.719,69.72,69.719c32.726,0,60.184-22.546,67.692-52.95
			c1.324-5.368,2.029-10.984,2.029-16.769c0-2.556-0.139-5.08-0.405-7.563c-3.77-34.95-33.362-62.159-69.316-62.159
			C60.658,26.147,29.442,57.359,29.442,95.869z"/>
		<g opacity="0.2">
			<path fill="#635EB0" d="M116.776,143.001c-0.874,1.872-1.463,3.516-2.956,5.064c-1.621,1.685-2.885,2.002-4.987,2.616
				c-1.223,0.358-1.478,0.784-3.037,0.762c-1.021-0.016-2.437-0.264-3.422-0.042c-2.209,0.502-3.387,2.462-5.865,2.598
				c-2.355,0.127-3.869-0.65-5.915-1.277c-1.917-0.587-4.153-1.423-5.934-2.097c-1.944-0.735-3.683-1.255-5.699-1.9
				c-2.159-0.689-3.268-2.134-5.974-1.377c-0.174,1.006,0.075,2.599-1.161,3.104c-0.849,0.345-2.258-0.552-3.167-0.9
				c-2.366-0.911-4.507-1.41-6.753-2.351c-1.087-0.457-1.877-0.426-2.979-1.244c-1.057-0.787-2.195-1.375-3.298-2.111
				c-2.04-1.363-4.044-2.842-6.072-4.223c-3.9-2.654-6.416-6.292-8.784-10.138c-1.246-2.026-1.961-4.255-2.745-6.564
				c-0.962-2.846-0.639-3.651,1.266-5.976c3.416,1.421,4.771-0.691,3.823-4.347c-0.831-3.198-1.188-7.45-0.469-10.792
				c0.127-0.595,0.58-1.016,0.679-1.857c0.109-0.926-0.079-1.619,0.166-2.554c0.399-1.534,0.667-2.572,0.656-4.222
				c-0.011-1.659-0.229-3.468,0.188-5.069c0.262-1.006,0.622-1.438,0.677-2.533c0.054-1.125-0.143-2.105,0.172-3.188
				c0.813-2.818,3.391-3.608,5.721-4.414c1.588-0.548,2.385-1.09,3.396-0.014c1.081,1.151,0.812,2.734,0.821,4.234
				c0.021,2.821-1.8,5.309-3.376,7.601c-0.7,1.019-1.931,2.003-1.752,3.405c0.102,0.77,1.051,0.885,0.992,1.661
				c-0.07,0.94-1.082,1.224-1.585,1.88c-4.031,5.263,3.561,9.896,7.181,12.689c2.063,1.593,5.163,2.404,5.953,5.049
				c0.844,2.828-1.104,5.185-2.133,7.601c-1.072,2.523-2.004,6.957-0.438,9.328c0.669,1.012,1.969,1.612,2.974,2.096
				c1.481,0.712,2.045,1.602,3.354,2.556c2.133,1.55,4.771,2.062,7.413,1.896c1.681-0.105,2.899-0.785,4.22-1.709
				c1.016-0.708,2.375-2.001,3.571-2.343c0.858-0.245,1.495-0.062,2.366-0.168c1.189-0.146,1.419-0.639,2.464-0.908
				c1.797-0.464,3.072,0.807,4.479,1.521c1.196,0.606,2.609,1.473,4.059,1.096c1.397-0.363,3.021-1.263,4.366-1.542
				c3.221-0.667,8.437-0.898,11.018,1.292c1.303,1.105,1.759,2.652,2.922,3.816C114.28,140.115,116.431,140.413,116.776,143.001z"/>
			<path fill="#635EB0" d="M52.592,69.526c3.095,0.061,5.938-2.267,8.468-4.014c2.074-1.434,4.252-3.69,5.255-5.914
				c0.3-0.669,0.401-1.22,0.635-1.896c0.053-0.149,0.807-2.156,0.805-2.215c-0.03-1.176-0.986-2.579-1.861-3.482
				c-2.519-2.596-6.367-0.729-8.89,0.839c-2.389,1.482-4.7,3.154-6.711,5.069c-0.972,0.926-2.306,1.767-2.995,2.935
				c-0.907,1.543-0.643,3.424-0.618,5.296c0.039,2.855-3.696,6.146,0.825,6.774c1.776,0.248,7.22-1.25,7.625-3.394h-2.537V69.526z"
				/>
			<path fill="#635EB0" d="M108.332,159.89c0.769,0.854,1.674,0.265,2.543-0.011c0.838-0.268,1.57-0.417,2.522-0.41
				c1.854,0.012,3.527,0.014,5.277-0.422c1.67-0.416,3.262-0.659,4.857-1.057c0.635-0.158,1.241-0.516,1.883-0.648
				c0.397-0.083,0.844,0.053,1.247-0.02c0.19-0.035,0.206-0.263,0.341-0.293c0.326-0.071,0.638-0.024,0.958-0.083
				c1.597-0.28,3.104-0.759,4.53-1.187c0.676-0.201,1.292-0.226,1.915-0.607c0.647-0.396,1.538-0.836,2.123-1.267
				c2.274-1.683,4.771-3.1,6.849-5.184c1.958-1.967,3.976-3.765,6.025-5.596c0.477-0.424,0.859-0.983,1.359-1.378
				c0.55-0.433,1.069-0.631,1.588-1.158c1.065-1.083,1.893-2.26,2.747-3.491c1.665-2.408,3.811-4.378,5.116-7.011
				c0.634-1.273,1.206-2.512,1.955-3.73c0.474-0.771,0.938-1.718,1.276-2.555c0.257-0.635,0.772-1.384,0.949-1.992
				c0.265-0.907,0.257-1.778,0.507-2.659c0.108-0.387,0.363-0.646,0.455-1.022c0.113-0.474-0.14-1.037-0.037-1.516
				c0.089-0.429,0.361-0.615,0.459-1.02c0.115-0.475-0.141-1.037-0.037-1.516c0.091-0.427,0.361-0.615,0.461-1.019
				c0.132-0.541-0.175-1.191-0.044-1.732c0.097-0.401,0.368-0.591,0.458-1.018c0.095-0.438-0.011-1.041-0.014-1.493
				c-0.011-1.089,0.375-1.923,0.432-2.957c0.051-0.946,0.201-2.267,0.006-3.183c-0.091-0.425-0.365-0.618-0.461-1.019
				c-0.131-0.553,0.133-1.112-0.05-1.676c-1.14-0.298-0.778,2.12-0.771,2.709c0.011,1.091-0.448,1.687-0.424,2.745
				c0.032,1.309-0.517,1.488-1.287,2.441c-0.334,0.41-1.102,1.22-1.268,1.76c-0.109,0.359-0.1,0.938-0.189,1.289
				c-0.111,0.438-0.22,0.734-0.209,1.269c0.02,1.029,0.074,1.551-0.731,2.215c-0.555,0.458-1.506,1.03-2.2,1.185
				c-0.962,0.216-1.801,0.203-2.786,0.384c-0.444,0.082-0.601,0.362-1.018,0.461c-0.535,0.126-1.104-0.208-1.629,0.062
				c-0.491,0.255-1.118,1.236-1.255,1.701c-0.266,0.907-0.081,1.653,0.328,2.437c0.146,0.282,0.257,0.575,0.422,0.845
				c0.196,0.317,0.589,0.614,0.762,0.93c0.795,1.46-0.354,3.838-0.668,5.076c-0.123,0.479-0.849,1.941-0.45,2.378
				c0.4,0.441,2.793,0.061,3.248-0.204c0.26,0.534-0.239,1.562-0.396,2.125c-0.187,0.661-0.507,1.616-0.898,2.259
				c-0.767,1.256-2.146,2.43-3.444,3.11c-0.857,0.452-1.382,0.69-1.538-0.462c-0.072-0.524,0.081-0.811-0.185-1.293
				c-0.19-0.343-0.539-0.386-0.67-0.809c-0.145-0.457,0.146-1.045,0.035-1.515c-0.083-0.344-0.333-0.563-0.402-0.864
				c-0.233-0.997,0.151-2.119-0.017-3.131c-0.34-2.032-1.852-2.943-3.607-3.377c-1.795-0.443-3.563-0.938-5.259-1.689
				c-1.899-0.843-3.954-1.146-5.934-0.524c-1.619,0.508-2.902,1.481-4.381,2.266c-0.685,0.364-1.299,0.522-1.966,0.782
				c-0.773,0.299-1.576,0.593-2.35,0.815c-1.394,0.4-3.004,0.633-4.29,1.401c-1.208,0.723-2.847,1.679-3.703,2.852
				c-0.82,1.118-1.607,3.43-1.013,4.835c0.447,1.063,2.055,1.988,2.817,2.883c1.298,1.521,0.951,2.535,0,4.104
				c-0.351,0.574-0.96,1.328-1.126,1.948c-0.22,0.824-0.084,2.066-0.039,2.924c0.041,0.813,0.292,1.344,0.731,2.013
				c0.414,0.628,1.383,1.021,1.718,1.654c0.306,0.574,0.021,0.863-0.219,1.3c-0.069,0.122-0.275,0.164-0.345,0.29
				c-0.16,0.302-0.059,0.58-0.184,0.871c-0.42,0.968-1.255,0.818-2.123,1.044c-0.894,0.234-1.681,0.14-2.545-0.199
				c-0.514-0.199-0.68-0.355-1.244-0.442c-0.62-0.094-0.915,0.242-1.369,0.335c-1.041,0.214-1.634-0.497-2.669-0.554
				c-0.825-0.044-1.343,0.32-1.986,0.967c-0.537,0.536-1.287,1.426-1.195,2.229C106.705,158.613,107.751,159.131,108.332,159.89z"/>
			<path fill="#635EB0" d="M116.355,128.221c-0.264-0.147-0.489-0.258-0.74-0.359c-0.662,0.766-1.398,1.532-2.219,2.048
				c-1.232,0.773-1.845,0.284-2.124-1.038c-0.145-0.68,0.222-1.099,0.345-1.588c0.142-0.561,0.005-1.159,0.601-1.511
				c0.822-0.486,3.226-0.234,2.869,1.181L116.355,128.221z"/>
			<path fill="#635EB0" d="M156.892,73.748c0.188,0.319,0.448,0.45,0.78,0.39c0.183-0.717,0.164-1.948,0.026-2.676
				c-0.074-0.395-0.335-0.588-0.396-1.081c-0.053-0.408,0.008-0.773-0.085-1.184c-0.111-0.523-0.543-1.352-0.655-1.877
				c-0.174-0.82-0.2-1.261-0.526-2.005c-0.301-0.684-0.474-1.576-0.781-2.352c-0.28-0.705-0.612-1.227-1.004-1.871
				c-0.776-1.283-1.424-2.525-2.216-3.813c-1.401-2.278-2.981-4.543-5.099-6.322c-0.723-0.609-1.546-1.064-2.302-1.596
				c-0.261-0.183-0.466-0.478-0.716-0.642c-0.246-0.163-0.646-0.239-0.87-0.401c-0.658-0.482-2.555-2.404-3.418-1.941
				c0.595,1.567,1.624,3.139,2.375,4.674c0.87,1.774,2.5,1.697,3.799,2.958c2.032,1.973-1.354,2.797-2.528,3.568
				c-1.15,0.754-1.17,1.836-1.165,3.081c0.007,1.159-0.085,2.086-0.422,3.167c-0.137,0.442-0.366,1.011-0.445,1.477
				c0.017,0.29,0.031,0.578,0.047,0.868c-0.027,0.229-0.146,0.395-0.352,0.494c-0.264,1.205,0.235,1.919,0.646,2.957
				c0.398,1.013,0.651,1.983,1.479,2.754c0.825,0.771,1.736,0.514,2.849,0.528c0.714,0.009,1.037-0.167,1.688-0.328
				c0.424-0.105,1.036-0.358,1.361-0.42c0.504-0.098,0.997-0.082,1.5-0.189c0.525-0.111,0.561-0.417,1.268-0.231
				c0.731,0.192,1.425,1.02,2.184,1.193c1.063,0.239,2.272-0.26,3.329,0.049C157.265,73.092,157.29,73.209,156.892,73.748z"/>
		</g>
	</g>
</g>
</svg>
