<?xml version="1.0" encoding="utf-8"?>
<!-- Generator: Adobe Illustrator 16.0.3, SVG Export Plug-In . SVG Version: 6.00 Build 0)  -->
<!DOCTYPE svg PUBLIC "-//W3C//DTD SVG 1.1//EN" "http://www.w3.org/Graphics/SVG/1.1/DTD/svg11.dtd">
<svg version="1.1" xmlns="http://www.w3.org/2000/svg" xmlns:xlink="http://www.w3.org/1999/xlink" x="0px" y="0px" width="500px"
	 height="500px" viewBox="0 0 500 500" enable-background="new 0 0 500 500" xml:space="preserve">
<g id="Background_Complete">
	<g>
		<g>
			<g>
				<g>
					<rect x="380.303" y="191.861" fill="#EBEBEB" width="84.805" height="22.435"/>
				</g>
			</g>
		</g>
	</g>
	<g>
		<g>
			<g>
				<g>
					<rect x="362.158" y="305.099" fill="#F5F5F5" width="84.804" height="22.436"/>
				</g>
			</g>
		</g>
		<g>
			<g>
				<g>
					<g>
						<path fill="#E0E0E0" d="M398.017,282.211c0.009,0.01,0.018,0.146,0.026,0.408c0.007,0.3,0.016,0.679,0.027,1.15
							c0.015,1.056,0.036,2.528,0.063,4.416c0.034,3.872,0.084,9.44,0.146,16.461l-0.263-0.263
							c19.363-0.039,50.157-0.101,84.799-0.169c-0.191,0.191,0.436-0.432-0.427,0.431v-0.005v-0.012v-0.022v-0.045v-0.091v-0.181
							v-0.36v-0.722v-1.438c0-0.957,0-1.911,0-2.861c0.001-1.901,0.001-3.789,0.002-5.662c0.003-3.744,0.005-7.427,0.008-11.034
							l0.422,0.422c-24.148-0.076-45.278-0.144-60.434-0.191c-7.549-0.051-13.607-0.093-17.839-0.121
							c-2.058-0.023-3.67-0.042-4.823-0.056c-0.52-0.011-0.935-0.02-1.262-0.027C398.177,282.23,398.026,282.221,398.017,282.211
							c-0.01-0.009,0.123-0.018,0.393-0.027c0.313-0.007,0.712-0.016,1.21-0.026c1.131-0.014,2.713-0.032,4.731-0.056
							c4.209-0.028,10.233-0.069,17.741-0.12c15.229-0.049,36.462-0.116,60.729-0.192l0.423-0.002v0.425
							c0.003,3.607,0.005,7.29,0.007,11.034c0.001,1.873,0.002,3.761,0.002,5.662c0,0.95,0.001,1.904,0.001,2.861v1.438v0.722v0.36
							v0.181v0.091v0.045v0.022v0.012v0.005c-0.864,0.865-0.243,0.24-0.438,0.433c-34.642-0.068-65.436-0.13-84.799-0.169
							l-0.266-0.001l0.003-0.262c0.062-7.087,0.11-12.708,0.145-16.618c0.027-1.861,0.049-3.314,0.064-4.356
							c0.011-0.452,0.02-0.815,0.027-1.104C398,282.323,398.008,282.204,398.017,282.211z"/>
					</g>
				</g>
			</g>
		</g>
	</g>
	<g>
		<g>
			<g>
				<g>
					<rect x="67.243" y="40.469" fill="#F5F5F5" width="84.805" height="22.435"/>
				</g>
			</g>
		</g>
		<g>
			<g>
				<g>
					<g>
						<path fill="#E0E0E0" d="M116.188,85.792c-0.009-0.009-0.017-0.146-0.026-0.408c-0.007-0.3-0.016-0.679-0.028-1.151
							c-0.015-1.056-0.036-2.528-0.063-4.415c-0.034-3.873-0.083-9.441-0.146-16.461l0.263,0.262
							c-19.363,0.039-50.158,0.101-84.799,0.169c0.191-0.192-0.436,0.431,0.427-0.431v0.005v0.011v0.022v0.045v0.09v0.18v0.361
							l0,0.721v1.438c0,0.957,0,1.911,0,2.862c0,1.901-0.001,3.789-0.001,5.662c-0.002,3.745-0.005,7.427-0.007,11.035l-0.422-0.423
							c24.148,0.077,45.278,0.144,60.434,0.192c7.549,0.051,13.606,0.092,17.838,0.12c2.058,0.024,3.67,0.042,4.824,0.056
							c0.519,0.011,0.934,0.021,1.261,0.027C116.028,85.773,116.179,85.782,116.188,85.792c0.009,0.009-0.124,0.018-0.392,0.027
							c-0.314,0.007-0.712,0.016-1.21,0.027c-1.132,0.013-2.713,0.032-4.732,0.055c-4.208,0.029-10.233,0.07-17.741,0.121
							c-15.229,0.048-36.462,0.115-60.729,0.192l-0.423,0.001v-0.424c-0.002-3.608-0.005-7.291-0.007-11.035
							c0-1.873-0.001-3.76-0.001-5.662c0-0.951,0-1.905,0-2.862l0-1.438v-0.721v-0.361v-0.18v-0.09v-0.045v-0.022v-0.011v-0.005
							c0.865-0.865,0.243-0.24,0.438-0.433c34.641,0.069,65.436,0.13,84.799,0.169l0.265,0l-0.002,0.263
							c-0.062,7.086-0.111,12.708-0.146,16.617c-0.027,1.862-0.048,3.314-0.063,4.356c-0.011,0.453-0.021,0.816-0.028,1.104
							C116.205,85.68,116.197,85.8,116.188,85.792z"/>
					</g>
				</g>
			</g>
		</g>
	</g>
	<g>
		<g>
			<g>
				<g>
					<rect x="84.097" y="251.754" fill="#F5F5F5" width="84.804" height="22.435"/>
				</g>
			</g>
		</g>
		<g>
			<g>
				<g>
					<g>
						<path fill="#E0E0E0" d="M133.042,297.077c-0.009-0.009-0.017-0.146-0.026-0.408c-0.007-0.3-0.017-0.679-0.028-1.15
							c-0.015-1.056-0.036-2.528-0.064-4.415c-0.034-3.873-0.083-9.441-0.145-16.462l0.263,0.263
							c-19.363,0.039-50.158,0.101-84.799,0.17c0.191-0.192-0.436,0.431,0.427-0.432v0.006v0.011v0.022v0.046v0.09v0.181v0.36v0.722
							v1.438c0,0.957,0,1.911,0,2.861c0,1.901-0.001,3.789-0.002,5.662c-0.002,3.744-0.005,7.427-0.007,11.034l-0.423-0.422
							c24.148,0.076,45.279,0.144,60.434,0.191c7.549,0.052,13.607,0.093,17.838,0.121c2.058,0.023,3.67,0.042,4.823,0.056
							c0.519,0.011,0.935,0.02,1.262,0.027C132.882,297.058,133.033,297.067,133.042,297.077c0.009,0.009-0.124,0.018-0.393,0.027
							c-0.313,0.007-0.712,0.016-1.21,0.026c-1.131,0.014-2.713,0.032-4.732,0.056c-4.208,0.029-10.233,0.07-17.741,0.121
							c-15.229,0.048-36.462,0.115-60.729,0.191l-0.422,0.002v-0.425c-0.002-3.607-0.005-7.29-0.007-11.034
							c0-1.873-0.001-3.761-0.002-5.662c0-0.95,0-1.904,0-2.861v-1.438v-0.722v-0.36v-0.181v-0.09v-0.046v-0.022v-0.011v-0.006
							c0.864-0.865,0.243-0.24,0.438-0.433c34.641,0.069,65.436,0.131,84.799,0.169l0.265,0.001l-0.002,0.262
							c-0.062,7.087-0.111,12.708-0.146,16.618c-0.027,1.861-0.049,3.314-0.064,4.356c-0.011,0.453-0.02,0.816-0.027,1.104
							C133.06,296.965,133.051,297.084,133.042,297.077z"/>
					</g>
				</g>
			</g>
		</g>
	</g>
	<g>
		<g>
			<g>
				<g>
					<rect x="77.085" y="169.426" fill="#EBEBEB" width="84.804" height="22.435"/>
				</g>
			</g>
		</g>
	</g>
	<g>
		<g>
			<g>
				<g>
					<path fill="#E0E0E0" d="M297.253,24.604c0.009,0.009,0.017,0.146,0.025,0.408c0.008,0.3,0.017,0.678,0.028,1.151
						c0.015,1.056,0.036,2.528,0.063,4.415c0.034,3.873,0.083,9.441,0.146,16.461l-0.263-0.263
						c19.363-0.039,50.157-0.1,84.799-0.169c-0.191,0.192,0.436-0.431-0.428,0.431v-0.005v-0.011V47v-0.045v-0.09v-0.18v-0.361
						l0.001-0.721v-1.438c0-0.957,0-1.911,0-2.862c0.001-1.901,0.001-3.79,0.002-5.662c0.002-3.744,0.005-7.427,0.007-11.035
						l0.423,0.422c-24.148-0.076-45.278-0.144-60.435-0.192c-7.549-0.051-13.606-0.092-17.838-0.121
						c-2.058-0.023-3.67-0.042-4.823-0.055c-0.52-0.012-0.935-0.021-1.262-0.027C297.413,24.623,297.262,24.614,297.253,24.604
						c-0.01-0.009,0.123-0.018,0.392-0.027c0.313-0.007,0.713-0.016,1.21-0.027c1.132-0.013,2.714-0.032,4.732-0.055
						c4.208-0.029,10.233-0.07,17.741-0.121c15.229-0.048,36.462-0.116,60.729-0.192l0.422-0.001l0.001,0.424
						c0.002,3.608,0.005,7.291,0.007,11.035c0.001,1.873,0.001,3.761,0.002,5.662c0,0.951,0,1.905,0,2.862l0.001,1.438v0.721v0.361
						v0.18v0.09V47v0.022v0.011v0.005c-0.865,0.865-0.243,0.24-0.438,0.433c-34.642-0.069-65.437-0.13-84.799-0.169l-0.266-0.001
						l0.002-0.262c0.063-7.087,0.111-12.708,0.146-16.618c0.027-1.862,0.049-3.314,0.063-4.356c0.012-0.453,0.021-0.816,0.028-1.104
						C297.235,24.716,297.244,24.596,297.253,24.604z"/>
				</g>
			</g>
		</g>
	</g>
	<g>
		<g>
			<g>
				<g>
					<path fill="#E0E0E0" d="M27.114,379.717c0.009,0.009,0.017,0.146,0.026,0.407c0.007,0.301,0.016,0.679,0.027,1.151
						c0.015,1.056,0.037,2.527,0.063,4.415c0.034,3.873,0.084,9.44,0.146,16.461l-0.263-0.263c19.363-0.038,50.158-0.1,84.799-0.169
						c-0.191,0.192,0.436-0.431-0.427,0.432v-0.006v-0.012v-0.022v-0.045v-0.09v-0.181v-0.361v-0.721v-1.438
						c0-0.957,0-1.911,0-2.862c0.001-1.901,0.001-3.789,0.002-5.661c0.002-3.744,0.005-7.428,0.007-11.035l0.422,0.423
						c-24.148-0.076-45.279-0.144-60.434-0.192c-7.549-0.051-13.607-0.092-17.838-0.12c-2.058-0.023-3.67-0.042-4.823-0.056
						c-0.52-0.012-0.935-0.021-1.262-0.027C27.274,379.736,27.124,379.727,27.114,379.717c-0.009-0.009,0.124-0.018,0.393-0.027
						c0.313-0.007,0.712-0.016,1.21-0.027c1.131-0.013,2.713-0.031,4.732-0.056c4.208-0.028,10.233-0.069,17.741-0.12
						c15.229-0.048,36.462-0.115,60.729-0.192l0.422-0.001l0,0.424c0.002,3.607,0.004,7.291,0.007,11.035
						c0,1.872,0.001,3.76,0.002,5.661c0,0.951,0,1.905,0,2.862v1.438v0.721v0.361v0.181v0.09v0.045v0.022v0.012v0.006
						c-0.864,0.864-0.243,0.239-0.437,0.433c-34.642-0.069-65.436-0.131-84.799-0.17h-0.265l0.002-0.263
						c0.062-7.087,0.111-12.708,0.145-16.617c0.027-1.862,0.048-3.314,0.064-4.356c0.011-0.453,0.02-0.816,0.027-1.104
						C27.097,379.829,27.105,379.708,27.114,379.717z"/>
				</g>
			</g>
		</g>
	</g>
	<g>
		<g>
			<g>
				<g>
					<g>
						<g>
							<g>
								<g>
									<g>
										<rect x="224.131" y="75.051" fill="#E0E0E0" width="225.714" height="390.437"/>
									</g>
								</g>
							</g>
						</g>
					</g>
				</g>
			</g>
		</g>
		<g>
			<g>
				<g>
					<g>
						<g>
							<g>
								<g>
									<g>
										<rect x="212.823" y="75.051" fill="#F5F5F5" width="225.714" height="390.437"/>
									</g>
								</g>
							</g>
						</g>
					</g>
				</g>
			</g>
		</g>
		<g>
			<g>
				<g>
					<g>
						<g>
							<g>
								<g>
									<g>
										<g>
											<rect x="240.867" y="110.659" fill="#FFFFFF" width="169.628" height="328.966"/>
										</g>
									</g>
								</g>
							</g>
						</g>
					</g>
				</g>
			</g>
			<g>
				<g>
					<g>
						<g>
							<g>
								<g>
									<g>
										<g>
											<g>
												<path fill="#E0E0E0" d="M410.495,439.625c0,0-0.022-0.557-0.033-1.609c-0.008-1.086-0.019-2.636-0.033-4.665
													c-0.016-4.134-0.038-10.186-0.068-18.043c-0.035-15.767-0.087-38.742-0.151-67.766
													c-0.067-58.009-0.164-140.151-0.276-236.883l0.563,0.723c-51.824,0.02-109.251,0.042-169.607,0.065h-0.021l0.614-0.788
													c-0.047,124.099-0.09,238.52-0.125,328.965l-0.489-0.627c51.658,0.138,94.002,0.251,123.467,0.33
													c14.739,0.068,26.249,0.122,34.111,0.159c3.907,0.031,6.901,0.055,8.954,0.07
													C409.426,439.58,410.495,439.625,410.495,439.625s-0.998,0.045-2.993,0.067c-2.031,0.016-4.995,0.039-8.862,0.07
													c-7.837,0.037-19.31,0.091-34.001,0.16c-29.538,0.078-71.986,0.191-123.771,0.329l-0.489,0.002l0-0.63
													c-0.034-90.445-0.078-204.866-0.125-328.965l0-0.788h0.614h0.021c60.356,0.023,117.783,0.045,169.607,0.065l0.564,0
													l-0.001,0.723c-0.113,96.926-0.21,179.234-0.277,237.358c-0.065,28.953-0.116,51.873-0.151,67.602
													c-0.029,7.794-0.053,13.798-0.068,17.899c-0.015,1.993-0.025,3.516-0.033,4.583
													C410.517,439.125,410.495,439.625,410.495,439.625z"/>
											</g>
										</g>
									</g>
								</g>
							</g>
						</g>
					</g>
				</g>
			</g>
		</g>
		<g>
			<g>
				<g>
					<g>
						<g>
							<g>
								<g>
									<g>
										<g>
											<path fill="#E0E0E0" d="M439.172,75.051c0.123,0.097-1.307,2.221-3.753,5.55c-2.446,3.329-5.918,7.857-9.879,12.753
												c-3.964,4.897-7.666,9.233-10.407,12.314c-2.742,3.081-4.515,4.916-4.632,4.812c-0.121-0.107,1.437-2.134,4.019-5.35
												c2.822-3.485,6.295-7.774,10.137-12.518c3.837-4.744,7.307-9.035,10.127-12.523
												C437.39,76.895,439.045,74.95,439.172,75.051z"/>
										</g>
									</g>
								</g>
							</g>
						</g>
					</g>
				</g>
			</g>
		</g>
		<g>
			<g>
				<g>
					<g>
						<g>
							<g>
								<g>
									<g>
										<g>
											<path fill="#FFFFFF" d="M408.946,438.631c8.425,10.045,18.37,19.372,29.586,27.743"/>
										</g>
									</g>
								</g>
							</g>
						</g>
					</g>
				</g>
			</g>
			<g>
				<g>
					<g>
						<g>
							<g>
								<g>
									<g>
										<g>
											<g>
												<path fill="#E0E0E0" d="M438.532,466.375c-0.111,0.085-2.125-1.225-5.158-3.518c-3.033-2.291-7.052-5.59-11.16-9.438
													c-4.104-3.853-7.512-7.518-9.825-10.24c-2.315-2.723-3.577-4.483-3.442-4.547c0.152-0.071,1.672,1.564,4.162,4.183
													c2.487,2.618,5.983,6.2,10.064,10.03c4.084,3.825,7.974,7.171,10.834,9.566
													C436.865,464.807,438.659,466.279,438.532,466.375z"/>
											</g>
										</g>
									</g>
								</g>
							</g>
						</g>
					</g>
				</g>
			</g>
		</g>
		<g>
			<g>
				<g>
					<g>
						<g>
							<g>
								<g>
									<g>
										<g>
											<path fill="#FFFFFF" d="M212.791,465.625c9.855-9.116,19.71-18.233,29.565-27.351"/>
										</g>
									</g>
								</g>
							</g>
						</g>
					</g>
				</g>
			</g>
			<g>
				<g>
					<g>
						<g>
							<g>
								<g>
									<g>
										<g>
											<g>
												<path fill="#E0E0E0" d="M242.356,438.274c0.263,0.16-6.142,6.413-14.305,13.965
													c-8.166,7.554-14.997,13.546-15.26,13.386c-0.263-0.16,6.141-6.411,14.307-13.966
													C235.26,444.108,242.093,438.114,242.356,438.274z"/>
											</g>
										</g>
									</g>
								</g>
							</g>
						</g>
					</g>
				</g>
			</g>
		</g>
		<g>
			<g>
				<g>
					<g>
						<g>
							<g>
								<g>
									<g>
										<g>
											
												<ellipse transform="matrix(-0.6203 -0.7843 0.7843 -0.6203 294.698 327.8248)" fill="#E0E0E0" cx="226.692" cy="92.587" rx="22.358" ry="0.614"/>
										</g>
									</g>
								</g>
							</g>
						</g>
					</g>
				</g>
			</g>
		</g>
		<g>
			<g>
				<g>
					<g>
						<g>
							<g>
								<g>
									<g>
										<rect x="298.156" y="167.19" fill="#E0E0E0" width="56.798" height="230.604"/>
									</g>
								</g>
							</g>
						</g>
					</g>
				</g>
			</g>
		</g>
	</g>
</g>
<g id="Background_Simple">
	<path fill="#F5F5F5" d="M102.35,143.567l1.542-3.56c12.996-30.009,41.086-50.887,73.404-53.269
		c4.154-0.307,8.332-0.313,12.497-0.004c29.988,2.227,58.365,20.768,72.753,47.534c8.462,15.742,12.816,34.607,26.354,46.164
		c17.619,15.04,43.601,12.014,66.28,8.169s48.688-6.806,66.241,8.312c10.993,9.468,16.125,24.377,17.344,38.915
		c3.228,38.49-18.697,76.318-50.221,97.959c-31.523,21.641-71.182,28.647-109.268,26.276
		c-53.354-3.321-106.679-25.268-142.462-65.573C101.031,254.186,85.199,194.744,102.35,143.567z"/>
	<circle fill="#F5F5F5" cx="340.275" cy="112.857" r="36.884"/>
</g>
<g id="Table">
	<g>
		<path fill="#263238" d="M482.635,467.133c0,0.144-99.396,0.26-221.979,0.26c-122.625,0-222-0.116-222-0.26
			c0-0.145,99.375-0.261,222-0.261C383.239,466.873,482.635,466.989,482.635,467.133z"/>
	</g>
</g>
<g id="Plant">
	<g>
		<g>
			<g>
				<g>
					<g>
						<g>
							<path fill="#455A64" d="M72.588,99.437c-4.569-0.631-8.688,1.5-10.866,4.627c-2.178,3.126-2.687,7.099-2.597,11.034
								c0.079,3.458,0.66,7.146,2.998,10.295c2.781,3.745,7.736,6.149,12.513,6.815s9.386-0.215,13.498-1.694
								c1.067-4.481-0.055-10.078-1.063-14.876c-0.726-3.456-1.961-6.985-4.37-10.048C80.292,102.527,76.555,99.984,72.588,99.437z"
								/>
						</g>
					</g>
				</g>
			</g>
			<g>
				<g>
					<g>
						<g>
							<g>
								<path fill="#263238" d="M82.042,120.76c0.034-0.021,0.33,0.407,0.862,1.24c0.583,0.941,1.34,2.16,2.279,3.674
									c1.979,3.191,4.683,7.908,7.867,13.821c3.203,5.903,6.764,13.07,10.463,21.146c3.642,8.101,7.389,17.126,10.896,26.761
									c3.465,9.654,6.355,18.991,8.735,27.549c2.32,8.576,4.164,16.363,5.476,22.951c1.332,6.582,2.27,11.938,2.788,15.656
									c0.246,1.764,0.444,3.185,0.597,4.281c0.123,0.98,0.169,1.498,0.129,1.505c-0.04,0.006-0.163-0.5-0.361-1.469
									c-0.208-1.087-0.477-2.494-0.811-4.242c-0.655-3.692-1.714-9.015-3.146-15.561c-1.412-6.551-3.334-14.298-5.703-22.834
									c-2.43-8.519-5.342-17.817-8.796-27.441c-3.497-9.605-7.202-18.614-10.78-26.717c-3.635-8.077-7.11-15.262-10.213-21.202
									c-3.085-5.949-5.674-10.719-7.531-13.976c-0.861-1.558-1.554-2.813-2.09-3.782C82.237,121.249,82.008,120.781,82.042,120.76
									z"/>
							</g>
						</g>
					</g>
				</g>
			</g>
			<g>
				<g>
					<g>
						<g>
							<path fill="#455A64" d="M70.167,170.956c-2.066-3.118-1.798-7.377-0.078-10.699c1.72-3.322,4.68-5.835,7.816-7.875
								c2.756-1.793,5.867-3.329,9.154-3.247c3.91,0.098,7.507,2.559,9.672,5.816c2.165,3.256,3.051,7.215,3.296,11.119
								c-3.17,3.208-7.972,5.357-12.104,7.165c-2.976,1.302-6.186,2.258-9.429,2.076C75.25,175.128,71.961,173.664,70.167,170.956z"
								/>
						</g>
					</g>
				</g>
			</g>
			<g>
				<g>
					<g>
						<g>
							<path fill="#455A64" d="M119.557,115.718c-0.756-4.384-3.527-7.384-6.539-8.264c-3.012-0.881-6.225,0.057-9.245,1.526
								c-2.654,1.292-5.35,3.122-7.149,6.362c-2.14,3.853-2.651,9.214-1.865,13.799c0.786,4.585,2.722,8.472,4.986,11.695
								c3.758-0.609,7.783-3.604,11.221-6.214c2.476-1.88,4.871-4.25,6.584-7.524C119.263,123.824,120.213,119.524,119.557,115.718z
								"/>
						</g>
					</g>
				</g>
			</g>
			<g>
				<g>
					<g>
						<g>
							<g>
								<path fill="#263238" d="M100.992,122.477c0.174,0.027-0.06,2.22-0.314,5.761c-0.254,3.54-0.474,8.437-0.216,13.832
									c0.267,5.396,1,10.239,1.711,13.709c0.706,3.473,1.295,5.597,1.121,5.653c-0.13,0.044-1-2-1.921-5.467
									c-0.927-3.461-1.802-8.366-2.072-13.838c-0.261-5.471,0.093-10.425,0.56-13.971
									C100.327,124.606,100.849,122.453,100.992,122.477z"/>
							</g>
						</g>
					</g>
				</g>
			</g>
			<g>
				<g>
					<g>
						<g>
							<g>
								<path fill="#263238" d="M111.521,180.641c-0.312,0.14-2.269-4.173-6.192-8.384c-1.938-2.11-3.924-3.784-5.467-4.836
									c-1.534-1.076-2.632-1.473-2.582-1.649c0.024-0.136,1.282,0.001,3.007,0.946c1.729,0.917,3.893,2.568,5.899,4.754
									C110.262,175.856,111.815,180.567,111.521,180.641z"/>
							</g>
						</g>
					</g>
				</g>
			</g>
		</g>
		<g>
			<g>
				<g>
					<g>
						<g>
							<g>
								<path fill="#263238" d="M179.831,75.801c0.042,0.015-0.123,0.607-0.476,1.72c-0.407,1.229-0.939,2.838-1.603,4.845
									c-1.441,4.188-3.423,10.286-5.75,17.853c-2.347,7.562-4.906,16.636-7.509,26.772c-2.542,10.152-5.093,21.374-7.355,33.236
									c-2.218,11.875-3.933,23.258-5.266,33.639c-1.271,10.389-2.195,19.773-2.765,27.67c-0.59,7.895-0.967,14.295-1.152,18.72
									c-0.113,2.11-0.204,3.802-0.273,5.095c-0.077,1.165-0.138,1.776-0.183,1.775c-0.044,0-0.07-0.614-0.077-1.781
									c0.008-1.295,0.018-2.992,0.031-5.105c0.03-4.435,0.269-10.849,0.743-18.766c0.455-7.919,1.287-17.332,2.495-27.752
									c1.271-10.413,2.955-21.83,5.178-33.734c2.268-11.892,4.86-23.134,7.472-33.292c2.672-10.143,5.327-19.21,7.791-26.75
									c2.443-7.545,4.559-13.606,6.147-17.747c0.758-1.973,1.367-3.557,1.832-4.766C179.542,76.348,179.79,75.785,179.831,75.801z
									"/>
							</g>
						</g>
					</g>
				</g>
			</g>
			<g>
				<g>
					<g>
						<g>
							<path fill="#455A64" d="M205.867,59.115c-1.937-4.923-7.088-8.067-12.332-8.77c-5.243-0.703-10.557,0.688-15.464,2.667
								c-4.313,1.739-8.615,4.096-11.187,7.971c-3.058,4.609-3.125,10.774-1.108,15.924c2.017,5.15,5.885,9.389,10.208,12.838
								c6.289-1.071,12.673-4.891,18.12-8.212c3.922-2.391,7.634-5.334,10.054-9.239C206.578,68.389,207.549,63.39,205.867,59.115z"
								/>
						</g>
					</g>
				</g>
			</g>
			<g>
				<g>
					<g>
						<g>
							<path fill="#455A64" d="M125.724,139.998c-2.296-3.466-1.998-8.197-0.087-11.889c1.911-3.691,5.201-6.485,8.685-8.751
								c3.063-1.992,6.519-3.699,10.172-3.608c4.345,0.108,8.342,2.844,10.748,6.463c2.406,3.62,3.391,8.019,3.663,12.356
								c-3.523,3.565-8.859,5.953-13.451,7.961c-3.307,1.447-6.874,2.51-10.478,2.307
								C131.373,144.635,127.717,143.007,125.724,139.998z"/>
						</g>
					</g>
				</g>
			</g>
			<g>
				<g>
					<g>
						<g>
							<path fill="#455A64" d="M202.769,135.809c2.77-3.175,3.104-7.968,1.678-11.933c-1.426-3.964-4.357-7.211-7.555-9.954
								c-2.811-2.411-6.055-4.589-9.736-4.985c-4.379-0.472-8.763,1.741-11.664,5.056c-2.901,3.314-4.479,7.602-5.333,11.923
								c3.063,4.053,8.104,7.166,12.448,9.799c3.128,1.896,6.57,3.44,10.218,3.72C196.473,139.711,200.363,138.565,202.769,135.809z
								"/>
						</g>
					</g>
				</g>
			</g>
			<g>
				<g>
					<g>
						<g>
							<path fill="#455A64" d="M148.234,74.802c-5.077-0.701-9.654,1.667-12.075,5.142c-2.419,3.474-2.985,7.889-2.886,12.261
								c0.088,3.843,0.733,7.942,3.331,11.441c3.09,4.161,8.597,6.833,13.904,7.572c5.308,0.74,10.43-0.239,14.999-1.882
								c1.186-4.98-0.061-11.199-1.18-16.53c-0.806-3.84-2.179-7.763-4.855-11.166C156.796,78.236,152.644,75.411,148.234,74.802z"
								/>
						</g>
					</g>
				</g>
			</g>
			<g>
				<g>
					<g>
						<g>
							<g>
								<path fill="#263238" d="M157.77,133.308c0.315-0.111,1.812,3.771,2.081,8.843c0.297,5.073-0.759,9.096-1.084,9.021
									c-0.374-0.062,0.085-4.052-0.205-8.949C158.306,137.326,157.405,133.411,157.77,133.308z"/>
							</g>
						</g>
					</g>
				</g>
			</g>
			<g>
				<g>
					<g>
						<g>
							<g>
								
									<ellipse transform="matrix(0.5716 -0.8205 0.8205 0.5716 -35.3771 192.8803)" fill="#263238" cx="167.024" cy="130.319" rx="10.448" ry="0.646"/>
							</g>
						</g>
					</g>
				</g>
			</g>
			<g>
				<g>
					<g>
						<g>
							<g>
								
									<ellipse transform="matrix(-0.0486 0.9988 -0.9988 -0.0486 286.3586 -46.518)" fill="#263238" cx="165.335" cy="113.127" rx="7.715" ry="0.646"/>
							</g>
						</g>
					</g>
				</g>
			</g>
		</g>
		<g>
			<g>
				<g>
					<g>
						<path fill="#FF725E" d="M175.573,238.502H98.319c-2.212,0-4.006-1.793-4.006-4.005l0,0c0-2.212,1.793-4.006,4.006-4.006
							h77.253c2.212,0,4.006,1.794,4.006,4.006l0,0C179.579,236.709,177.785,238.502,175.573,238.502z"/>
					</g>
				</g>
			</g>
		</g>
		<g>
			<g>
				<g>
					<g>
						<path fill="#FF725E" d="M207.413,320.506c-2.837-31.214-27.43-35.471-32.16-38.781c-1.013-0.709-1.918-1.614-2.714-2.599
							c-2.966-3.664-4.38-8.346-4.38-13.061v-31.569h-29.554H136h-29.554v31.569c0,4.715-1.414,9.396-4.379,13.061
							c-0.796,0.984-1.701,1.89-2.714,2.599c-4.729,3.311-29.322,7.567-32.16,38.781C64.355,351.719,53.95,422.66,72.395,445.36
							c16.991,20.912,33.591,22.159,61.24,22.226v0.003c1.247,0,2.463,0.001,3.668,0.001c1.204,0,2.421-0.001,3.667-0.001v-0.003
							c27.65-0.066,44.25-1.313,61.241-22.226C220.654,422.66,210.25,351.719,207.413,320.506z"/>
					</g>
				</g>
			</g>
		</g>
		<g>
			<g>
				<g>
					<g>
						<g>
							<path fill="#263238" d="M177.616,238.739c0,0.513-18.21,0.928-40.668,0.928c-22.466,0-40.672-0.416-40.672-0.928
								s18.207-0.929,40.672-0.929C159.406,237.811,177.616,238.227,177.616,238.739z"/>
						</g>
					</g>
				</g>
			</g>
		</g>
		<path opacity="0.2" fill="#FFFFFF" d="M114.067,273.726c0,3.21-0.635,6.413-2.053,9.293c-1.524,3.096-4.159,6.422-8.689,8.153
			c-6.345,2.425-27.542,12.881-28.519,28.187c-0.722,11.31-5.623,69.607-1.889,74.847c9.583,13.445,62.159-52.221,66.556-80.559
			c4.397-28.338,2.325-62.928-1.476-66.52c-2.491-2.354-12.001-1.568-18.06-0.783c-2.99,0.387-5.244,2.899-5.321,5.913
			L114.067,273.726z"/>
	</g>
</g>
<g id="Clock" display="none">
	<g display="inline">
		<path opacity="0.3" d="M116.871,467.589c0,0-0.942-0.447-2.289-1.247c-3.485-2.07-9.374-6.489-9.291-11.666
			c0.135-8.443,0.067-80.891,0.025-116.465c-0.013-10.792,8.574-19.547,19.17-19.547h70.196v110.163l-62.948,38.758"/>
		<path fill="#455A64" d="M402.905,468.488H133.981c-12.503,0-22.639-10.136-22.639-22.638V343.465
			c0-11.637,9.434-21.071,21.071-21.071h272.059c11.638,0,21.071,9.435,21.071,21.071V445.85
			C425.543,458.352,415.408,468.488,402.905,468.488z"/>
		<path fill="#263238" d="M403.486,466.267H133.4c-10.614,0-19.219-8.604-19.219-19.219V342.267c0-9.749,7.903-17.652,17.652-17.652
			h273.22c9.749,0,17.652,7.903,17.652,17.652v104.781C422.706,457.663,414.1,466.267,403.486,466.267z"/>
		<g opacity="0.1">
			<polygon fill="#FFFFFF" points="190.924,428.218 193.685,424.61 193.654,402.469 190.147,398.402 186.619,402.561 
				186.619,422.654 			"/>
			<polygon fill="#FFFFFF" points="191.008,364.389 193.675,368.674 193.675,389.964 189.968,393.911 186.619,389.964 
				186.619,369.871 			"/>
			<polygon fill="#FFFFFF" points="158.679,364.389 155.918,367.998 155.948,390.138 159.456,394.206 162.984,390.046 
				162.984,369.954 			"/>
			<polygon fill="#FFFFFF" points="158.595,428.218 155.927,423.933 155.927,402.643 159.635,398.697 162.984,402.643 
				162.984,422.737 			"/>
			<polygon fill="#FFFFFF" points="161.285,396.402 164.395,392.575 185.206,392.575 188.206,396.341 185.206,400.109 
				164.275,400.109 			"/>
			<polygon fill="#FFFFFF" points="160.113,429.736 164.626,423.932 185.063,423.932 189.444,429.76 187.983,431.829 
				161.773,431.829 			"/>
			<polygon fill="#FFFFFF" points="189.444,363.314 184.931,369.118 164.494,369.118 160.113,363.29 161.574,361.221 
				187.784,361.221 			"/>
			<polygon fill="#FFFFFF" points="235.301,428.218 238.062,424.61 238.031,402.469 234.524,398.402 230.996,402.561 
				230.996,422.654 			"/>
			<polygon fill="#FFFFFF" points="235.385,364.389 238.052,368.674 238.052,389.964 234.345,393.911 230.996,389.964 
				230.996,369.871 			"/>
			<polygon fill="#FFFFFF" points="203.056,364.389 200.295,367.998 200.326,390.138 203.832,394.206 207.36,390.046 
				207.36,369.954 			"/>
			<polygon fill="#FFFFFF" points="202.972,428.218 200.304,423.933 200.304,402.643 204.012,398.697 207.36,402.643 
				207.36,422.737 			"/>
			<polygon fill="#FFFFFF" points="205.662,396.402 208.771,392.575 229.583,392.575 232.583,396.341 229.583,400.109 
				208.652,400.109 			"/>
			<polygon fill="#FFFFFF" points="204.49,429.736 209.003,423.932 229.44,423.932 233.821,429.76 232.36,431.829 206.15,431.829 
							"/>
			<polygon fill="#FFFFFF" points="233.821,363.314 229.308,369.118 208.871,369.118 204.49,363.29 205.951,361.221 
				232.161,361.221 			"/>
			<polygon fill="#FFFFFF" points="290.488,428.218 293.249,424.61 293.217,402.469 289.71,398.402 286.182,402.561 
				286.182,422.654 			"/>
			<polygon fill="#FFFFFF" points="290.572,364.389 293.239,368.674 293.239,389.964 289.532,393.911 286.182,389.964 
				286.182,369.871 			"/>
			<polygon fill="#FFFFFF" points="258.243,364.389 255.482,367.998 255.512,390.138 259.019,394.206 262.547,390.046 
				262.547,369.954 			"/>
			<polygon fill="#FFFFFF" points="258.159,428.218 255.491,423.933 255.491,402.643 259.199,398.697 262.547,402.643 
				262.547,422.737 			"/>
			<polygon fill="#FFFFFF" points="260.848,396.402 263.958,392.575 284.769,392.575 287.77,396.341 284.769,400.109 
				263.838,400.109 			"/>
			<polygon fill="#FFFFFF" points="259.677,429.736 264.19,423.932 284.627,423.932 289.007,429.76 287.547,431.829 
				261.336,431.829 			"/>
			<polygon fill="#FFFFFF" points="289.007,363.314 284.495,369.118 264.057,369.118 259.677,363.29 261.137,361.221 
				287.348,361.221 			"/>
			<polygon fill="#FFFFFF" points="334.864,428.218 337.625,424.61 337.594,402.469 334.087,398.402 330.559,402.561 
				330.559,422.654 			"/>
			<polygon fill="#FFFFFF" points="334.949,364.389 337.616,368.674 337.616,389.964 333.909,393.911 330.559,389.964 
				330.559,369.871 			"/>
			<polygon fill="#FFFFFF" points="302.62,364.389 299.859,367.998 299.889,390.138 303.396,394.206 306.924,390.046 
				306.924,369.954 			"/>
			<polygon fill="#FFFFFF" points="302.536,428.218 299.868,423.933 299.868,402.643 303.576,398.697 306.924,402.643 
				306.924,422.737 			"/>
			<polygon fill="#FFFFFF" points="305.225,396.402 308.335,392.575 329.146,392.575 332.147,396.341 329.146,400.109 
				308.215,400.109 			"/>
			<polygon fill="#FFFFFF" points="304.054,429.736 308.567,423.932 329.004,423.932 333.384,429.76 331.924,431.829 
				305.713,431.829 			"/>
			<polygon fill="#FFFFFF" points="333.384,363.314 328.872,369.118 308.434,369.118 304.054,363.29 305.514,361.221 
				331.725,361.221 			"/>
			<g>
				<circle fill="#FFFFFF" cx="247.393" cy="387.392" r="3.24"/>
				<circle fill="#FFFFFF" cx="247.393" cy="405.063" r="3.24"/>
			</g>
		</g>
		<g>
			<polygon fill="#FF725E" points="190.924,428.218 193.685,424.61 193.654,402.469 190.147,398.402 186.619,402.561 
				186.619,422.654 			"/>
			<polygon fill="#FF725E" points="191.008,364.389 193.675,368.674 193.675,389.964 189.968,393.911 186.619,389.964 
				186.619,369.871 			"/>
			<polygon fill="#FF725E" points="235.301,428.218 238.062,424.61 238.031,402.469 234.524,398.402 230.996,402.561 
				230.996,422.654 			"/>
			<polygon fill="#FF725E" points="235.385,364.389 238.052,368.674 238.052,389.964 234.345,393.911 230.996,389.964 
				230.996,369.871 			"/>
			<polygon fill="#FF725E" points="203.056,364.389 200.295,367.998 200.326,390.138 203.832,394.206 207.36,390.046 
				207.36,369.954 			"/>
			<polygon fill="#FF725E" points="202.972,428.218 200.304,423.933 200.304,402.643 204.012,398.697 207.36,402.643 
				207.36,422.737 			"/>
			<polygon fill="#FF725E" points="204.49,429.736 209.003,423.932 229.44,423.932 233.821,429.76 232.36,431.829 206.15,431.829 
							"/>
			<polygon fill="#FF725E" points="233.821,363.314 229.308,369.118 208.871,369.118 204.49,363.29 205.951,361.221 
				232.161,361.221 			"/>
			<polygon fill="#FF725E" points="290.488,428.218 293.249,424.61 293.217,402.469 289.71,398.402 286.182,402.561 
				286.182,422.654 			"/>
			<polygon fill="#FF725E" points="290.572,364.389 293.239,368.674 293.239,389.964 289.532,393.911 286.182,389.964 
				286.182,369.871 			"/>
			<polygon fill="#FF725E" points="260.848,396.402 263.958,392.575 284.769,392.575 287.77,396.341 284.769,400.109 
				263.838,400.109 			"/>
			<polygon fill="#FF725E" points="259.677,429.736 264.19,423.932 284.627,423.932 289.007,429.76 287.547,431.829 
				261.336,431.829 			"/>
			<polygon fill="#FF725E" points="289.007,363.314 284.495,369.118 264.057,369.118 259.677,363.29 261.137,361.221 
				287.348,361.221 			"/>
			<polygon fill="#FF725E" points="334.864,428.218 337.625,424.61 337.594,402.469 334.087,398.402 330.559,402.561 
				330.559,422.654 			"/>
			<polygon fill="#FF725E" points="302.62,364.389 299.859,367.998 299.889,390.138 303.396,394.206 306.924,390.046 
				306.924,369.954 			"/>
			<polygon fill="#FF725E" points="305.225,396.402 308.335,392.575 329.146,392.575 332.147,396.341 329.146,400.109 
				308.215,400.109 			"/>
			<polygon fill="#FF725E" points="304.054,429.736 308.567,423.932 329.004,423.932 333.384,429.76 331.924,431.829 
				305.713,431.829 			"/>
			<polygon fill="#FF725E" points="333.384,363.314 328.872,369.118 308.434,369.118 304.054,363.29 305.514,361.221 
				331.725,361.221 			"/>
			<g>
				<circle fill="#FF725E" cx="247.393" cy="387.392" r="3.24"/>
				<circle fill="#FF725E" cx="247.393" cy="405.063" r="3.24"/>
			</g>
		</g>
		<path opacity="0.3" fill="#FFFFFF" d="M119.487,443.052c0,0,159.42-31.884,169.877-49.142s15.867-64.538,14.688-64.538H135.196
			c-8.676,0-15.709,6.954-15.709,15.531V443.052z"/>
		<g>
			<g opacity="0.1">
				<polygon fill="#FFFFFF" points="373.603,406.765 374.328,405.82 374.319,400.015 373.4,398.949 372.475,400.04 372.475,405.307 
									"/>
				<polygon fill="#FFFFFF" points="373.625,390.032 374.325,391.156 374.325,396.737 373.353,397.772 372.475,396.737 
					372.475,391.469 				"/>
				<polygon fill="#FFFFFF" points="365.15,390.032 364.426,390.978 364.434,396.783 365.354,397.848 366.279,396.758 
					366.279,391.491 				"/>
				<polygon fill="#FFFFFF" points="365.128,406.765 364.429,405.642 364.429,400.061 365.401,399.026 366.279,400.061 
					366.279,405.329 				"/>
				<polygon fill="#FFFFFF" points="365.833,398.424 366.649,397.421 372.104,397.421 372.891,398.409 372.104,399.397 
					366.618,399.397 				"/>
				<polygon fill="#FFFFFF" points="365.526,407.164 366.709,405.642 372.067,405.642 373.215,407.169 372.833,407.711 
					365.961,407.711 				"/>
				<polygon fill="#FFFFFF" points="373.215,389.75 372.033,391.272 366.674,391.272 365.526,389.744 365.91,389.202 
					372.781,389.202 				"/>
				<polygon fill="#FFFFFF" points="385.237,406.765 385.961,405.82 385.953,400.015 385.034,398.949 384.109,400.04 
					384.109,405.307 				"/>
				<polygon fill="#FFFFFF" points="385.259,390.032 385.958,391.156 385.958,396.737 384.987,397.772 384.109,396.737 
					384.109,391.469 				"/>
				<polygon fill="#FFFFFF" points="376.784,390.032 376.06,390.978 376.068,396.783 376.988,397.848 377.913,396.758 
					377.913,391.491 				"/>
				<polygon fill="#FFFFFF" points="376.762,406.765 376.063,405.642 376.063,400.061 377.035,399.026 377.913,400.061 
					377.913,405.329 				"/>
				<polygon fill="#FFFFFF" points="377.467,398.424 378.283,397.421 383.738,397.421 384.525,398.409 383.738,399.397 
					378.251,399.397 				"/>
				<polygon fill="#FFFFFF" points="377.16,407.164 378.343,405.642 383.701,405.642 384.849,407.169 384.466,407.711 
					377.595,407.711 				"/>
				<polygon fill="#FFFFFF" points="384.849,389.75 383.667,391.272 378.308,391.272 377.16,389.744 377.542,389.202 
					384.415,389.202 				"/>
			</g>
			<g>
				<polygon fill="#FF725E" points="373.628,390.032 374.328,391.156 374.328,396.737 373.355,397.772 372.477,396.737 
					372.477,391.469 				"/>
				<polygon fill="#FF725E" points="365.153,390.032 364.429,390.978 364.437,396.783 365.356,397.848 366.282,396.758 
					366.282,391.491 				"/>
				<polygon fill="#FF725E" points="365.13,406.765 364.431,405.642 364.431,400.061 365.403,399.026 366.282,400.061 
					366.282,405.329 				"/>
				<polygon fill="#FF725E" points="365.835,398.424 366.651,397.421 372.107,397.421 372.893,398.409 372.107,399.397 
					366.62,399.397 				"/>
				<polygon fill="#FF725E" points="373.218,389.75 372.035,391.272 366.677,391.272 365.529,389.744 365.912,389.202 
					372.783,389.202 				"/>
				<polygon fill="#FF725E" points="385.24,406.765 385.963,405.82 385.956,400.015 385.036,398.949 384.111,400.04 
					384.111,405.307 				"/>
				<polygon fill="#FF725E" points="385.261,390.032 385.961,391.156 385.961,396.737 384.989,397.772 384.111,396.737 
					384.111,391.469 				"/>
				<polygon fill="#FF725E" points="380.173,391.643 380.173,396.213 381.05,397.249 382.023,396.213 382.023,391.633 				"/>
				<polygon fill="#FF725E" points="376.787,390.032 376.063,390.978 376.071,396.783 376.99,397.848 377.915,396.758 
					377.915,391.491 				"/>
				<polygon fill="#FF725E" points="376.764,406.765 376.065,405.642 376.065,400.061 377.037,399.026 377.915,400.061 
					377.915,405.329 				"/>
				<polygon fill="#FF725E" points="384.852,389.75 383.668,391.272 378.311,391.272 377.163,389.744 377.545,389.202 
					384.417,389.202 				"/>
			</g>
		</g>
		<rect x="159.451" y="316.323" fill="#455A64" width="21.73" height="6.071"/>
		<rect x="187.426" y="316.323" fill="#455A64" width="21.729" height="6.071"/>
		<rect x="246.713" y="316.323" fill="#455A64" width="21.73" height="6.071"/>
		<rect x="277.116" y="316.323" fill="#455A64" width="21.729" height="6.071"/>
		<rect x="306.222" y="316.323" fill="#455A64" width="21.729" height="6.071"/>
		<g>
			<path fill="#263238" d="M401.915,322.394c0,0.144-60.165,0.261-134.365,0.261c-74.225,0-134.377-0.117-134.377-0.261
				s60.152-0.261,134.377-0.261C341.75,322.133,401.915,322.25,401.915,322.394z"/>
		</g>
	</g>
</g>
<g id="Speech_Bubble">
	<g>
		<g>
			<g>
				<g>
					<g>
						<g>
							<g>
								<g>
									<g>
										<g>
											<g>
												<g>
													<g>
														<g>
															<g>
																<g>
																	<g>
																		<g>
																			<path fill="#FFFFFF" d="M354.372,291.517l-2.392-12.097c-6.328-3.732-11.735-9.205-15.417-16.179
																				c-10.587-20.056-2.912-44.896,17.144-55.483c20.056-10.587,44.896-2.912,55.483,17.145
																				c10.587,20.055,2.912,44.896-17.145,55.483c-8.374,4.421-17.58,5.646-26.237,4.127l0.021,0.009L354.372,291.517z
																				"/>
																			<g>
																				<path fill="#263238" d="M354.372,291.517c0,0,0.241-0.133,0.729-0.423c0.509-0.303,1.235-0.735,2.188-1.304
																					c1.966-1.18,4.851-2.912,8.603-5.165l0.195-0.117l-0.208-0.097l-0.021-0.009l-0.072,0.229
																					c5.208,0.928,12.339,1.156,20.158-1.436c1.946-0.639,3.918-1.463,5.879-2.475
																					c1.905-1.105,3.934-2.179,5.777-3.654c3.773-2.806,7.313-6.452,10.13-10.894
																					c2.819-4.43,4.91-9.645,5.857-15.298c0.953-5.645,0.75-11.725-0.849-17.653
																					c-1.565-5.934-4.622-11.663-8.914-16.504c-4.294-4.816-9.785-8.867-16.12-11.199
																					c-6.391-2.43-13.257-3.327-19.777-2.458c-6.523,0.797-12.669,3.138-17.87,6.551
																					c-5.196,3.438-9.388,7.972-12.396,12.923c-3.019,4.958-4.853,10.336-5.61,15.585
																					c-0.767,5.256-0.457,10.375,0.592,14.995c0.468,2.332,1.286,4.486,2.047,6.567
																					c0.948,2.004,1.785,3.979,2.889,5.718c4.285,7.061,9.842,11.5,14.342,14.12l-0.056-0.078
																					c0.809,3.927,1.433,6.956,1.857,9.022c0.209,0.998,0.369,1.76,0.48,2.295
																					C354.311,291.271,354.372,291.517,354.372,291.517s-0.044-0.284-0.141-0.813
																					c-0.102-0.544-0.246-1.32-0.436-2.336c-0.39-2.056-0.961-5.066-1.701-8.971l-0.01-0.051l-0.045-0.027
																					c-4.451-2.647-9.935-7.091-14.146-14.109c-1.086-1.728-1.904-3.689-2.837-5.678
																					c-0.743-2.065-1.546-4.201-2-6.511c-1.021-4.576-1.311-9.638-0.538-14.833
																					c0.764-5.187,2.589-10.498,5.579-15.388c2.981-4.883,7.126-9.352,12.259-12.739
																					c5.139-3.363,11.204-5.666,17.64-6.448c6.432-0.854,13.204,0.034,19.508,2.431
																					c12.507,4.71,21.655,15.618,24.715,27.32c1.585,5.849,1.795,11.85,0.864,17.426
																					c-0.924,5.585-2.978,10.743-5.752,15.129c-2.772,4.398-6.261,8.015-9.986,10.805
																					c-1.818,1.467-3.823,2.536-5.705,3.641c-1.938,1.01-3.887,1.835-5.813,2.478
																					c-7.734,2.605-14.812,2.426-19.997,1.55l-0.931-0.157l0.859,0.388l0.021,0.009l-0.014-0.213
																					c-3.686,2.288-6.521,4.048-8.452,5.247c-0.953,0.596-1.681,1.051-2.189,1.368
																					C354.63,291.344,354.372,291.517,354.372,291.517z"/>
																			</g>
																		</g>
																	</g>
																</g>
															</g>
														</g>
													</g>
												</g>
											</g>
										</g>
									</g>
								</g>
							</g>
						</g>
					</g>
				</g>
			</g>
		</g>
		<g>
			<g>
				<g>
					<g>
						<path fill="#FF725E" d="M386.024,241.062c-1.35-11.657-6.111-16.865-12.664-17.557h-1.106
							c-6.553,0.691-11.314,5.899-12.664,17.557c-1.425,12.306-7.123,13.126-7.123,13.126h19.787h1.106h19.787
							C393.147,254.188,387.449,253.368,386.024,241.062z"/>
					</g>
				</g>
			</g>
			<g>
				<g>
					<g>
						<path fill="#FF725E" d="M391.449,256.982h-37.284c-1.013,0-1.833-0.977-1.833-2.181l0,0c0-1.205,0.82-2.181,1.833-2.181
							h37.284c1.012,0,1.832,0.976,1.832,2.181l0,0C393.281,256.005,392.46,256.982,391.449,256.982z"/>
					</g>
				</g>
			</g>
			<g>
				<g>
					<g>
						<path fill="#FF725E" d="M372.806,261.404L372.806,261.404c-2.514,0-4.551-2.037-4.551-4.551l0,0
							c0-2.514,2.037-4.552,4.551-4.552l0,0c2.514,0,4.552,2.038,4.552,4.552l0,0C377.358,259.367,375.32,261.404,372.806,261.404z"
							/>
					</g>
				</g>
			</g>
			<g>
				<g>
					<g>
						<g>
							<ellipse fill="#263238" cx="372.898" cy="252.43" rx="18.303" ry="0.431"/>
						</g>
					</g>
				</g>
			</g>
			<g>
				<g>
					<g>
						<g>
							<ellipse fill="#263238" cx="372.898" cy="256.913" rx="18.303" ry="0.431"/>
						</g>
					</g>
				</g>
			</g>
		</g>
	</g>
</g>
</svg>
