<?xml version="1.0" encoding="utf-8"?>
<!-- Generator: Adobe Illustrator 16.0.3, SVG Export Plug-In . SVG Version: 6.00 Build 0)  -->
<!DOCTYPE svg PUBLIC "-//W3C//DTD SVG 1.1//EN" "http://www.w3.org/Graphics/SVG/1.1/DTD/svg11.dtd">
<svg version="1.1" id="Capa_1" xmlns="http://www.w3.org/2000/svg" xmlns:xlink="http://www.w3.org/1999/xlink" x="0px" y="0px"
	 width="600px" height="400px" viewBox="0 0 600 400" enable-background="new 0 0 600 400" xml:space="preserve">
<g>
	<path opacity="0.3" d="M22.907,347.717c0,0-1.761-0.84-4.282-2.337c-6.519-3.875-17.536-12.146-17.38-21.835
		c0.253-15.806,0.126-151.411,0.046-218c-0.023-20.2,16.039-36.587,35.86-36.587h131.313v206.204L50.71,347.709"/>
	<path fill="#455A64" d="M557.977,349.397H54.914c-23.389,0-42.349-18.972-42.349-42.373V115.379
		c0-21.781,17.648-39.44,39.417-39.44h508.925c21.771,0,39.417,17.659,39.417,39.44v191.646
		C600.324,330.426,581.364,349.397,557.977,349.397z"/>
	<path fill="#263238" d="M559.062,345.239H53.827c-19.856,0-35.953-16.104-35.953-35.972V113.137
		c0-18.249,14.785-33.042,33.021-33.042h511.098c18.236,0,33.021,14.794,33.021,33.042v196.131
		C595.016,329.135,578.918,345.239,559.062,345.239z"/>
	<g display="none" opacity="0.1">
		<polygon display="inline" fill="#FFFFFF" points="161.434,274.021 166.599,267.267 166.541,225.824 159.981,218.21 
			153.381,225.995 153.381,263.604 		"/>
		<polygon display="inline" fill="#FFFFFF" points="161.591,154.544 166.581,162.565 166.581,202.417 159.646,209.804 
			153.381,202.417 153.381,164.805 		"/>
		<polygon display="inline" fill="#FFFFFF" points="101.115,154.544 95.95,161.299 96.007,202.741 102.568,210.356 109.168,202.569 
			109.168,164.96 		"/>
		<polygon display="inline" fill="#FFFFFF" points="100.958,274.021 95.967,265.998 95.967,226.149 102.903,218.762 
			109.168,226.149 109.168,263.759 		"/>
		<polygon display="inline" fill="#FFFFFF" points="105.989,214.467 111.807,207.303 150.737,207.303 156.35,214.354 
			150.737,221.405 111.583,221.405 		"/>
		<polygon display="inline" fill="#FFFFFF" points="103.798,276.86 112.241,265.996 150.472,265.996 158.665,276.907 
			155.933,280.777 106.903,280.777 		"/>
		<polygon display="inline" fill="#FFFFFF" points="158.665,152.532 150.223,163.395 111.993,163.395 103.798,152.487 
			106.53,148.615 155.561,148.615 		"/>
		<polygon display="inline" fill="#FFFFFF" points="244.447,274.021 249.612,267.267 249.555,225.824 242.994,218.21 
			236.394,225.995 236.394,263.604 		"/>
		<polygon display="inline" fill="#FFFFFF" points="244.605,154.544 249.595,162.565 249.595,202.417 242.659,209.804 
			236.394,202.417 236.394,164.805 		"/>
		<polygon display="inline" fill="#FFFFFF" points="184.128,154.544 178.964,161.299 179.022,202.741 185.581,210.356 
			192.181,202.569 192.181,164.96 		"/>
		<polygon display="inline" fill="#FFFFFF" points="183.971,274.021 178.981,265.998 178.981,226.149 185.917,218.762 
			192.181,226.149 192.181,263.759 		"/>
		<polygon display="inline" fill="#FFFFFF" points="189.004,214.467 194.821,207.303 233.751,207.303 239.363,214.354 
			233.751,221.405 194.597,221.405 		"/>
		<polygon display="inline" fill="#FFFFFF" points="186.812,276.86 195.254,265.996 233.484,265.996 241.679,276.907 
			238.947,280.777 189.917,280.777 		"/>
		<polygon display="inline" fill="#FFFFFF" points="241.679,152.532 233.236,163.395 195.006,163.395 186.812,152.487 
			189.545,148.615 238.575,148.615 		"/>
		<polygon display="inline" fill="#FFFFFF" points="347.683,274.021 352.847,267.267 352.789,225.824 346.229,218.21 
			339.629,225.995 339.629,263.604 		"/>
		<polygon display="inline" fill="#FFFFFF" points="347.841,154.544 352.829,162.565 352.829,202.417 345.894,209.804 
			339.629,202.417 339.629,164.805 		"/>
		<polygon display="inline" fill="#FFFFFF" points="287.363,154.544 282.199,161.299 282.256,202.741 288.816,210.356 
			295.417,202.569 295.417,164.96 		"/>
		<polygon display="inline" fill="#FFFFFF" points="287.207,274.021 282.216,265.998 282.216,226.149 289.152,218.762 
			295.417,226.149 295.417,263.759 		"/>
		<polygon display="inline" fill="#FFFFFF" points="292.237,214.467 298.056,207.303 336.984,207.303 342.6,214.354 
			336.984,221.405 297.831,221.405 		"/>
		<polygon display="inline" fill="#FFFFFF" points="290.047,276.86 298.489,265.996 336.72,265.996 344.914,276.907 
			342.183,280.777 293.151,280.777 		"/>
		<polygon display="inline" fill="#FFFFFF" points="344.914,152.532 336.472,163.395 298.24,163.395 290.047,152.487 
			292.778,148.615 341.809,148.615 		"/>
		<polygon display="inline" fill="#FFFFFF" points="430.694,274.021 435.86,267.267 435.802,225.824 429.242,218.21 
			422.642,225.995 422.642,263.604 		"/>
		<polygon display="inline" fill="#FFFFFF" points="430.854,154.544 435.843,162.565 435.843,202.417 428.908,209.804 
			422.642,202.417 422.642,164.805 		"/>
		<polygon display="inline" fill="#FFFFFF" points="370.378,154.544 365.213,161.299 365.27,202.741 371.83,210.356 
			378.431,202.569 378.431,164.96 		"/>
		<polygon display="inline" fill="#FFFFFF" points="370.221,274.021 365.229,265.998 365.229,226.149 372.166,218.762 
			378.431,226.149 378.431,263.759 		"/>
		<polygon display="inline" fill="#FFFFFF" points="375.252,214.467 381.069,207.303 419.998,207.303 425.612,214.354 
			419.998,221.405 380.846,221.405 		"/>
		<polygon display="inline" fill="#FFFFFF" points="373.061,276.86 381.502,265.996 419.734,265.996 427.927,276.907 
			425.196,280.777 376.165,280.777 		"/>
		<polygon display="inline" fill="#FFFFFF" points="427.927,152.532 419.486,163.395 381.254,163.395 373.061,152.487 
			375.791,148.615 424.824,148.615 		"/>
		<g display="inline">
			<path fill="#FFFFFF" d="M273.128,197.602c0,3.349-2.713,6.062-6.06,6.062c-3.347,0-6.06-2.713-6.06-6.062
				c0-3.351,2.713-6.065,6.06-6.065C270.415,191.537,273.128,194.251,273.128,197.602z"/>
			<path fill="#FFFFFF" d="M273.128,230.68c0,3.347-2.713,6.063-6.06,6.063c-3.347,0-6.06-2.716-6.06-6.063
				c0-3.352,2.713-6.064,6.06-6.064C270.415,224.615,273.128,227.328,273.128,230.68z"/>
		</g>
	</g>
	<g display="none">
		<polygon display="inline" fill="#FF725E" points="161.434,274.021 166.599,267.267 166.541,225.824 159.981,218.21 
			153.381,225.995 153.381,263.604 		"/>
		<polygon display="inline" fill="#FF725E" points="161.591,154.544 166.581,162.565 166.581,202.417 159.646,209.804 
			153.381,202.417 153.381,164.805 		"/>
		<polygon display="inline" fill="#FF725E" points="244.447,274.021 249.612,267.267 249.555,225.824 242.994,218.21 
			236.394,225.995 236.394,263.604 		"/>
		<polygon display="inline" fill="#FF725E" points="244.605,154.544 249.595,162.565 249.595,202.417 242.659,209.804 
			236.394,202.417 236.394,164.805 		"/>
		<polygon display="inline" fill="#FF725E" points="184.128,154.544 178.964,161.299 179.022,202.741 185.581,210.356 
			192.181,202.569 192.181,164.96 		"/>
		<polygon display="inline" fill="#FF725E" points="183.971,274.021 178.981,265.998 178.981,226.149 185.917,218.762 
			192.181,226.149 192.181,263.759 		"/>
		<polygon display="inline" fill="#FF725E" points="186.812,276.86 195.254,265.996 233.484,265.996 241.679,276.907 
			238.947,280.777 189.917,280.777 		"/>
		<polygon display="inline" fill="#FF725E" points="241.679,152.532 233.236,163.395 195.006,163.395 186.812,152.487 
			189.545,148.615 238.575,148.615 		"/>
		<polygon display="inline" fill="#FF725E" points="347.683,274.021 352.847,267.267 352.789,225.824 346.229,218.21 
			339.629,225.995 339.629,263.604 		"/>
		<polygon display="inline" fill="#FF725E" points="347.841,154.544 352.829,162.565 352.829,202.417 345.894,209.804 
			339.629,202.417 339.629,164.805 		"/>
		<polygon display="inline" fill="#FF725E" points="292.237,214.467 298.056,207.303 336.984,207.303 342.6,214.354 
			336.984,221.405 297.831,221.405 		"/>
		<polygon display="inline" fill="#FF725E" points="290.047,276.86 298.489,265.996 336.72,265.996 344.914,276.907 
			342.183,280.777 293.151,280.777 		"/>
		<polygon display="inline" fill="#FF725E" points="344.914,152.532 336.472,163.395 298.24,163.395 290.047,152.487 
			292.778,148.615 341.809,148.615 		"/>
		<polygon display="inline" fill="#FF725E" points="430.694,274.021 435.86,267.267 435.802,225.824 429.242,218.21 
			422.642,225.995 422.642,263.604 		"/>
		<polygon display="inline" fill="#FF725E" points="370.378,154.544 365.213,161.299 365.27,202.741 371.83,210.356 
			378.431,202.569 378.431,164.96 		"/>
		<polygon display="inline" fill="#FF725E" points="375.252,214.467 381.069,207.303 419.998,207.303 425.612,214.354 
			419.998,221.405 380.846,221.405 		"/>
		<polygon display="inline" fill="#FF725E" points="373.061,276.86 381.502,265.996 419.734,265.996 427.927,276.907 
			425.196,280.777 376.165,280.777 		"/>
		<polygon display="inline" fill="#FF725E" points="427.927,152.532 419.486,163.395 381.254,163.395 373.061,152.487 
			375.791,148.615 424.824,148.615 		"/>
		<g display="inline">
			<path fill="#FF725E" d="M273.128,197.602c0,3.349-2.713,6.062-6.06,6.062c-3.347,0-6.06-2.713-6.06-6.062
				c0-3.351,2.713-6.065,6.06-6.065C270.415,191.537,273.128,194.251,273.128,197.602z"/>
			<path fill="#FF725E" d="M273.128,230.68c0,3.347-2.713,6.063-6.06,6.063c-3.347,0-6.06-2.716-6.06-6.063
				c0-3.352,2.713-6.064,6.06-6.064C270.415,224.615,273.128,227.328,273.128,230.68z"/>
		</g>
	</g>
	<path opacity="0.3" fill="#FFFFFF" d="M22.762,297.931c0,0,298.219-59.68,317.78-91.982
		c19.561-32.305,29.683-120.805,27.477-120.805H52.148c-16.229,0-29.386,13.018-29.386,29.072V297.931z"/>
	<g display="none">
		<g display="inline" opacity="0.1">
			<polygon fill="#FFFFFF" points="503.162,233.864 504.518,232.095 504.5,221.229 502.782,219.234 501.052,221.276 
				501.052,231.137 			"/>
			<polygon fill="#FFFFFF" points="503.204,202.544 504.512,204.646 504.512,215.094 502.694,217.032 501.052,215.094 
				501.052,205.234 			"/>
			<polygon fill="#FFFFFF" points="487.35,202.544 485.996,204.313 486.01,215.18 487.73,217.173 489.461,215.133 489.461,205.273 
							"/>
			<polygon fill="#FFFFFF" points="487.309,233.864 486.002,231.764 486.002,221.315 487.818,219.377 489.461,221.315 
				489.461,231.176 			"/>
			<polygon fill="#FFFFFF" points="488.628,218.253 490.153,216.375 500.358,216.375 501.83,218.224 500.358,220.073 
				490.096,220.073 			"/>
			<polygon fill="#FFFFFF" points="488.053,234.61 490.267,231.764 500.289,231.764 502.438,234.622 501.721,235.635 
				488.866,235.635 			"/>
			<polygon fill="#FFFFFF" points="502.438,202.017 500.226,204.863 490.201,204.863 488.053,202.003 488.771,200.989 
				501.625,200.989 			"/>
			<polygon fill="#FFFFFF" points="524.925,233.864 526.28,232.095 526.264,221.229 524.545,219.234 522.814,221.276 
				522.814,231.137 			"/>
			<polygon fill="#FFFFFF" points="524.967,202.544 526.274,204.646 526.274,215.094 524.458,217.032 522.814,215.094 
				522.814,205.234 			"/>
			<polygon fill="#FFFFFF" points="509.112,202.544 507.758,204.313 507.772,215.18 509.494,217.173 511.224,215.133 
				511.224,205.273 			"/>
			<polygon fill="#FFFFFF" points="509.072,233.864 507.765,231.764 507.765,221.315 509.581,219.377 511.224,221.315 
				511.224,231.176 			"/>
			<polygon fill="#FFFFFF" points="510.391,218.253 511.916,216.375 522.121,216.375 523.593,218.224 522.121,220.073 
				511.858,220.073 			"/>
			<polygon fill="#FFFFFF" points="509.815,234.61 512.028,231.764 522.051,231.764 524.2,234.622 523.483,235.635 510.63,235.635 
							"/>
			<polygon fill="#FFFFFF" points="524.2,202.017 521.986,204.863 511.964,204.863 509.815,202.003 510.531,200.989 
				523.387,200.989 			"/>
		</g>
		<g display="inline">
			<polygon fill="#FF725E" points="503.21,202.544 504.518,204.646 504.518,215.094 502.697,217.032 501.056,215.094 
				501.056,205.234 			"/>
			<polygon fill="#FF725E" points="487.354,202.544 486.002,204.313 486.016,215.18 487.734,217.173 489.467,215.133 
				489.467,205.273 			"/>
			<polygon fill="#FF725E" points="487.313,233.864 486.005,231.764 486.005,221.315 487.823,219.377 489.467,221.315 
				489.467,231.176 			"/>
			<polygon fill="#FF725E" points="488.632,218.253 490.157,216.375 500.363,216.375 501.834,218.224 500.363,220.073 
				490.099,220.073 			"/>
			<polygon fill="#FF725E" points="502.442,202.017 500.229,204.863 490.207,204.863 488.059,202.003 488.773,200.989 
				501.628,200.989 			"/>
			<polygon fill="#FF725E" points="524.931,233.864 526.284,232.095 526.27,221.229 524.548,219.234 522.817,221.276 
				522.817,231.137 			"/>
			<polygon fill="#FF725E" points="524.971,202.544 526.28,204.646 526.28,215.094 524.461,217.032 522.817,215.094 
				522.817,205.234 			"/>
			<polygon fill="#FF725E" points="515.453,205.56 515.453,214.114 517.094,216.051 518.913,214.114 518.913,205.542 			"/>
			<polygon fill="#FF725E" points="509.117,202.544 507.765,204.313 507.778,215.18 509.498,217.173 511.227,215.133 
				511.227,205.273 			"/>
			<polygon fill="#FF725E" points="509.076,233.864 507.768,231.764 507.768,221.315 509.586,219.377 511.227,221.315 
				511.227,231.176 			"/>
			<polygon fill="#FF725E" points="524.205,202.017 521.991,204.863 511.97,204.863 509.821,202.003 510.536,200.989 
				523.391,200.989 			"/>
		</g>
	</g>
	<rect x="102.559" y="64.574" fill="#455A64" width="40.649" height="11.365"/>
	<rect x="154.891" y="64.574" fill="#455A64" width="40.648" height="11.365"/>
	<rect x="265.795" y="64.574" fill="#455A64" width="40.65" height="11.365"/>
	<rect x="322.668" y="64.574" fill="#455A64" width="40.648" height="11.365"/>
	<rect x="377.116" y="64.574" fill="#455A64" width="40.648" height="11.365"/>
	<g>
		<path fill="#263238" d="M556.123,75.939c0,0.268-112.548,0.487-251.351,0.487c-138.848,0-251.372-0.219-251.372-0.487
			c0-0.27,112.524-0.489,251.372-0.489C443.575,75.45,556.123,75.669,556.123,75.939z"/>
	</g>
</g>
</svg>
