<?xml version="1.0" encoding="utf-8"?>
<!-- Generator: Adobe Illustrator 16.0.3, SVG Export Plug-In . SVG Version: 6.00 Build 0)  -->
<!DOCTYPE svg PUBLIC "-//W3C//DTD SVG 1.1//EN" "http://www.w3.org/Graphics/SVG/1.1/DTD/svg11.dtd">
<svg version="1.1" xmlns="http://www.w3.org/2000/svg" xmlns:xlink="http://www.w3.org/1999/xlink" x="0px" y="0px" width="1280px"
	 height="720px" viewBox="0 0 1280 720" enable-background="new 0 0 1280 720" xml:space="preserve">
<g id="Capa_1">
	<g display="none">
		<polygon display="inline" fill-rule="evenodd" clip-rule="evenodd" fill="#2F112A" points="659.627,633.056 659.627,652.96 
			567.959,656.968 566.394,643.835 		"/>
		<g display="inline">
			
				<linearGradient id="SVGID_1_" gradientUnits="userSpaceOnUse" x1="671.4707" y1="691.2158" x2="671.4707" y2="638.1377" gradientTransform="matrix(-0.979 0.2037 0.2037 0.979 1176.1858 -145.1881)">
				<stop  offset="0" style="stop-color:#4A2836"/>
				<stop  offset="1" style="stop-color:#25091C"/>
			</linearGradient>
			<path fill-rule="evenodd" clip-rule="evenodd" fill="url(#SVGID_1_)" d="M694.904,660.915c0,0,12.84-1.311,13.879-16.342
				l-84.668-21.816l-11.561,1.112l-10.79,26.403l23.249,3.359L694.904,660.915z"/>
			<polygon fill-rule="evenodd" clip-rule="evenodd" fill="#9A4538" points="624.115,622.757 630.135,654.166 601.764,650.272 
				612.554,623.869 			"/>
			<path opacity="0.81" fill-rule="evenodd" clip-rule="evenodd" fill="#FFD6A1" d="M626.12,653.614c0,0-2.189-23.51-7.877-26.627
				c-5.688-3.118-13.538,23.688-13.538,23.688l1.503,0.346c0,0,5.868-22.806,10.91-22.978c5.042-0.173,7.896,25.588,7.896,25.588
				L626.12,653.614z"/>
			<path opacity="0.81" fill-rule="evenodd" clip-rule="evenodd" fill="#FFD6A1" d="M622.989,653.186c0,0-3.656-17.331-6.563-17.566
				c-2.906-0.234-7.993,15.415-7.993,15.415l1.158,0.368c0,0,3.87-13.908,5.979-14.338c2.107-0.429,6.332,16.121,6.332,16.121
				H622.989z"/>
		</g>
		
			<linearGradient id="SVGID_2_" gradientUnits="userSpaceOnUse" x1="724.9023" y1="663.4141" x2="724.9023" y2="618.9658" gradientTransform="matrix(-1 0 0 1 1280 0)">
			<stop  offset="0" style="stop-color:#4A2836"/>
			<stop  offset="1" style="stop-color:#402738"/>
		</linearGradient>
		<path display="inline" fill-rule="evenodd" clip-rule="evenodd" fill="url(#SVGID_2_)" d="M527.134,663.414l-12.828-3.992
			l62.586-40.456c0,0,11.917,0.8,18.996,3.293L527.134,663.414z"/>
		
			<linearGradient id="SVGID_3_" gradientUnits="userSpaceOnUse" x1="714.6338" y1="668.7041" x2="714.6338" y2="613.8945" gradientTransform="matrix(-1 0 0 1 1280 0)">
			<stop  offset="0" style="stop-color:#4A2836"/>
			<stop  offset="1" style="stop-color:#2A1A4A"/>
		</linearGradient>
		<path display="inline" fill-rule="evenodd" clip-rule="evenodd" fill="url(#SVGID_3_)" d="M564.676,667.437
			c0,0-40.797,3.805-51.415-1.77l86.288-51.653c0,0,9.723-1.883,17.921,9.331L564.676,667.437z"/>
		<g display="inline">
			
				<linearGradient id="SVGID_4_" gradientUnits="userSpaceOnUse" x1="651.1875" y1="667.7734" x2="651.1875" y2="646.1611" gradientTransform="matrix(-1 0 0 1 1280 0)">
				<stop  offset="0" style="stop-color:#1E0E21"/>
				<stop  offset="1" style="stop-color:#4A2836"/>
			</linearGradient>
			<path fill-rule="evenodd" clip-rule="evenodd" fill="url(#SVGID_4_)" d="M697.121,664.451c0,0-5.178-10.774-16.986-15.598
				l-107.204-2.692c0,0-12.429,9.132-12.429,21.612L697.121,664.451z"/>
			<path fill-rule="evenodd" clip-rule="evenodd" fill="#815252" d="M572.931,646.161c0,0,14.92,1.396,21.442,20.789l-33.871,0.823
				C560.502,667.773,562.21,652.401,572.931,646.161z"/>
			<path fill-rule="evenodd" clip-rule="evenodd" fill="#723D3E" d="M590.022,667.013c0,0-8.744-15.524-15.693-15.524
				c-6.946,0-10.717,16.21-10.717,16.21l1.136-0.025c0,0,3.108-14.713,9.427-14.713s14.598,14.127,14.598,14.127L590.022,667.013z"
				/>
			<path fill-rule="evenodd" clip-rule="evenodd" fill="#723D3E" d="M581.838,667.255c0,0-4.557-7.863-7.872-7.863
				c-3.314,0-5.386,8.154-5.386,8.154l1.606-0.007c0,0,1.1-6.918,3.754-6.918c2.655,0,6.952,6.657,6.952,6.657L581.838,667.255z"/>
		</g>
		<path display="inline" fill-rule="evenodd" clip-rule="evenodd" fill="#BF523C" d="M571.688,622.114l-57.382,37.308l60.904-36.963
			C575.21,622.459,572.761,622.114,571.688,622.114z"/>
		<polygon display="inline" fill-rule="evenodd" clip-rule="evenodd" fill="#2F112A" points="617.47,623.345 591.526,645.012 
			592.928,640.768 586.084,638.461 555.098,648.168 570.787,640.768 568.581,635.756 558.708,638.461 599.549,614.014 
			604.705,612.707 608.432,609.61 624.115,611.101 626.12,613.437 617.47,620.315 		"/>
		<polygon display="inline" fill-rule="evenodd" clip-rule="evenodd" fill="#2F112A" points="661.523,632.093 632.221,606.393 
			628.812,606.393 626.12,609.498 634.797,622.757 634.32,625.386 		"/>
		<polygon display="inline" fill-rule="evenodd" clip-rule="evenodd" fill="#FF3B00" points="590.608,646.605 597.199,640.273 
			598.965,640.273 606.28,639.224 604.977,642.409 613.009,645.012 628.601,646.161 641.646,647.888 661.523,646.161 
			667.326,633.891 668.211,634.119 663.033,643.908 663.734,645.012 671.068,647.888 676.953,645.628 675.152,639.09 
			671.979,635.09 673.215,635.408 675.855,639.605 677.436,646.747 670.848,648.62 		"/>
		<path display="inline" fill-rule="evenodd" clip-rule="evenodd" fill="#FF3B00" d="M630.135,666.08l17.191-9.112l23.303-2.802
			l22.813,4.763l0.529,0.665c0,0-16.939-4.853-25.449-4.502s-20.844,4.072-20.844,4.072s1.713,5.525,9.375,6.262l-2.994,0.162
			l-5.619-3.613c0,0-1.873-2.27-4.215-1.852c-2.344,0.418-12.414,5.957-12.414,5.957H630.135z"/>
		<path display="inline" fill-rule="evenodd" clip-rule="evenodd" fill="#FF3B00" d="M682.898,637.903
			c0,0,16.832,8.361,21.609,17.834l0.381-0.454c0,0-6.918-10.682-19.676-16.784L682.898,637.903z"/>
		<path display="inline" fill-rule="evenodd" clip-rule="evenodd" fill="#FF3B00" d="M555.098,667.773c0,0-1.976-5.823-4.961-9.597
			c-2.986-3.772-16.026-4.991-16.026-4.991l0.462-0.276c0,0,11.993,1.953,13.28,2.183c1.288,0.229,0.942-10.696,0.942-10.696
			l0.798-0.478c0,0,0.427,10.102,1.246,11.929s11.285,5.068,11.285,5.068s-1.445,4.974-1.622,6.858H555.098z"/>
		<path display="inline" fill-rule="evenodd" clip-rule="evenodd" fill="#FF3B00" d="M525.773,658.177c0,0,2.583,5.154,3.754,10.527
			h-1.877c0,0,0.292-5.862-3.206-9.732L525.773,658.177z"/>
		<polygon display="inline" fill-rule="evenodd" clip-rule="evenodd" fill="#FF8D00" points="615.412,647.229 614.267,645.104 
			605.611,642.615 594.374,644.922 590.608,646.605 		"/>
		<polygon display="inline" fill-rule="evenodd" clip-rule="evenodd" fill="#FFBA00" points="650.957,656.968 647.297,659.136 
			647.123,659.938 642.76,660.123 640.009,661.257 647.443,657.214 		"/>
		<polygon display="inline" fill-rule="evenodd" clip-rule="evenodd" fill="#FFBA00" points="652.758,656.968 654.074,656.554 
			656.666,656.554 		"/>
		<polygon display="inline" fill-rule="evenodd" clip-rule="evenodd" fill="#FFBA00" points="663.604,647.229 662.506,646.833 
			656.666,647.03 657.191,648.168 662.418,648.168 		"/>
		<polygon display="inline" fill-rule="evenodd" clip-rule="evenodd" fill="#FFBA00" points="666.324,646.833 665.125,647.178 
			663.34,646.161 663.34,645.457 665.184,645.858 		"/>
		<polygon display="inline" fill-rule="evenodd" clip-rule="evenodd" fill="#FFBA00" points="666.324,647.501 666.092,647.501 
			665.623,648.101 666.324,648.101 		"/>
		<polygon display="inline" fill-rule="evenodd" clip-rule="evenodd" fill="#FFBA00" points="615.412,647.229 613.009,645.012 
			608.136,644.4 604.705,647.229 		"/>
		<polygon display="inline" fill-rule="evenodd" clip-rule="evenodd" fill="#FFBA00" points="561.001,663.414 558.451,660.123 
			554.352,660.123 557.677,667.975 560.502,667.773 		"/>
		<polygon display="inline" fill-rule="evenodd" clip-rule="evenodd" fill="#FFBA00" points="553.065,659.392 552.01,658.177 
			549.771,657.775 551.893,659.422 		"/>
		<polygon display="inline" fill-rule="evenodd" clip-rule="evenodd" fill="#2F112A" points="613.009,669.839 606.343,660.915 
			601.764,657.775 581.838,660.915 570.787,670.238 604.705,670.238 		"/>
		<polygon display="inline" fill-rule="evenodd" clip-rule="evenodd" fill="#FF3B00" points="622.989,610.993 617.47,620.315 
			626.12,613.437 624.115,611.101 		"/>
		<polygon display="inline" fill-rule="evenodd" clip-rule="evenodd" fill="#983B00" points="632.221,606.393 637.431,620.9 
			634.797,622.757 626.12,609.498 628.812,606.393 		"/>
		<g display="inline">
			
				<radialGradient id="SVGID_5_" cx="576.6831" cy="1122.1777" r="92.1296" gradientTransform="matrix(-0.9889 0 0 0.5742 1180.8322 -0.0879)" gradientUnits="userSpaceOnUse">
				<stop  offset="0" style="stop-color:#FF7C07"/>
				<stop  offset="0.1244" style="stop-color:#CF6506"/>
				<stop  offset="0.3042" style="stop-color:#914704"/>
				<stop  offset="0.4768" style="stop-color:#5D2D03"/>
				<stop  offset="0.6372" style="stop-color:#351A01"/>
				<stop  offset="0.7827" style="stop-color:#180C01"/>
				<stop  offset="0.9084" style="stop-color:#060300"/>
				<stop  offset="1" style="stop-color:#000000"/>
			</radialGradient>
			
				<ellipse opacity="0.5" fill-rule="evenodd" clip-rule="evenodd" fill="url(#SVGID_5_)" cx="610.551" cy="644.267" rx="91.104" ry="52.902"/>
			
				<radialGradient id="SVGID_6_" cx="579.4795" cy="1121.5703" r="157.6768" gradientTransform="matrix(-0.9889 0 0 0.5742 1180.8322 -0.0879)" gradientUnits="userSpaceOnUse">
				<stop  offset="0" style="stop-color:#FF0000"/>
				<stop  offset="0.2218" style="stop-color:#BC0000"/>
				<stop  offset="0.5044" style="stop-color:#6C0000"/>
				<stop  offset="0.7375" style="stop-color:#320000"/>
				<stop  offset="0.9088" style="stop-color:#0E0000"/>
				<stop  offset="1" style="stop-color:#000000"/>
			</radialGradient>
			
				<ellipse opacity="0.5" fill-rule="evenodd" clip-rule="evenodd" fill="url(#SVGID_6_)" cx="607.784" cy="643.918" rx="155.921" ry="90.541"/>
		</g>
		<path display="inline" fill-rule="evenodd" clip-rule="evenodd" fill="#FFBF00" d="M604.259,558.376
			c0.343,0.566,0.687,1.132,1.03,1.699c-0.872,0.933-2.585,0.982-3.429,0.027c-0.846-0.956-0.453-2.711,0.763-3.139
			c1.214-0.429,2.698,0.828,2.35,2.046L604.259,558.376z"/>
		<path display="inline" fill-rule="evenodd" clip-rule="evenodd" fill="#FFBF00" d="M621.683,599.285
			c0.083-0.186,0.117-0.377,0.101-0.575c-1.181-0.571-3,0.952-1.715,2.069c0.43,0.373,1.495,0.588,1.915,0
			c0.411-0.575-0.376-1.013-0.184-1.608L621.683,599.285z"/>
		<path display="inline" fill-rule="evenodd" clip-rule="evenodd" fill="#FFBF00" d="M614.892,598.598
			c-0.409,0.074-0.778,0.225-1.109,0.452c0.47,0.344,1.623,0.095,1.319-0.659c-0.295-0.73-1.465-0.21-1.147,0.437L614.892,598.598z"
			/>
		<path display="inline" fill-rule="evenodd" clip-rule="evenodd" fill="#FFBF00" d="M651.543,575.313
			c0.137,1.031-0.834,1.144-1.621,1.015c-0.197-1.043,0.781-2.406,1.738-2.801c0.459,0.495,0.207,1.211-0.236,1.671L651.543,575.313
			z"/>
		<path display="inline" fill-rule="evenodd" clip-rule="evenodd" fill="#FFBF00" d="M581.167,578.868
			c-0.554-1.14-1.325-0.067-1.087,0.688c0.198,0.63,1.2,1.165,1.806,1.266c2.327,0.387,0.74-1.964-0.601-2.298L581.167,578.868z"/>
		<path display="inline" fill-rule="evenodd" clip-rule="evenodd" fill="#FFBF00" d="M586.436,549.388
			c0.104,0.43,0.034,0.74-0.339,0.937c-1.618-0.695,0.162-3.512,0.573-0.822L586.436,549.388z"/>
		<path display="inline" fill-rule="evenodd" clip-rule="evenodd" fill="#FFBF00" d="M605.172,608.348
			c-0.356-1.394-2.374-1.408-1.865,0.061c0.298,0.855,1.211,0.72,1.631,0.054L605.172,608.348z"/>
		
			<linearGradient id="SVGID_7_" gradientUnits="userSpaceOnUse" x1="703.3516" y1="620.3154" x2="703.3516" y2="310.4487" gradientTransform="matrix(-1 0 0 1 1280 0)">
			<stop  offset="0" style="stop-color:#A18C89"/>
			<stop  offset="0.2825" style="stop-color:#6B5D5B"/>
			<stop  offset="0.6182" style="stop-color:#322B2A"/>
			<stop  offset="0.8673" style="stop-color:#0E0C0C"/>
			<stop  offset="1" style="stop-color:#000000"/>
		</linearGradient>
		<path display="inline" opacity="0.5" fill-rule="evenodd" clip-rule="evenodd" fill="url(#SVGID_7_)" d="M617.47,620.315
			c0,0-20.192-11.77,2.158-31.086c1.558-1.346,36.372-28.256,39.999-35.828c3.625-7.57,16.512-41.003-38.76-38.224
			c0,0,5.641-2.375,6.481-8.899c0.424-3.291-4.06-7.248-4.06-7.248s29.6-19.156,33.377-42.442
			c3.775-23.286-14.322-61.025-60.778-65.729c-46.454-4.703-33.31-23.63-5.28-30.513c28.03-6.883,30.813-34.413,5.534-49.898
			c0,0-4.354,36.382-25.355,52.948c-21.001,16.565-79.534,47.073-81.006,73.803c-1.472,26.73,88.787,37.503,95.648,64.637
			c6.862,27.133-36.81,52.463-31.309,79.028C559.622,607.431,617.47,620.315,617.47,620.315z"/>
	</g>
</g>
<g id="Capa_2">
	<g>
		<polygon opacity="0.6" fill-rule="evenodd" clip-rule="evenodd" fill="#7754BA" points="622.063,538.24 904.94,573.765 
			1161.37,557.661 1151.22,556.339 		"/>
		
			<linearGradient id="SVGID_8_" gradientUnits="userSpaceOnUse" x1="1216.498" y1="570.7061" x2="1216.498" y2="519.8154" gradientTransform="matrix(1 0 0 1 -329.4819 0)">
			<stop  offset="0" style="stop-color:#9F223F"/>
			<stop  offset="1" style="stop-color:#932A52"/>
		</linearGradient>
		<path fill-rule="evenodd" clip-rule="evenodd" fill="url(#SVGID_8_)" d="M622.071,534.908v3.333l119.854,11.169
			c0,0,64.057,2.076,83.609,11.461l74.338,9.835l251.338-14.361l0.752-4.731c0,0-219.691-19.787-260.268-31.798
			C891.694,519.815,682.53,534.908,622.071,534.908z"/>
		
			<linearGradient id="SVGID_9_" gradientUnits="userSpaceOnUse" x1="1216.4912" y1="570.7061" x2="1216.4912" y2="534.9023" gradientTransform="matrix(1 0 0 1 -329.4819 0)">
			<stop  offset="0" style="stop-color:#9D7C90"/>
			<stop  offset="1" style="stop-color:#775477"/>
		</linearGradient>
		<path opacity="0.6" fill-rule="evenodd" clip-rule="evenodd" fill="url(#SVGID_9_)" d="M1151.956,551.608l-0.736,4.73
			l-251.357,14.367l-74.328-9.835c-26.84-10.744-83.6-11.459-83.6-11.459L622.063,538.24v-3.338l119.871,11.459
			c70.23,0,95.496,12.887,95.496,12.887l62.432,7.495C943.612,568.564,1151.956,551.608,1151.956,551.608z"/>
		
			<linearGradient id="SVGID_10_" gradientUnits="userSpaceOnUse" x1="1090.4443" y1="570.7061" x2="1090.4443" y2="534.9023" gradientTransform="matrix(1 0 0 1 -329.4819 0)">
			<stop  offset="0" style="stop-color:#9D7C90"/>
			<stop  offset="1" style="stop-color:#775477"/>
		</linearGradient>
		<path opacity="0.6" fill-rule="evenodd" clip-rule="evenodd" fill="url(#SVGID_10_)" d="M899.862,566.743v3.963l-74.328-9.835
			c-26.84-10.744-83.6-11.459-83.6-11.459L622.063,538.24v-3.338l119.871,11.459c70.23,0,95.496,12.887,95.496,12.887
			L899.862,566.743z"/>
		<path fill-rule="evenodd" clip-rule="evenodd" fill="#BF523C" d="M664.108,533.744l102.957,8.184c0,0,64.838-2.078,92.732,7.729
			l83.506,16.192l40.098-2.146l-110.787-16.415c0,0-31.68-8.194-102.164-8.194l-82.889-6.438L664.108,533.744z"/>
		<path fill-rule="evenodd" clip-rule="evenodd" fill="#BF523C" d="M732.161,530.236c0,0,225.166,20.181,277.805,31.806
			l20.584-1.372l-276.318-31.742L732.161,530.236z"/>
		<polygon fill-rule="evenodd" clip-rule="evenodd" fill="#BF523C" points="794.179,526.431 1062.634,558.418 1080.979,557.081 
			802.306,525.905 		"/>
		<polygon fill-rule="evenodd" clip-rule="evenodd" fill="#BF523C" points="838.431,523.512 1109.735,554.919 1136.976,552.805 
			854.679,522.406 		"/>
		
			<linearGradient id="SVGID_11_" gradientUnits="userSpaceOnUse" x1="1121.373" y1="553.4238" x2="1290.6836" y2="553.4238" gradientTransform="matrix(1 0 0 1 -329.4819 0)">
			<stop  offset="0" style="stop-color:#752A5B"/>
			<stop  offset="1" style="stop-color:#CE5751"/>
		</linearGradient>
		<path opacity="0.6" fill-rule="evenodd" clip-rule="evenodd" fill="url(#SVGID_11_)" d="M837.431,559.248l123.771-9.479
			c0,0-100.523-4.284-169.311-0.814C791.892,548.955,821.558,553.949,837.431,559.248z"/>
		
			<radialGradient id="SVGID_12_" cx="1643.8867" cy="949.7539" r="321.1247" gradientTransform="matrix(0.5862 0 0 0.5742 -76.6302 -0.0879)" gradientUnits="userSpaceOnUse">
			<stop  offset="0" style="stop-color:#FFFFFF"/>
			<stop  offset="0.2638" style="stop-color:#E4CEE4"/>
			<stop  offset="0.6083" style="stop-color:#C395C4"/>
			<stop  offset="0.8639" style="stop-color:#AF71B1"/>
			<stop  offset="1" style="stop-color:#A763A9"/>
		</radialGradient>
		<path opacity="0.91" fill-rule="evenodd" clip-rule="evenodd" fill="url(#SVGID_12_)" d="M622.071,534.908v3.333l119.854,11.169
			c0,0,64.057,2.076,83.609,11.461l74.338,9.835l251.338-14.361l0.752-4.731c0,0-219.691-19.787-260.268-31.798
			C891.694,519.815,682.53,534.908,622.071,534.908z"/>
	</g>
	<g>
		<path opacity="0.6" fill-rule="evenodd" clip-rule="evenodd" fill="#7754BA" d="M612.521,553.327c0,0,34.248,13.964,117.48,22.224
			c0,0,145.887-10.299,233.234-24.755l-32.135-2.33L612.521,553.327z"/>
		
			<linearGradient id="SVGID_13_" gradientUnits="userSpaceOnUse" x1="944.8428" y1="535.6533" x2="1259.0693" y2="535.6533" gradientTransform="matrix(0.9991 0.0415 -0.0415 0.9991 -310.4125 -39.0596)">
			<stop  offset="0" style="stop-color:#9F223F"/>
			<stop  offset="1" style="stop-color:#540443"/>
		</linearGradient>
		<path fill-rule="evenodd" clip-rule="evenodd" fill="url(#SVGID_13_)" d="M612.521,553.327c0,0-6.594-5.438,5.943-16.562
			c0,0,23.471-3.317,66.244-4.017c42.775-0.699,111.549-19.105,111.549-19.105s79.857-5.78,129.789,16.621l-3.885,20.531
			c0,0-140.164,21.681-193.043,20.781C729.118,571.577,671.147,570.395,612.521,553.327z"/>
		
			<linearGradient id="SVGID_14_" gradientUnits="userSpaceOnUse" x1="1092.6953" y1="509.9316" x2="1274.2705" y2="509.9316" gradientTransform="matrix(0.9991 0.0415 -0.0415 0.9991 -310.4125 -39.0596)">
			<stop  offset="0" style="stop-color:#9F223F"/>
			<stop  offset="1" style="stop-color:#541843"/>
		</linearGradient>
		<path fill-rule="evenodd" clip-rule="evenodd" fill="url(#SVGID_14_)" d="M941.37,527.596c0,0-36.789-9.16-79.99,8.124
			l-99.83-13.849c0,0-3.469-6.996,0.748-17.66c0,0,50.574-5.997,106.408,2.841C868.706,507.052,927.024,518.156,941.37,527.596z"/>
		<path fill-rule="evenodd" clip-rule="evenodd" fill="#35042B" d="M861.38,535.72c0,0-4.033-16.231,4.563-20.23
			c8.596-3.997,41.535-2.726,75.428,12.106c0,0-2.225,12.944-10.27,20.87l-8.939,2.33l3.111-17.072
			C925.272,533.724,901.597,529.284,861.38,535.72z"/>
		
			<linearGradient id="SVGID_15_" gradientUnits="userSpaceOnUse" x1="952.0107" y1="538.4717" x2="1134.1709" y2="538.4717" gradientTransform="matrix(0.9991 0.0415 -0.0415 0.9991 -310.4125 -39.0596)">
			<stop  offset="0" style="stop-color:#CC2A4C"/>
			<stop  offset="1" style="stop-color:#750E3F"/>
		</linearGradient>
		<path fill-rule="evenodd" clip-rule="evenodd" fill="url(#SVGID_15_)" d="M618.464,536.766c0,0,47.42,13.431,111.34,18.658
			c0,0,36.406-3.55,70.182,0.34c0,0-99.18-11.334-125.916-22.618C674.069,533.146,635.269,517.582,618.464,536.766z"/>
		
			<linearGradient id="SVGID_16_" gradientUnits="userSpaceOnUse" x1="1007.4199" y1="533.4971" x2="1209.5264" y2="533.4971" gradientTransform="matrix(0.9991 0.0415 -0.0415 0.9991 -310.4125 -39.0596)">
			<stop  offset="0" style="stop-color:#CC2A4C"/>
			<stop  offset="1" style="stop-color:#750E3F"/>
		</linearGradient>
		<path fill-rule="evenodd" clip-rule="evenodd" fill="url(#SVGID_16_)" d="M875.888,544.077c0,0-102.598-9.417-135.936-17.894
			c0,0-45.336-11.628-65.883,6.962c0,0,40.314,13.118,125.916,22.618C799.985,555.764,835.481,540.903,875.888,544.077z"/>
		
			<linearGradient id="SVGID_17_" gradientUnits="userSpaceOnUse" x1="1089.8076" y1="515.6113" x2="1195.8556" y2="518.451" gradientTransform="matrix(0.9999 0.0147 -0.0147 0.9999 -322.451 -13.7791)">
			<stop  offset="0" style="stop-color:#CC2A4C"/>
			<stop  offset="1" style="stop-color:#971D3F"/>
		</linearGradient>
		<path fill-rule="evenodd" clip-rule="evenodd" fill="url(#SVGID_17_)" d="M865.942,515.489c0,0-65.393,5.054-103.645-11.278
			c0,0-4.986,8.405-0.748,17.66c0,0,69.646,10.894,99.83,13.849C861.38,535.72,857.765,522.854,865.942,515.489z"/>
		<path opacity="0.64" fill-rule="evenodd" clip-rule="evenodd" fill="#35042B" d="M861.38,535.72l22.768,2.546
			c0,0,32.676-5.552,46.223-3.405C930.37,534.86,889.851,526.86,861.38,535.72z"/>
		
			<linearGradient id="SVGID_18_" gradientUnits="userSpaceOnUse" x1="1003.5508" y1="538.0518" x2="1107.8398" y2="538.0518" gradientTransform="matrix(1 0 0 1 -329.4819 0)">
			<stop  offset="0" style="stop-color:#9A2500"/>
			<stop  offset="0.256" style="stop-color:#6B1A00"/>
			<stop  offset="0.6042" style="stop-color:#320C00"/>
			<stop  offset="0.8625" style="stop-color:#0E0300"/>
			<stop  offset="1" style="stop-color:#000000"/>
		</linearGradient>
		<path opacity="0.5" fill-rule="evenodd" clip-rule="evenodd" fill="url(#SVGID_18_)" d="M688.741,525.308
			c0,0,37.996,17.711,89.617,25.488c0,0-69.799-4.537-104.289-17.65C674.069,533.146,682.64,526.349,688.741,525.308z"/>
		
			<linearGradient id="SVGID_19_" gradientUnits="userSpaceOnUse" x1="947.9453" y1="542.707" x2="1033.9883" y2="542.707" gradientTransform="matrix(1 0 0 1 -329.4819 0)">
			<stop  offset="0" style="stop-color:#9A2500"/>
			<stop  offset="0.256" style="stop-color:#6B1A00"/>
			<stop  offset="0.6042" style="stop-color:#320C00"/>
			<stop  offset="0.8625" style="stop-color:#0E0300"/>
			<stop  offset="1" style="stop-color:#000000"/>
		</linearGradient>
		<path opacity="0.5" fill-rule="evenodd" clip-rule="evenodd" fill="url(#SVGID_19_)" d="M618.464,536.766
			c0,0,26.846,8.781,86.043,16.098c0,0-47.359-8.479-64.807-20.312C639.7,532.552,624.28,533.313,618.464,536.766z"/>
		
			<linearGradient id="SVGID_20_" gradientUnits="userSpaceOnUse" x1="1089.3799" y1="513.5391" x2="1156.6777" y2="513.5391" gradientTransform="matrix(1 0 0 1 -329.4819 0)">
			<stop  offset="0" style="stop-color:#9A2500"/>
			<stop  offset="0.256" style="stop-color:#6B1A00"/>
			<stop  offset="0.6042" style="stop-color:#320C00"/>
			<stop  offset="0.8625" style="stop-color:#0E0300"/>
			<stop  offset="1" style="stop-color:#000000"/>
		</linearGradient>
		<path opacity="0.5" fill-rule="evenodd" clip-rule="evenodd" fill="url(#SVGID_20_)" d="M762.298,504.211
			c0,0,11.996,8.294,64.898,11.713c0,0-11.361,10.08-65.646,5.947C761.55,521.871,757.378,514.315,762.298,504.211z"/>
		<path opacity="0.64" fill-rule="evenodd" clip-rule="evenodd" fill="#3B0B2E" d="M772.745,503.29c0,0,53.465,12.735,84.285,10.247
			s45.777,1.019,45.777,1.019s-30.086-7.83-43.787-9.551C845.319,503.283,782.491,502.035,772.745,503.29z"/>
		
			<linearGradient id="SVGID_21_" gradientUnits="userSpaceOnUse" x1="1102.9219" y1="499.5352" x2="1214.1963" y2="499.5352" gradientTransform="matrix(1 0 0 1 -329.4819 0)">
			<stop  offset="0" style="stop-color:#FF709A"/>
			<stop  offset="1" style="stop-color:#7370A7"/>
		</linearGradient>
		<path fill-rule="evenodd" clip-rule="evenodd" fill="url(#SVGID_21_)" d="M880.458,499.726c0,0-13.664,12.805-31.148,12.805
			c-38.063,0-70.953-10.316-70.953-10.316s-8.25-3.632-3.375-5.575c1.984-0.8,19.635-10.117,58.754-10.099
			c16.316,0,36.191,4.286,42.143,5.667c1.131,0.254,1.762,0.418,1.762,0.418s6.434,2.742,7.027,4.014
			C885.241,497.892,880.458,499.726,880.458,499.726z"/>
		<path opacity="0.6" fill-rule="evenodd" clip-rule="evenodd" fill="#812579" d="M880.458,499.726c0,0-13.664,12.805-31.148,12.805
			c-38.063,0-70.953-10.316-70.953-10.316s5.137-0.999,8.529-4.086v2.052c0,0,27.234,5.848,46.555,6.03l5.672-1.09
			c0,0,1.059,0.998,2.744,1.78c3.115,1.436,5.637,3.269,5.637,3.269l3.301-7.7l0.037-0.018c0.891-0.165,15.313-2.979,25.047-10.244
			c1.131,0.254,1.762,0.418,1.762,0.418s6.434,2.742,7.027,4.014C885.241,497.892,880.458,499.726,880.458,499.726z"/>
		<path opacity="0.6" fill-rule="evenodd" clip-rule="evenodd" fill="#812579" d="M880.458,499.726c0,0-13.664,12.805-31.148,12.805
			c2.967-2.797,1.484-10.062,1.484-10.062l0.037-0.018c0.891-0.165,15.313-2.979,25.047-10.244c1.131,0.254,1.762,0.418,1.762,0.418
			s6.434,2.742,7.027,4.014C885.241,497.892,880.458,499.726,880.458,499.726z"/>
		<path opacity="0.6" fill-rule="evenodd" clip-rule="evenodd" fill="#9D4889" d="M812.409,491.01c0,0,14.879,1.591,23.309,1.197
			c8.432-0.395,16.043-3.378,16.043-3.378S827.39,491.124,812.409,491.01z"/>
		<path fill-rule="evenodd" clip-rule="evenodd" fill="#35042B" d="M729.118,571.577l0.686-16.153c0,0,4.393-19.704,70.182,0.34
			c0,0,12.424-26.568,75.902-11.687c0,0,13.795-14.147,49.385-10.354l-3.111,17.072
			C922.161,550.796,782.864,573.747,729.118,571.577z"/>
	</g>
</g>
</svg>
