<?xml version="1.0" encoding="utf-8"?>
<!-- Generator: Adobe Illustrator 16.0.3, SVG Export Plug-In . SVG Version: 6.00 Build 0)  -->
<!DOCTYPE svg PUBLIC "-//W3C//DTD SVG 1.1//EN" "http://www.w3.org/Graphics/SVG/1.1/DTD/svg11.dtd">
<svg version="1.1" id="Capa_2" xmlns="http://www.w3.org/2000/svg" xmlns:xlink="http://www.w3.org/1999/xlink" x="0px" y="0px"
	 width="1280px" height="720px" viewBox="0 0 1280 720" enable-background="new 0 0 1280 720" xml:space="preserve">
<g id="Capa_3">
	<g>
		
			<linearGradient id="SVGID_1_" gradientUnits="userSpaceOnUse" x1="1060.1113" y1="491.3955" x2="1060.1113" y2="4.882813e-004" gradientTransform="matrix(-1 0 0 1 1280 0)">
			<stop  offset="0" style="stop-color:#4A4D62"/>
			<stop  offset="1" style="stop-color:#402738"/>
		</linearGradient>
		<polygon fill-rule="evenodd" clip-rule="evenodd" fill="url(#SVGID_1_)" points="0.088,0 0.088,491.396 148.118,339.387 
			252.568,283.084 382.499,131.027 381.374,127.997 338.283,146.35 304.944,172.687 305.495,166.539 426.339,52.747 439.688,38.982 
			439.688,29.346 420.133,25.217 257.537,72.019 433.365,0 		"/>
		<polygon fill-rule="evenodd" clip-rule="evenodd" fill="#726BED" points="420.133,25.217 312.512,72.916 284.513,85.325 
			304.09,82.043 330.32,72.019 277.463,100.007 282.544,89.914 277.463,89.914 196.83,120.655 174.815,125.702 116.267,138.869 
			73.644,146.35 52.567,154.609 31.489,156.674 72.708,144.515 177.392,118.131 195.424,113.084 183.247,118.82 181.197,117.902 
			179.324,118.533 162.754,124.211 157.954,127.881 185.179,121.286 284.418,73.395 298.119,64.792 288.985,63.415 		"/>
		<polygon fill-rule="evenodd" clip-rule="evenodd" fill="#726BED" points="175.752,130.52 158.89,132.814 129.382,142.679 
			111.349,150.479 134.183,143.253 137.569,142.794 133.598,145.088 128.797,149.447 155.612,144.171 172.474,133.044 
			170.717,132.814 		"/>
		
			<linearGradient id="SVGID_2_" gradientUnits="userSpaceOnUse" x1="859.8672" y1="245.6978" x2="1279.9121" y2="245.6978" gradientTransform="matrix(-1 0 0 1 1280 0)">
			<stop  offset="0" style="stop-color:#9D7C90"/>
			<stop  offset="1" style="stop-color:#775477"/>
		</linearGradient>
		<polygon opacity="0.6" fill-rule="evenodd" clip-rule="evenodd" fill="url(#SVGID_2_)" points="252.568,283.084 123.761,348.628 
			49.918,393.826 64.908,373.445 237.111,230.097 224.933,245.697 219.888,266.565 338.283,146.35 304.944,172.687 305.495,166.539 
			284.513,185.81 185.588,262.895 69.428,339.387 37.578,348.628 46.009,247.758 68.492,229.858 182.31,166.08 190.741,158.279 
			275.05,106.431 135.939,182.139 77.859,201.513 284.513,85.325 420.133,25.217 260.585,70.77 215.649,83.031 31.489,156.674 
			13.222,154.609 54.265,120.884 60.998,122.261 108.07,94.386 102.45,93.699 18.492,138.091 5.494,138.436 12.52,57.565 
			29.382,43.111 219.888,0 0.088,0 0.088,491.396 148.118,339.387 		"/>
		
			<linearGradient id="SVGID_3_" gradientUnits="userSpaceOnUse" x1="923.2168" y1="43.2358" x2="1170.5244" y2="43.2358" gradientTransform="matrix(-1 0 0 1 1280 0)">
			<stop  offset="0" style="stop-color:#9D7C90"/>
			<stop  offset="1" style="stop-color:#775477"/>
		</linearGradient>
		<polygon opacity="0.6" fill-rule="evenodd" clip-rule="evenodd" fill="url(#SVGID_3_)" points="336.409,0 291.443,16.958 
			210.11,43.8 202.216,38.982 109.476,86.472 356.784,0 		"/>
		
			<linearGradient id="SVGID_4_" gradientUnits="userSpaceOnUse" x1="840.3125" y1="89.9126" x2="1022.4629" y2="89.9126" gradientTransform="matrix(-1 0 0 1 1280 0)">
			<stop  offset="0" style="stop-color:#9D7C90"/>
			<stop  offset="1" style="stop-color:#775477"/>
		</linearGradient>
		<polygon opacity="0.6" fill-rule="evenodd" clip-rule="evenodd" fill="url(#SVGID_4_)" points="439.688,29.346 381.842,78.901 
			364.013,85.989 257.537,150.479 		"/>
		
			<linearGradient id="SVGID_5_" gradientUnits="userSpaceOnUse" x1="859.8672" y1="82.043" x2="1203.9863" y2="82.043" gradientTransform="matrix(-1 0 0 1 1280 0)">
			<stop  offset="0" style="stop-color:#9D7C90"/>
			<stop  offset="1" style="stop-color:#775477"/>
		</linearGradient>
		<polygon opacity="0.6" fill-rule="evenodd" clip-rule="evenodd" fill="url(#SVGID_5_)" points="260.585,70.77 420.133,25.217 
			284.513,85.325 210.11,96.336 76.014,138.869 215.649,83.031 		"/>
		
			<linearGradient id="SVGID_6_" gradientUnits="userSpaceOnUse" x1="1089.2051" y1="351.5645" x2="1282.1328" y2="351.5645" gradientTransform="matrix(-1 0 0 1 1280 0)">
			<stop  offset="0" style="stop-color:#9D7C90"/>
			<stop  offset="1" style="stop-color:#775477"/>
		</linearGradient>
		<polygon opacity="0.6" fill-rule="evenodd" clip-rule="evenodd" fill="url(#SVGID_6_)" points="0.088,372.785 37.578,348.628 
			69.428,339.387 185.588,262.895 190.795,268.652 64.908,373.445 49.918,393.826 -2.133,440.234 		"/>
		
			<linearGradient id="SVGID_7_" gradientUnits="userSpaceOnUse" x1="1004.9492" y1="180.7061" x2="1279.9121" y2="180.7061" gradientTransform="matrix(-1 0 0 1 1280 0)">
			<stop  offset="0" style="stop-color:#9D7C90"/>
			<stop  offset="1" style="stop-color:#775477"/>
		</linearGradient>
		<polygon opacity="0.6" fill-rule="evenodd" clip-rule="evenodd" fill="url(#SVGID_7_)" points="77.859,201.513 133.832,182.842 
			275.05,106.431 190.741,158.279 0.088,254.98 0.088,232.611 		"/>
		
			<linearGradient id="SVGID_8_" gradientUnits="userSpaceOnUse" x1="941.7168" y1="192.5225" x2="1063.3555" y2="192.5225" gradientTransform="matrix(-1 0 0 1 1280 0)">
			<stop  offset="0" style="stop-color:#9D7C90"/>
			<stop  offset="1" style="stop-color:#775477"/>
		</linearGradient>
		<polygon opacity="0.6" fill-rule="evenodd" clip-rule="evenodd" fill="url(#SVGID_8_)" points="338.283,146.35 271.664,213.993 
			216.644,238.695 305.495,166.539 304.944,172.687 		"/>
		<polygon fill-rule="evenodd" clip-rule="evenodd" fill="#A29396" points="252.568,283.084 236.518,285.836 233.775,281.477 
			299.172,214.315 314.98,197.453 329.951,192.522 		"/>
		<polygon fill-rule="evenodd" clip-rule="evenodd" fill="#A29396" points="408.946,69.125 381.842,78.901 364.013,85.989 
			158.992,224.914 123.719,266.289 69.428,339.387 185.588,262.895 305.495,166.539 		"/>
		<polygon fill-rule="evenodd" clip-rule="evenodd" fill="#A29396" points="165.315,212.292 261.936,143.597 312.981,106.431 
			312.981,96.796 187.887,180.705 155.947,217.881 		"/>
	</g>
	<g opacity="0.6">
		<polygon fill-rule="evenodd" clip-rule="evenodd" fill="#31025D" points="410.056,69.125 410.056,69.125 306.606,166.539 
			306.054,172.688 339.393,146.35 382.485,127.996 383.61,131.027 253.678,283.084 149.228,339.387 1.198,491.396 1.198,438.254 
			-1.023,440.234 1.198,372.785 1.198,254.98 1.198,232.611 1.198,0 220.999,0 337.519,0 357.894,0 434.475,0 261.694,70.771 
			261.696,70.77 421.243,25.217 440.798,29.346 440.798,38.982 427.45,52.747 		"/>
	</g>
</g>
</svg>
