<?xml version="1.0" encoding="utf-8"?>
<!-- Generator: Adobe Illustrator 16.0.3, SVG Export Plug-In . SVG Version: 6.00 Build 0)  -->
<!DOCTYPE svg PUBLIC "-//W3C//DTD SVG 1.1//EN" "http://www.w3.org/Graphics/SVG/1.1/DTD/svg11.dtd">
<svg version="1.1" xmlns="http://www.w3.org/2000/svg" xmlns:xlink="http://www.w3.org/1999/xlink" x="0px" y="0px" width="1280px"
	 height="720px" viewBox="0 0 1280 720" enable-background="new 0 0 1280 720" xml:space="preserve">
<g id="Capa_4">
	<g>
		
			<linearGradient id="SVGID_1_" gradientUnits="userSpaceOnUse" x1="256.3389" y1="745.3037" x2="256.3388" y2="-6.1138" gradientTransform="matrix(-1 0 0 1 1280 0)">
			<stop  offset="0" style="stop-color:#4A4D58"/>
			<stop  offset="1" style="stop-color:#2C1B2D"/>
		</linearGradient>
		<polygon fill-rule="evenodd" clip-rule="evenodd" fill="url(#SVGID_1_)" points="764.097,745.304 862.245,376.739 
			875.187,362.678 929.663,-6.114 1283.226,-6.114 1283.226,718.703 		"/>
		<polygon fill-rule="evenodd" clip-rule="evenodd" fill="#ECB2ED" points="764.097,745.304 862.245,376.739 861.698,429.433 
			853.813,506.859 924.296,236.789 909.901,429.433 917.112,437.489 917.112,391.128 963.532,81.22 942.014,463.925 
			930.744,448.739 925.523,468.947 930.744,495.036 930.744,548.747 939.544,479.69 930.744,635.068 935.606,682.225 980.512,331.2 
			969.185,634.813 982.011,734.137 		"/>
		
			<linearGradient id="SVGID_2_" gradientUnits="userSpaceOnUse" x1="370.0986" y1="745.3037" x2="370.0986" y2="-10.9937" gradientTransform="matrix(-1 0 0 1 1280 0)">
			<stop  offset="0" style="stop-color:#9D7C90"/>
			<stop  offset="1" style="stop-color:#775477"/>
		</linearGradient>
		<polygon opacity="0.6" fill-rule="evenodd" clip-rule="evenodd" fill="url(#SVGID_2_)" points="862.245,376.739 817.344,593.635 
			817.344,675.735 820.707,702.591 866.635,520.776 888.271,421.638 853.813,506.859 881.059,408.443 917.112,301.292 
			902.69,398.848 845.311,666.662 839.563,708.474 848.215,703.358 861.698,658.854 902.69,583.65 879.457,695.322 872.249,720.238 
			930.744,720.238 1023.661,-6.114 1055.706,-10.994 1004.421,250.653 991.617,321.25 1004.436,301.292 1033.275,177.761 
			1011.645,321.25 1004.436,479.69 1002.832,338.31 990.816,378.705 950.759,635.068 969.185,720.238 982.011,720.238 
			990.816,636.603 1002.832,497.723 996.472,733.396 764.097,745.304 		"/>
		
			<linearGradient id="SVGID_3_" gradientUnits="userSpaceOnUse" x1="330.4385" y1="301.292" x2="330.4385" y2="-6.1143" gradientTransform="matrix(-1 0 0 1 1280 0)">
			<stop  offset="0" style="stop-color:#9D7C90"/>
			<stop  offset="1" style="stop-color:#775477"/>
		</linearGradient>
		<polygon opacity="0.6" fill-rule="evenodd" clip-rule="evenodd" fill="url(#SVGID_3_)" points="982.011,-6.114 946.162,168.554 
			917.112,301.292 949.562,9.927 929.663,-6.114 		"/>
		
			<linearGradient id="SVGID_4_" gradientUnits="userSpaceOnUse" x1="117.9214" y1="731.1182" x2="117.9214" y2="-6.1138" gradientTransform="matrix(-1 0 0 1 1280 0)">
			<stop  offset="0" style="stop-color:#9D7C90"/>
			<stop  offset="1" style="stop-color:#775477"/>
		</linearGradient>
		<polygon opacity="0.6" fill-rule="evenodd" clip-rule="evenodd" fill="url(#SVGID_4_)" points="1040.932,731.118 
			1094.961,250.653 1114.99,-6.114 1134.217,-6.114 1100.569,281.345 1078.939,534.553 1094.961,609.752 1127.007,177.761 
			1163.858,-6.114 1177.478,-6.114 1129.409,429.433 1134.214,726.339 1161.375,724.946 1257.59,321.25 1283.226,177.761 
			1283.226,718.703 		"/>
		
			<linearGradient id="SVGID_5_" gradientUnits="userSpaceOnUse" x1="270.3809" y1="463.9248" x2="270.3808" y2="-10.9937" gradientTransform="matrix(-1 0 0 1 1280 0)">
			<stop  offset="0" style="stop-color:#9D7C90"/>
			<stop  offset="1" style="stop-color:#775477"/>
		</linearGradient>
		<polygon opacity="0.6" fill-rule="evenodd" clip-rule="evenodd" fill="url(#SVGID_5_)" points="1055.706,-10.994 991.617,321.25 
			963.532,463.925 1023.661,-6.114 		"/>
		
			<linearGradient id="SVGID_6_" gradientUnits="userSpaceOnUse" x1="415.7085" y1="745.3037" x2="415.7085" y2="301.2925" gradientTransform="matrix(-1 0 0 1 1280 0)">
			<stop  offset="0" style="stop-color:#9D7C90"/>
			<stop  offset="1" style="stop-color:#775477"/>
		</linearGradient>
		<polygon opacity="0.6" fill-rule="evenodd" clip-rule="evenodd" fill="url(#SVGID_6_)" points="834.596,745.304 845.011,668.062 
			902.69,398.848 917.112,301.292 887.57,424.85 811.471,742.875 		"/>
		
			<linearGradient id="SVGID_7_" gradientUnits="userSpaceOnUse" x1="165.6543" y1="728.9258" x2="165.6543" y2="168.5542" gradientTransform="matrix(-1 0 0 1 1280 0)">
			<stop  offset="0" style="stop-color:#9D7C90"/>
			<stop  offset="1" style="stop-color:#775477"/>
		</linearGradient>
		<polygon opacity="0.6" fill-rule="evenodd" clip-rule="evenodd" fill="url(#SVGID_7_)" points="1083.716,728.926 
			1093.987,605.178 1128.853,168.554 1144.976,288.382 1129.409,429.433 1114.348,458.59 1094.961,728.351 		"/>
		
			<linearGradient id="SVGID_8_" gradientUnits="userSpaceOnUse" x1="211.3789" y1="731.1182" x2="211.3789" y2="331.2007" gradientTransform="matrix(-1 0 0 1 1280 0)">
			<stop  offset="0" style="stop-color:#9D7C90"/>
			<stop  offset="1" style="stop-color:#775477"/>
		</linearGradient>
		<polygon opacity="0.6" fill-rule="evenodd" clip-rule="evenodd" fill="url(#SVGID_8_)" points="1040.932,731.118 
			1073.219,443.999 1096.311,331.2 1078.939,534.553 1061.307,730.074 		"/>
		
			<linearGradient id="SVGID_9_" gradientUnits="userSpaceOnUse" x1="287.5786" y1="734.1367" x2="287.5786" y2="497.7227" gradientTransform="matrix(-1 0 0 1 1280 0)">
			<stop  offset="0" style="stop-color:#9D7C90"/>
			<stop  offset="1" style="stop-color:#775477"/>
		</linearGradient>
		<polygon opacity="0.6" fill-rule="evenodd" clip-rule="evenodd" fill="url(#SVGID_9_)" points="982.011,734.137 982.011,720.238 
			1002.832,497.723 996.472,733.396 		"/>
	</g>
	<g>
		<polygon fill-rule="evenodd" clip-rule="evenodd" fill="none" points="1015.854,773.06 1082.605,788.984 1129.93,740.676 
			1190.808,749.22 1192.529,613.287 1192.191,607.438 1184.992,601.442 1194.333,243.082 1191.753,239.235 1187.622,236.53 
			1193.21,223.681 1174.598,194.064 1169.721,174.598 1152.867,165.127 1127.98,247.843 1130.561,251.689 1098.171,409.484 
			1096.596,410.185 1091.997,412.213 1052.427,636.542 1055.504,641.269 1060.93,649.664 1053.142,648.894 		"/>
		<polygon fill-rule="evenodd" clip-rule="evenodd" fill="none" points="1152.867,165.127 1169.721,174.598 1174.598,194.064 
			1193.21,223.681 1187.998,219.951 1179.742,209.111 1180.62,207.219 1176.028,198.738 1173.039,200.163 1177.986,212.896 
			1177.798,220.801 1175.862,228.106 1179.918,231.996 1187.622,236.53 1191.753,239.235 1194.333,243.082 1193.784,264.175 
			1192.487,313.91 1191.511,292.734 1191.861,286.023 1189.754,272.431 1184.133,265.892 1181.851,270.537 1181.499,282.697 
			1181.44,292.103 1177.928,333.857 1177.459,311.833 1178.63,312.751 1180.152,294.397 1179.918,286.138 1178.513,278.797 
			1174.883,279.829 1171.399,292.096 1169.755,341.88 1168.114,391.513 1166.921,330.645 1168.794,328.237 1168.794,323.763 
			1162.79,292.792 1160.598,289.809 1158.256,300.362 1152.867,307.474 1150.672,326.057 1143.501,356.8 1146.78,312.979 
			1150.672,313.439 1150.672,292.792 1149.121,259.755 1143.501,256.543 1135.977,261.59 1131.557,299.903 1129.449,319.634 
			1129.449,375.966 1132.26,391.513 1132.729,416.678 1142.33,371.253 1136.241,419.89 1132.025,437.043 1132.318,417.481 
			1131.089,417.652 1132.26,391.513 1127.107,393.965 1127.107,358.864 1127.107,341.657 1120.551,335.004 1111.823,342.976 
			1130.561,251.689 1127.98,247.843 		"/>
		<polygon opacity="0.6" fill-rule="evenodd" clip-rule="evenodd" fill="none" points="1055.504,641.269 1060.93,649.664 
			1094.093,639.021 1134.43,631.987 1141.637,627.851 1129.93,740.676 1190.808,749.22 1192.529,613.287 1192.191,607.438 
			1184.992,601.442 1194.333,243.082 1191.753,239.235 1187.622,236.53 1193.21,223.681 1174.598,194.064 1169.721,174.598 
			1162.594,174.994 1167.598,199.52 1177.798,220.801 1175.862,228.106 1166.439,241.443 1159.661,239.835 1134.637,251.209 
			1127.98,247.843 1130.561,251.689 1132.348,254.334 1156.362,243.797 1167.868,244.952 1172.775,250.485 1165.89,458.791 
			1157.035,462.049 1147.769,459.799 1125.975,444.206 1098.171,409.484 1096.054,409.476 1096.596,410.185 1122.985,445.174 
			1150.602,464.158 1163.441,467.181 1148.004,468.039 1135.301,621.385 1107.01,635.03 1093.545,637.572 1067.668,644.478 		"/>
		<polygon opacity="0.6" fill-rule="evenodd" clip-rule="evenodd" fill="none" points="1107.01,635.03 1134.43,631.987 
			1141.637,627.851 1129.93,740.676 1190.808,749.22 1192.191,607.438 1180.972,607.438 1166.305,608.605 1184.992,601.442 
			1194.333,243.082 1180.504,243.082 1170.667,243.082 1187.622,236.53 1193.21,223.681 1174.598,194.064 1167.598,199.52 
			1177.798,220.801 1175.862,228.106 1166.439,241.443 1159.661,239.835 1156.362,243.797 1167.868,244.952 1172.775,250.485 
			1165.89,458.791 1157.035,462.049 1147.769,459.799 1150.602,464.158 1163.441,467.181 1148.004,468.039 1135.301,621.385 		"/>
		<polygon fill-rule="evenodd" clip-rule="evenodd" fill="none" points="1163.441,467.181 1148.004,468.039 1138.506,467.181 
			1121.428,448.623 1109.66,429.524 1091.997,412.213 1096.596,410.185 1111.046,429.344 1124.919,446.504 1150.602,464.158 		"/>
		<polygon fill-rule="evenodd" clip-rule="evenodd" fill="none" points="1141.637,627.851 1136.241,638.066 1111.885,640.131 
			1073.302,649.079 1051.891,653.061 1053.806,647.014 1061.193,647.702 1073.302,645.693 1108.58,634.856 		"/>
		<polygon fill-rule="evenodd" clip-rule="evenodd" fill="none" points="1079.602,482.487 1084.786,512.804 1086.833,503.63 
			1096.764,461.909 1108.043,461.909 1093.822,618.835 1078.396,618.835 1078.396,579.249 1070.628,631.184 1055.504,641.269 
			1051.756,633.38 		"/>
		<polygon fill-rule="evenodd" clip-rule="evenodd" fill="none" points="1108.58,634.856 1116.687,569.24 1133.946,503.63 
			1138.506,503.63 1116.687,630.363 		"/>
		<polygon fill-rule="evenodd" clip-rule="evenodd" fill="none" points="1015.854,773.06 1051.891,653.061 1073.302,649.079 
			1062.938,682.086 1044.577,764.705 1040.281,766.771 1056.967,694.962 1055.504,691.063 1033.781,777.336 		"/>
		<polygon fill-rule="evenodd" clip-rule="evenodd" fill="none" points="1150.602,464.158 1165.89,458.791 1167.186,344.183 
			1163.441,330.645 1150.602,453.27 		"/>
	</g>
</g>
<g id="Capa_7_copia">
	<g id="Capa_2_copia_3">
		<g opacity="0.6">
			<polygon display="none" fill-rule="evenodd" clip-rule="evenodd" fill="#31025D" points="-163.103,-22.327 -163.103,-22.327 
				-266.553,75.087 -267.104,81.236 -233.766,54.898 -190.674,36.544 -189.549,39.576 -319.48,191.632 -423.931,247.935 
				-571.96,399.943 -571.96,346.802 -574.182,348.783 -571.96,281.333 -571.96,163.529 -571.96,141.16 -571.96,-91.452 
				-352.161,-91.452 -235.64,-91.452 -215.265,-91.452 -138.684,-91.452 -311.464,-20.681 -311.463,-20.682 -151.916,-66.235 
				-132.36,-62.105 -132.36,-52.47 -145.709,-38.705 			"/>
			<polygon fill-rule="evenodd" clip-rule="evenodd" fill="#52025D" points="-449.328,526.428 -443.123,522.471 -436.229,519.475 
				-408.355,771.07 768.458,728.926 862.245,376.739 875.187,362.678 929.663,-6.114 720.558,-65.758 592.021,-83.575 
				582.523,-20.22 578.233,-15.784 453.275,-92.191 489.943,-92.848 489.943,-92.848 509.899,-94.704 509.465,-93.197 
				593.69,-94.704 593.261,-91.846 775.034,-93.08 771.689,-91.452 789.713,-91.452 789.067,-93.08 810.139,-93.08 810.676,-91.452 
				825.494,-91.452 825.133,-92.656 845.741,-92.848 845.999,-91.452 891.762,-91.452 911.433,-91.452 1026.22,-91.452 
				1054.964,-95.83 1054.119,-91.452 1084.971,-91.452 1091.294,-91.452 1219.75,-91.452 1247.97,-91.452 1283.04,-91.452 
				1283.04,606.879 1282.483,607.662 1282.483,633.867 1280.789,633.955 1280.789,674.051 1280.789,687.254 1280.789,720.402 
				1159.027,720.402 1028.586,720.402 -342.275,720.402 -573.561,720.402 -573.561,657.188 -573.561,541.947 -573.561,538.137 
				-573.561,537.051 -573.561,531.084 -516.046,526.428 			"/>
		</g>
		<path fill-rule="evenodd" clip-rule="evenodd" fill="#31025D" d="M-366.358-10.994"/>
		<path fill-rule="evenodd" clip-rule="evenodd" fill="#31025D" d="M-444.354,58.605"/>
	</g>
</g>
<g id="Capa_7_copia_2" display="none">
	<g id="Capa_2_copia_4" display="inline">
		<g opacity="0.6">
			<polygon fill-rule="evenodd" clip-rule="evenodd" fill="#31025D" points="-163.103,-22.327 -163.103,-22.327 -266.553,75.087 
				-267.104,81.236 -233.766,54.898 -190.674,36.544 -189.549,39.576 -319.48,191.632 -423.931,247.935 -571.96,399.943 
				-571.96,346.802 -574.182,348.783 -571.96,281.333 -571.96,163.529 -571.96,141.16 -571.96,-91.452 -352.161,-91.452 
				-235.64,-91.452 -215.265,-91.452 -138.684,-91.452 -311.464,-20.681 -311.463,-20.682 -151.916,-66.235 -132.36,-62.105 
				-132.36,-52.47 -145.709,-38.705 			"/>
			<polygon fill-rule="evenodd" clip-rule="evenodd" fill="#31025D" points="232.614,54.209 232.064,65.222 232.064,65.222 
				228.731,131.982 228.731,131.984 228.399,138.646 225.12,166.396 219.968,166.396 219.968,135.548 204.979,108.583 
				189.055,18.65 148.305,8.556 138.469,1.214 104.744,-91.452 137.767,-91.452 179.986,-91.452 189.055,-91.452 257.439,-91.452 
				242.45,48.015 			"/>
			<path fill-rule="evenodd" clip-rule="evenodd" fill="#52025D" d="M-449.328,526.428l6.205-3.957l6.894-2.996l-3.119-0.236v-6.717
				l13.867-6.025c0,0,41.309,3.268,90.233,17.232l4.565-0.105l20.373,0.49l556.445-14.734l543.008,54.252l72.36-271.727
				l12.941-14.062l16.358-110.739l-20.704,11.223l-5.62-5.047l-19.674-32.119v-18.813l-19.672-57.354l7.026-6.424l-7.026,0.458
				L720.558-65.758L592.021-83.575l-9.498,63.355l-4.29,4.437l-9.836,126.592l2.811,16.565l-10.306,89.473l-5.151,5.507
				l-17.331,33.82h-6.089L492.519,59.464l-10.305-19.271L453.275-92.191l36.668-0.656l0,0l19.956-1.856l-0.435,1.507l84.226-1.507
				l-0.43,2.858l181.773-1.234l-3.345,1.628h18.023l-0.646-1.628h21.071l0.537,1.628h14.818l-0.361-1.204l20.608-0.192l0.258,1.396
				h45.763h19.671h114.787l28.744-4.378l-0.845,4.378h30.852h6.323h128.456h28.22h35.07v698.331l-0.557,0.783v26.205l-1.694,0.088
				v40.096v13.203v33.148h-121.762h-130.441H-342.275h-231.286v-63.215v-115.24v-3.811v-1.086v-5.967l57.514-4.656H-449.328z"/>
		</g>
	</g>
</g>
<g id="Capa_2" display="none">
	<g display="inline" opacity="0.6">
		<polygon fill-rule="evenodd" clip-rule="evenodd" fill="#31025D" points="-163.103,-22.327 -163.103,-22.327 -266.553,75.087 
			-267.104,81.236 -233.766,54.898 -190.674,36.544 -189.549,39.576 -319.48,191.632 -423.931,247.935 -571.96,399.943 
			-571.96,346.802 -574.182,348.783 -571.96,281.333 -571.96,163.529 -571.96,141.16 -571.96,-91.452 -352.161,-91.452 
			-235.64,-91.452 -215.265,-91.452 -138.684,-91.452 -311.464,-20.681 -311.463,-20.682 -151.916,-66.235 -132.36,-62.105 
			-132.36,-52.47 -145.709,-38.705 		"/>
		<polygon fill-rule="evenodd" clip-rule="evenodd" fill="#31025D" points="232.614,54.209 232.064,65.222 232.064,65.222 
			228.731,131.982 228.731,131.984 228.399,138.646 225.12,166.396 219.968,166.396 219.968,135.548 204.979,108.583 189.055,18.65 
			148.305,8.556 138.469,1.214 104.744,-91.452 137.767,-91.452 179.986,-91.452 189.055,-91.452 257.439,-91.452 242.45,48.015 		
			"/>
		<path fill-rule="evenodd" clip-rule="evenodd" fill="#52025D" d="M-449.328,526.428l6.205-3.957l6.894-2.996l-3.119-0.236v-6.717
			l13.867-6.025c0,0,41.309,3.268,90.233,17.232l4.565-0.105l20.373,0.49l556.445-14.734l543.008,54.252l72.36-271.727
			l12.941-14.062l16.358-110.739l-20.704,11.223l-5.62-5.047l-19.674-32.119v-18.813l-19.672-57.354l7.026-6.424l-7.026,0.458
			L720.558-65.758L592.021-83.575l-9.498,63.355l-4.29,4.437l-9.836,126.592l2.811,16.565l-10.306,89.473l-5.151,5.507
			l-17.331,33.82h-6.089L492.519,59.464l-10.305-19.271L453.275-92.191l36.668-0.656l0,0l19.956-1.856l-0.435,1.507l84.226-1.507
			l-0.43,2.858l181.773-1.234l-3.345,1.628h18.023l-0.646-1.628h21.071l0.537,1.628h14.818l-0.361-1.204l20.608-0.192l0.258,1.396
			h45.763h19.671h114.787l28.744-4.378l-0.845,4.378h30.852h6.323h128.456h28.22h35.07v698.331l-0.557,0.783v26.205l-1.694,0.088
			v40.096v13.203v33.148h-121.762h-130.441H-342.275h-231.286v-63.215v-115.24v-3.811v-1.086v-5.967l57.514-4.656H-449.328z"/>
	</g>
</g>
<g id="Capa_2_copia" display="none">
	<g display="inline" opacity="0.6">
		<polygon fill-rule="evenodd" clip-rule="evenodd" fill="none" points="-163.103,-22.327 -163.103,-22.327 -266.553,75.087 
			-267.104,81.236 -233.766,54.898 -190.674,36.544 -189.549,39.576 -319.48,191.632 -423.931,247.935 -571.96,399.943 
			-571.96,346.802 -574.182,348.783 -571.96,281.333 -571.96,163.529 -571.96,141.16 -571.96,-91.452 -352.161,-91.452 
			-235.64,-91.452 -215.265,-91.452 -138.684,-91.452 -311.464,-20.681 -311.463,-20.682 -151.916,-66.235 -132.36,-62.105 
			-132.36,-52.47 -145.709,-38.705 		"/>
		<polygon fill-rule="evenodd" clip-rule="evenodd" fill="none" points="232.614,54.209 232.064,65.222 232.064,65.222 
			228.731,131.982 228.731,131.984 228.399,138.646 225.12,166.396 219.968,166.396 219.968,135.548 204.979,108.583 189.055,18.65 
			148.305,8.556 138.469,1.214 104.744,-91.452 137.767,-91.452 179.986,-91.452 189.055,-91.452 257.439,-91.452 242.45,48.015 		
			"/>
		<path fill-rule="evenodd" clip-rule="evenodd" fill="none" d="M-449.328,526.428l6.205-3.957l6.894-2.996l-3.119-0.236v-6.717
			l13.867-6.025c0,0,41.309,3.268,90.233,17.232l4.565-0.105l20.373,0.49l556.445-14.734l543.008,54.252l72.36-271.727
			l12.941-14.062l16.358-110.739l-20.704,11.223l-5.62-5.047l-19.674-32.119v-18.813l-19.672-57.354l7.026-6.424l-7.026,0.458
			L720.558-65.758L592.021-83.575l-9.498,63.355l-4.29,4.437l-9.836,126.592l2.811,16.565l-10.306,89.473l-5.151,5.507
			l-17.331,33.82h-6.089L492.519,59.464l-10.305-19.271L453.275-92.191l36.668-0.656l0,0l19.956-1.856l-0.435,1.507l84.226-1.507
			l-0.43,2.858l181.773-1.234l-3.345,1.628h18.023l-0.646-1.628h21.071l0.537,1.628h14.818l-0.361-1.204l20.608-0.192l0.258,1.396
			h45.763h19.671h114.787l28.744-4.378l-0.845,4.378h30.852h6.323h128.456h28.22h35.07v698.331l-0.557,0.783v26.205l-1.694,0.088
			v40.096v13.203v33.148h-121.762h-130.441H-342.275h-231.286v-63.215v-115.24v-3.811v-1.086v-5.967l57.514-4.656H-449.328z"/>
	</g>
	<g id="Capa_5" display="inline">
	</g>
</g>
<g id="Capa_3" display="none" opacity="0.6">
	<polyline display="inline" fill-rule="evenodd" clip-rule="evenodd" fill="#31025D" points="929.663,-6.114 875.187,362.678 
		862.245,376.739 770.835,720 1283.226,718.703 1283.226,0 	"/>
</g>
</svg>
