<?xml version="1.0" encoding="utf-8"?>
<!-- Generator: Adobe Illustrator 16.0.3, SVG Export Plug-In . SVG Version: 6.00 Build 0)  -->
<!DOCTYPE svg PUBLIC "-//W3C//DTD SVG 1.1//EN" "http://www.w3.org/Graphics/SVG/1.1/DTD/svg11.dtd">
<svg version="1.1" id="Capa_1" xmlns="http://www.w3.org/2000/svg" xmlns:xlink="http://www.w3.org/1999/xlink" x="0px" y="0px"
	 width="1280px" height="720px" viewBox="0 0 1280 720" enable-background="new 0 0 1280 720" xml:space="preserve">
<g>
	<polygon fill-rule="evenodd" clip-rule="evenodd" fill="#2F112A" points="742.531,577.215 742.531,597.119 650.864,601.127 
		649.299,587.994 	"/>
	<g>
		
			<linearGradient id="SVGID_1_" gradientUnits="userSpaceOnUse" x1="578.9272" y1="653.4326" x2="578.9272" y2="600.3545" gradientTransform="matrix(-0.979 0.2037 0.2037 0.979 1176.1858 -145.1881)">
			<stop  offset="0" style="stop-color:#4A2836"/>
			<stop  offset="1" style="stop-color:#25091C"/>
		</linearGradient>
		<path fill-rule="evenodd" clip-rule="evenodd" fill="url(#SVGID_1_)" d="M777.809,605.074c0,0,12.84-1.311,13.879-16.342
			l-84.668-21.816l-11.561,1.112l-10.79,26.403l23.249,3.359L777.809,605.074z"/>
		<polygon fill-rule="evenodd" clip-rule="evenodd" fill="#9A4538" points="707.02,566.916 713.04,598.325 684.669,594.432 
			695.459,568.028 		"/>
		<path opacity="0.81" fill-rule="evenodd" clip-rule="evenodd" fill="#FFD6A1" d="M709.024,597.773c0,0-2.189-23.51-7.877-26.627
			c-5.688-3.118-13.538,23.688-13.538,23.688l1.503,0.346c0,0,5.868-22.806,10.91-22.978c5.042-0.173,7.896,25.588,7.896,25.588
			L709.024,597.773z"/>
		<path opacity="0.81" fill-rule="evenodd" clip-rule="evenodd" fill="#FFD6A1" d="M705.894,597.345c0,0-3.656-17.331-6.563-17.566
			c-2.906-0.234-7.993,15.415-7.993,15.415l1.158,0.368c0,0,3.87-13.908,5.979-14.338c2.107-0.429,6.332,16.121,6.332,16.121
			H705.894z"/>
	</g>
	
		<linearGradient id="SVGID_2_" gradientUnits="userSpaceOnUse" x1="641.998" y1="607.5732" x2="641.998" y2="563.125" gradientTransform="matrix(-1 0 0 1 1280 0)">
		<stop  offset="0" style="stop-color:#4A2836"/>
		<stop  offset="1" style="stop-color:#402738"/>
	</linearGradient>
	<path fill-rule="evenodd" clip-rule="evenodd" fill="url(#SVGID_2_)" d="M610.039,607.573l-12.828-3.992l62.586-40.456
		c0,0,11.917,0.8,18.996,3.293L610.039,607.573z"/>
	
		<linearGradient id="SVGID_3_" gradientUnits="userSpaceOnUse" x1="631.73" y1="612.8633" x2="631.73" y2="558.0537" gradientTransform="matrix(-1 0 0 1 1280 0)">
		<stop  offset="0" style="stop-color:#4A2836"/>
		<stop  offset="1" style="stop-color:#2A1A4A"/>
	</linearGradient>
	<path fill-rule="evenodd" clip-rule="evenodd" fill="url(#SVGID_3_)" d="M647.581,611.596c0,0-40.797,3.805-51.415-1.77
		l86.288-51.653c0,0,9.723-1.883,17.921,9.331L647.581,611.596z"/>
	<g>
		
			<linearGradient id="SVGID_4_" gradientUnits="userSpaceOnUse" x1="568.2832" y1="611.9326" x2="568.2832" y2="590.3203" gradientTransform="matrix(-1 0 0 1 1280 0)">
			<stop  offset="0" style="stop-color:#1E0E21"/>
			<stop  offset="1" style="stop-color:#4A2836"/>
		</linearGradient>
		<path fill-rule="evenodd" clip-rule="evenodd" fill="url(#SVGID_4_)" d="M780.026,608.61c0,0-5.179-10.774-16.987-15.598
			l-107.203-2.692c0,0-12.429,9.132-12.429,21.612L780.026,608.61z"/>
		<path fill-rule="evenodd" clip-rule="evenodd" fill="#815252" d="M655.836,590.32c0,0,14.92,1.396,21.442,20.789l-33.871,0.823
			C643.407,611.933,645.115,596.561,655.836,590.32z"/>
		<path fill-rule="evenodd" clip-rule="evenodd" fill="#723D3E" d="M672.927,611.172c0,0-8.744-15.524-15.693-15.524
			c-6.946,0-10.717,16.21-10.717,16.21l1.136-0.025c0,0,3.108-14.713,9.427-14.713s14.598,14.127,14.598,14.127L672.927,611.172z"/>
		<path fill-rule="evenodd" clip-rule="evenodd" fill="#723D3E" d="M664.743,611.414c0,0-4.557-7.863-7.872-7.863
			c-3.314,0-5.386,8.154-5.386,8.154l1.606-0.007c0,0,1.1-6.918,3.754-6.918c2.655,0,6.952,6.657,6.952,6.657L664.743,611.414z"/>
	</g>
	<path fill-rule="evenodd" clip-rule="evenodd" fill="#BF523C" d="M654.593,566.273l-57.382,37.308l60.904-36.963
		C658.115,566.618,655.666,566.273,654.593,566.273z"/>
	<polygon fill-rule="evenodd" clip-rule="evenodd" fill="#2F112A" points="700.375,567.504 674.431,589.171 675.833,584.927 
		668.989,582.62 638.003,592.327 653.691,584.927 651.485,579.915 641.613,582.62 682.454,558.173 687.609,556.866 691.337,553.77 
		707.02,555.26 709.024,557.596 700.375,564.475 	"/>
	<polygon fill-rule="evenodd" clip-rule="evenodd" fill="#2F112A" points="744.429,576.252 715.126,550.552 711.717,550.552 
		709.024,553.657 717.702,566.916 717.225,569.545 	"/>
	<polygon fill-rule="evenodd" clip-rule="evenodd" fill="#FF3B00" points="673.513,590.765 680.104,584.433 681.87,584.433 
		689.185,583.383 687.882,586.568 695.914,589.171 711.506,590.32 724.552,592.047 744.429,590.32 750.23,578.05 751.116,578.278 
		745.938,588.067 746.64,589.171 753.974,592.047 759.857,589.787 758.057,583.249 754.884,579.249 756.12,579.567 758.76,583.765 
		760.34,590.906 753.752,592.779 	"/>
	<path fill-rule="evenodd" clip-rule="evenodd" fill="#FF3B00" d="M713.04,610.239l17.191-9.112l23.303-2.802l22.813,4.763
		l0.528,0.665c0,0-16.938-4.853-25.449-4.502c-8.51,0.351-20.844,4.072-20.844,4.072s1.714,5.525,9.376,6.262l-2.994,0.162
		l-5.62-3.613c0,0-1.873-2.27-4.215-1.852c-2.343,0.418-12.413,5.957-12.413,5.957H713.04z"/>
	<path fill-rule="evenodd" clip-rule="evenodd" fill="#FF3B00" d="M765.803,582.063c0,0,16.833,8.361,21.609,17.834l0.382-0.454
		c0,0-6.919-10.682-19.677-16.784L765.803,582.063z"/>
	<path fill-rule="evenodd" clip-rule="evenodd" fill="#FF3B00" d="M638.003,611.933c0,0-1.976-5.823-4.961-9.597
		c-2.986-3.772-16.026-4.991-16.026-4.991l0.462-0.276c0,0,11.993,1.953,13.28,2.183c1.288,0.229,0.942-10.696,0.942-10.696
		l0.798-0.478c0,0,0.427,10.102,1.246,11.929s11.285,5.068,11.285,5.068s-1.445,4.974-1.622,6.858H638.003z"/>
	<path fill-rule="evenodd" clip-rule="evenodd" fill="#FF3B00" d="M608.678,602.336c0,0,2.583,5.154,3.754,10.527h-1.877
		c0,0,0.292-5.862-3.206-9.732L608.678,602.336z"/>
	<polygon fill-rule="evenodd" clip-rule="evenodd" fill="#FF8D00" points="698.316,591.388 697.172,589.264 688.516,586.774 
		677.278,589.081 673.513,590.765 	"/>
	<polygon fill-rule="evenodd" clip-rule="evenodd" fill="#FFBA00" points="733.861,601.127 730.202,603.295 730.027,604.098 
		725.665,604.282 722.914,605.416 730.349,601.373 	"/>
	<polygon fill-rule="evenodd" clip-rule="evenodd" fill="#FFBA00" points="735.662,601.127 736.979,600.713 739.57,600.713 	"/>
	<polygon fill-rule="evenodd" clip-rule="evenodd" fill="#FFBA00" points="746.509,591.388 745.41,590.992 739.57,591.189 
		740.097,592.327 745.322,592.327 	"/>
	<polygon fill-rule="evenodd" clip-rule="evenodd" fill="#FFBA00" points="749.229,590.992 748.029,591.337 746.244,590.32 
		746.244,589.616 748.089,590.018 	"/>
	<polygon fill-rule="evenodd" clip-rule="evenodd" fill="#FFBA00" points="749.229,591.66 748.997,591.66 748.528,592.26 
		749.229,592.26 	"/>
	<polygon fill-rule="evenodd" clip-rule="evenodd" fill="#FFBA00" points="698.316,591.388 695.914,589.171 691.041,588.56 
		687.609,591.388 	"/>
	<polygon fill-rule="evenodd" clip-rule="evenodd" fill="#FFBA00" points="643.906,607.573 641.355,604.282 637.257,604.282 
		640.582,612.134 643.407,611.933 	"/>
	<polygon fill-rule="evenodd" clip-rule="evenodd" fill="#FFBA00" points="635.97,603.551 634.915,602.336 632.676,601.935 
		634.798,603.581 	"/>
	<polygon fill-rule="evenodd" clip-rule="evenodd" fill="#2F112A" points="695.914,613.998 689.248,605.074 684.669,601.935 
		664.743,605.074 653.691,614.397 687.609,614.397 	"/>
	<polygon fill-rule="evenodd" clip-rule="evenodd" fill="#FF3B00" points="705.894,555.152 700.375,564.475 709.024,557.596 
		707.02,555.26 	"/>
	<polygon fill-rule="evenodd" clip-rule="evenodd" fill="#983B00" points="715.126,550.552 720.336,565.06 717.702,566.916 
		709.024,553.657 711.717,550.552 	"/>
	<g display="none">
		
			<radialGradient id="SVGID_5_" cx="492.8472" cy="1024.9277" r="92.1296" gradientTransform="matrix(-0.9889 0 0 0.5742 1180.8322 -0.0879)" gradientUnits="userSpaceOnUse">
			<stop  offset="0" style="stop-color:#FF7C07"/>
			<stop  offset="0.1244" style="stop-color:#CF6506"/>
			<stop  offset="0.3042" style="stop-color:#914704"/>
			<stop  offset="0.4768" style="stop-color:#5D2D03"/>
			<stop  offset="0.6372" style="stop-color:#351A01"/>
			<stop  offset="0.7827" style="stop-color:#180C01"/>
			<stop  offset="0.9084" style="stop-color:#060300"/>
			<stop  offset="1" style="stop-color:#000000"/>
		</radialGradient>
		
			<ellipse display="inline" opacity="0.5" fill-rule="evenodd" clip-rule="evenodd" fill="url(#SVGID_5_)" cx="693.456" cy="588.426" rx="91.104" ry="52.902"/>
		
			<radialGradient id="SVGID_6_" cx="495.6445" cy="1024.3203" r="157.6768" gradientTransform="matrix(-0.9889 0 0 0.5742 1180.8322 -0.0879)" gradientUnits="userSpaceOnUse">
			<stop  offset="0" style="stop-color:#FF0000"/>
			<stop  offset="0.2218" style="stop-color:#BC0000"/>
			<stop  offset="0.5044" style="stop-color:#6C0000"/>
			<stop  offset="0.7375" style="stop-color:#320000"/>
			<stop  offset="0.9088" style="stop-color:#0E0000"/>
			<stop  offset="1" style="stop-color:#000000"/>
		</radialGradient>
		
			<ellipse display="inline" opacity="0.5" fill-rule="evenodd" clip-rule="evenodd" fill="url(#SVGID_6_)" cx="690.689" cy="588.077" rx="155.92" ry="90.541"/>
	</g>
	<path fill-rule="evenodd" clip-rule="evenodd" fill="#FFBF00" d="M687.164,502.535c0.343,0.566,0.687,1.132,1.03,1.699
		c-0.872,0.933-2.585,0.982-3.429,0.027c-0.846-0.956-0.453-2.711,0.763-3.139c1.214-0.429,2.698,0.828,2.35,2.046L687.164,502.535z
		"/>
	<path fill-rule="evenodd" clip-rule="evenodd" fill="#FFBF00" d="M704.588,543.444c0.083-0.186,0.117-0.377,0.101-0.575
		c-1.181-0.571-3,0.952-1.715,2.069c0.43,0.373,1.495,0.588,1.915,0c0.411-0.575-0.376-1.013-0.184-1.608L704.588,543.444z"/>
	<path fill-rule="evenodd" clip-rule="evenodd" fill="#FFBF00" d="M697.797,542.757c-0.409,0.074-0.778,0.225-1.109,0.452
		c0.47,0.344,1.623,0.095,1.319-0.659c-0.295-0.73-1.465-0.21-1.147,0.437L697.797,542.757z"/>
	<path fill-rule="evenodd" clip-rule="evenodd" fill="#FFBF00" d="M734.447,519.472c0.137,1.031-0.834,1.144-1.621,1.015
		c-0.197-1.043,0.782-2.406,1.738-2.801c0.459,0.495,0.208,1.211-0.235,1.671L734.447,519.472z"/>
	<path fill-rule="evenodd" clip-rule="evenodd" fill="#FFBF00" d="M664.071,523.027c-0.554-1.14-1.325-0.067-1.087,0.688
		c0.198,0.63,1.2,1.165,1.806,1.266c2.327,0.387,0.74-1.964-0.601-2.298L664.071,523.027z"/>
	<path fill-rule="evenodd" clip-rule="evenodd" fill="#FFBF00" d="M669.341,493.547c0.104,0.43,0.034,0.74-0.339,0.937
		c-1.618-0.695,0.162-3.512,0.573-0.822L669.341,493.547z"/>
	<path fill-rule="evenodd" clip-rule="evenodd" fill="#FFBF00" d="M688.077,552.507c-0.356-1.394-2.374-1.408-1.865,0.061
		c0.298,0.855,1.211,0.72,1.631,0.054L688.077,552.507z"/>
	
		<linearGradient id="SVGID_7_" gradientUnits="userSpaceOnUse" x1="620.4468" y1="564.4746" x2="620.4468" y2="254.6079" gradientTransform="matrix(-1 0 0 1 1280 0)">
		<stop  offset="0" style="stop-color:#A18C89"/>
		<stop  offset="0.2825" style="stop-color:#6B5D5B"/>
		<stop  offset="0.6182" style="stop-color:#322B2A"/>
		<stop  offset="0.8673" style="stop-color:#0E0C0C"/>
		<stop  offset="1" style="stop-color:#000000"/>
	</linearGradient>
	<path display="none" opacity="0.5" fill-rule="evenodd" clip-rule="evenodd" fill="url(#SVGID_7_)" d="M700.375,564.475
		c0,0-20.192-11.77,2.158-31.086c1.558-1.346,36.372-28.256,39.998-35.828c3.626-7.57,16.513-41.003-38.76-38.224
		c0,0,5.641-2.375,6.481-8.899c0.424-3.291-4.06-7.248-4.06-7.248s29.601-19.156,33.377-42.442s-14.321-61.025-60.777-65.729
		c-46.454-4.703-33.31-23.63-5.28-30.513c28.03-6.883,30.813-34.413,5.534-49.898c0,0-4.354,36.382-25.355,52.948
		c-21.001,16.565-79.534,47.073-81.006,73.803c-1.472,26.73,88.787,37.503,95.648,64.637c6.862,27.133-36.81,52.463-31.309,79.028
		C642.526,551.59,700.375,564.475,700.375,564.475z"/>
</g>
</svg>
