<?xml version="1.0" encoding="utf-8"?>
<!-- Generator: Adobe Illustrator 16.0.3, SVG Export Plug-In . SVG Version: 6.00 Build 0)  -->
<!DOCTYPE svg PUBLIC "-//W3C//DTD SVG 1.1//EN" "http://www.w3.org/Graphics/SVG/1.1/DTD/svg11.dtd">
<svg version="1.1" id="Capa_1" xmlns="http://www.w3.org/2000/svg" xmlns:xlink="http://www.w3.org/1999/xlink" x="0px" y="0px"
	 width="1280px" height="720px" viewBox="0 0 1280 720" enable-background="new 0 0 1280 720" xml:space="preserve">
<g id="_x31_">
	
		<linearGradient id="SVGID_1_" gradientUnits="userSpaceOnUse" x1="357.5122" y1="747.084" x2="357.5122" y2="536.0605" gradientTransform="matrix(-1 0 0 1 1280 0)">
		<stop  offset="0" style="stop-color:#6A625E"/>
		<stop  offset="1" style="stop-color:#695C69"/>
	</linearGradient>
	<polygon fill-rule="evenodd" clip-rule="evenodd" fill="url(#SVGID_1_)" points="-4.687,557.764 -4.687,747.084 1849.662,747.084 
		1849.662,645.412 1405.176,595.023 815.008,536.061 	"/>
	
		<linearGradient id="SVGID_2_" gradientUnits="userSpaceOnUse" x1="-569.6621" y1="663.8184" x2="738.0605" y2="663.8184" gradientTransform="matrix(-1 0 0 1 1280 0)">
		<stop  offset="0" style="stop-color:#9D7C90"/>
		<stop  offset="1" style="stop-color:#775477"/>
	</linearGradient>
	<polygon opacity="0.6" fill-rule="evenodd" clip-rule="evenodd" fill="url(#SVGID_2_)" points="570.511,580.553 644.516,585.979 
		818.275,604.971 888.779,595.023 1061.027,589.01 876.133,598.277 815.77,608.588 818.275,610.938 930.701,629.025 
		946.156,629.025 1027.891,617.088 1122.738,615.82 1235.152,609.854 1245.455,604.789 1184.039,594.482 1289.662,609.854 
		1735.336,632.451 1478.537,632.643 1283.865,615.279 1191.592,615.008 954.588,632.643 940.244,632.643 1029.063,660.494 
		1147.33,668.453 1338.432,689.072 1405.176,692.869 1849.662,700.732 1849.662,713.936 1040.492,680.391 992.059,683.283 
		1048.395,728.799 1727.9,747.084 1597.459,747.084 1052.949,732.479 992.059,683.283 1027.891,668.092 791.873,609.854 
		541.94,581.961 	"/>
	<polygon fill-rule="evenodd" clip-rule="evenodd" fill="#88A2F8" points="779.875,560.748 562.431,576.508 437.022,580.553 
		588.757,578.533 628.59,580.553 294.631,585.979 62.624,566.537 -4.687,564.818 -4.687,557.764 52.827,553.109 119.545,553.109 
		125.75,549.152 145.968,540.365 224.848,549.445 226.598,550.574 238.191,550.303 322.735,552.338 402.829,552.896 
		500.253,553.109 	"/>
	<polygon fill-rule="evenodd" clip-rule="evenodd" fill="#88A2F8" points="-4.687,563.732 -4.687,747.084 1100.787,746.506 
		839.6,740.438 925.08,738.633 992.059,730.309 1052.949,732.479 1027.891,712.232 992.059,683.283 1033.277,680.391 
		1027.891,668.092 791.873,609.854 541.94,581.961 	"/>
	
		<linearGradient id="SVGID_3_" gradientUnits="userSpaceOnUse" x1="655.6357" y1="757.3057" x2="639.1242" y2="595.3344" gradientTransform="matrix(-1 0 0 1 1280 0)">
		<stop  offset="0" style="stop-color:#382C44"/>
		<stop  offset="1" style="stop-color:#594C4C"/>
	</linearGradient>
	<polygon fill-rule="evenodd" clip-rule="evenodd" fill="url(#SVGID_3_)" points="811.496,622.875 795.805,614.193 600.006,591.033 
		477.77,583.266 468.403,585.979 468.403,593.574 500.253,609.854 	"/>
	
		<linearGradient id="SVGID_4_" gradientUnits="userSpaceOnUse" x1="619.0645" y1="747.9336" x2="603.5596" y2="595.8378" gradientTransform="matrix(-1 0 0 1 1280 0)">
		<stop  offset="0" style="stop-color:#382C44"/>
		<stop  offset="1" style="stop-color:#594C4C"/>
	</linearGradient>
	<path fill-rule="evenodd" clip-rule="evenodd" fill="url(#SVGID_4_)" d="M978.945,671.709l-6.324-6.33l-258.832-42.504
		l-165.74-7.596c0,0-135.619-4.342-152.48-4.342c-16.862,0-31.266,3.527-31.266,3.527l151.412,33.369
		c0,0,148.472,20.258,170.488,20.258c22.014,0,238.877,7.232,238.877,7.232L978.945,671.709z"/>
	
		<linearGradient id="SVGID_5_" gradientUnits="userSpaceOnUse" x1="519.9746" y1="761.502" x2="503.2687" y2="597.6243" gradientTransform="matrix(-1 0 0 1 1280 0)">
		<stop  offset="0" style="stop-color:#382C44"/>
		<stop  offset="1" style="stop-color:#594C4C"/>
	</linearGradient>
	<path fill-rule="evenodd" clip-rule="evenodd" fill="url(#SVGID_5_)" d="M842.41,688.709c0,0-6.203,3.979-36.24,3.979
		s-87.18-3.979-87.18-3.979l-9.975-3.615l-14.873-12.662l6.102-2.352l100.52,6.035C800.764,676.115,836.027,683.781,842.41,688.709z
		"/>
	
		<linearGradient id="SVGID_6_" gradientUnits="userSpaceOnUse" x1="-13.1245" y1="625.3584" x2="-17.3375" y2="584.0306" gradientTransform="matrix(-1 0 0 1 1280 0)">
		<stop  offset="0" style="stop-color:#9D7C90"/>
		<stop  offset="1" style="stop-color:#775477"/>
	</linearGradient>
	<polygon opacity="0.5" fill-rule="evenodd" clip-rule="evenodd" fill="url(#SVGID_6_)" points="1405.176,595.023 1245.455,598.639 
		1235.217,603.07 1289.662,609.854 1316.541,618.193 1325.064,612.191 1364.426,614.793 1369.033,622.875 1283.865,615.279 
		1191.592,615.008 1186.242,612.449 1235.152,609.854 1245.455,604.789 1187.258,595.023 	"/>
	
		<linearGradient id="SVGID_7_" gradientUnits="userSpaceOnUse" x1="296.855" y1="682.374" x2="289.0125" y2="605.4426" gradientTransform="matrix(-1 0 0 1 1280 0)">
		<stop  offset="0" style="stop-color:#9D7C90"/>
		<stop  offset="1" style="stop-color:#775477"/>
	</linearGradient>
	<polygon opacity="0.5" fill-rule="evenodd" clip-rule="evenodd" fill="url(#SVGID_7_)" points="888.779,595.023 876.133,598.277 
		815.77,608.588 818.275,610.938 930.701,629.025 946.156,629.025 946.156,632.643 940.244,632.643 1029.063,660.494 
		1040.492,680.391 1235.299,687.014 1238.648,678.307 1333.014,688.486 1333.014,692.518 1037.762,680.553 992.059,683.283 
		1027.891,668.092 791.873,609.854 641.35,593.055 705.875,591.033 718.053,593.574 803.768,603.07 818.275,604.971 	"/>
	
		<linearGradient id="SVGID_8_" gradientUnits="userSpaceOnUse" x1="135.9727" y1="741.7627" x2="134.2397" y2="724.7629" gradientTransform="matrix(-1 0 0 1 1280 0)">
		<stop  offset="0" style="stop-color:#9D7C90"/>
		<stop  offset="1" style="stop-color:#775477"/>
	</linearGradient>
	<polygon opacity="0.5" fill-rule="evenodd" clip-rule="evenodd" fill="url(#SVGID_8_)" points="1241.414,737.533 1234.467,733.807 
		1048.395,728.799 1052.949,732.479 	"/>
	<polygon fill-rule="evenodd" clip-rule="evenodd" fill="#907F82" points="930.701,629.025 946.156,629.025 1027.891,617.088 
		1122.738,615.82 1235.152,609.854 1245.455,604.789 1187.258,595.023 1078.213,588.188 880.348,597.916 815.77,608.588 
		818.275,610.938 	"/>
	
		<linearGradient id="SVGID_9_" gradientUnits="userSpaceOnUse" x1="260.7515" y1="633.4854" x2="259.0082" y2="616.3845" gradientTransform="matrix(-1 0 0 1 1280 0)">
		<stop  offset="0" style="stop-color:#9D7C90"/>
		<stop  offset="1" style="stop-color:#775477"/>
	</linearGradient>
	<polygon opacity="0.5" fill-rule="evenodd" clip-rule="evenodd" fill="url(#SVGID_9_)" points="1053.215,625.305 1027.891,617.088 
		987.182,623.033 987.182,630.217 	"/>
	
		<linearGradient id="SVGID_10_" gradientUnits="userSpaceOnUse" x1="213.5103" y1="624.4932" x2="212.6573" y2="616.1263" gradientTransform="matrix(-1 0 0 1 1280 0)">
		<stop  offset="0" style="stop-color:#9D7C90"/>
		<stop  offset="1" style="stop-color:#775477"/>
	</linearGradient>
	<polygon opacity="0.5" fill-rule="evenodd" clip-rule="evenodd" fill="url(#SVGID_10_)" points="1065.479,624.391 1058.453,616.68 
		1071.104,616.51 1075.41,623.652 	"/>
	<polygon fill-rule="evenodd" clip-rule="evenodd" fill="#725C60" points="818.275,604.971 888.779,595.023 1053.215,588.771 
		878.254,588.771 709.016,591.689 718.053,593.574 	"/>
	<polygon fill-rule="evenodd" clip-rule="evenodd" fill="#907F82" points="992.059,683.283 1040.492,680.391 1581.063,702.121 
		1475.385,740.289 1048.395,728.799 	"/>
	<polygon fill-rule="evenodd" clip-rule="evenodd" fill="#725C60" points="1735.336,632.451 1313.842,611.451 1265.129,606.797 
		1187.258,595.023 1405.176,595.023 1624.045,618.625 	"/>
	
		<linearGradient id="SVGID_11_" gradientUnits="userSpaceOnUse" x1="301.0547" y1="653.8164" x2="924.127" y2="653.8164" gradientTransform="matrix(-1 0 0 1 1280 0)">
		<stop  offset="0" style="stop-color:#9D7C90"/>
		<stop  offset="1" style="stop-color:#775477"/>
	</linearGradient>
	<path opacity="0.5" fill-rule="evenodd" clip-rule="evenodd" fill="url(#SVGID_11_)" d="M387.594,610.938l167.46,37.982
		l316.161,21.16l101.406-4.701l6.324,6.33l-52.693,8.682l-75.178,0.994l3.279,8.41l-62.48,6.9l-82.857-6.443
		c0,0-95.376-27.004-121.642-30.842c-26.267-3.838-231.5-30.566-231.5-30.566l2.77-13.893L387.594,610.938z"/>
	
		<linearGradient id="SVGID_12_" gradientUnits="userSpaceOnUse" x1="849.5068" y1="729.5459" x2="834.3525" y2="580.8879" gradientTransform="matrix(-1 0 0 1 1280 0)">
		<stop  offset="0" style="stop-color:#382C44"/>
		<stop  offset="1" style="stop-color:#594C4C"/>
	</linearGradient>
	<path fill-rule="evenodd" clip-rule="evenodd" fill="url(#SVGID_12_)" d="M729.998,708.063l6.928-9.225
		c0,0-90.535-28.395-121.215-34.363c-30.679-5.971-229.627-35.631-259.837-35.631c-30.211,0-145.083,5.244-170.844,14.289
		c-25.762,9.043-52.929,38.252-52.929,38.252l18.736,11.303c0,0,180.797,43.41,232.788,47.75
		C435.616,744.777,729.998,708.063,729.998,708.063z"/>
	
		<linearGradient id="SVGID_13_" gradientUnits="userSpaceOnUse" x1="543.0742" y1="693.8506" x2="1167.5703" y2="693.8506" gradientTransform="matrix(-1 0 0 1 1280 0)">
		<stop  offset="0" style="stop-color:#9D7C90"/>
		<stop  offset="1" style="stop-color:#775477"/>
	</linearGradient>
	<path opacity="0.5" fill-rule="evenodd" clip-rule="evenodd" fill="url(#SVGID_13_)" d="M172.209,649.086
		c0,0-28.398,22.262-28.398,26.238c0,3.98,190.633,50.645,259.018,57.154c68.385,6.512,334.097-33.641,334.097-33.641l-6.928,9.225
		c0,0-232.554,39.248-353.867,36.354s-263.702-59.598-263.702-59.598l3.279-9.494l69.322-32.191L172.209,649.086z"/>
	
		<linearGradient id="SVGID_14_" gradientUnits="userSpaceOnUse" x1="468.5039" y1="604.4268" x2="811.5977" y2="604.4268" gradientTransform="matrix(-1 0 0 1 1280 0)">
		<stop  offset="0" style="stop-color:#9D7C90"/>
		<stop  offset="1" style="stop-color:#775477"/>
	</linearGradient>
	<polygon opacity="0.5" fill-rule="evenodd" clip-rule="evenodd" fill="url(#SVGID_14_)" points="795.805,614.193 577.186,610.938 
		495.687,604.971 468.403,585.979 468.403,593.574 500.253,609.854 811.496,622.875 	"/>
	<path fill-rule="evenodd" clip-rule="evenodd" fill="#A29396" d="M615.71,664.475l-7.261,32.221c0,0-99.007,44.434-220.855,33.965
		c-150.703-12.947-200.34-82.555-200.34-82.555s161.075-20.117,173.779-19.08C373.739,630.061,615.71,664.475,615.71,664.475z"/>
	
		<linearGradient id="SVGID_15_" gradientUnits="userSpaceOnUse" x1="1101.1855" y1="574.834" x2="1096.6602" y2="530.4415" gradientTransform="matrix(-1 0 0 1 1280 0)">
		<stop  offset="0" style="stop-color:#382C44"/>
		<stop  offset="1" style="stop-color:#594C4C"/>
	</linearGradient>
	<path fill-rule="evenodd" clip-rule="evenodd" fill="url(#SVGID_15_)" d="M234.209,550.574H191l-61.476-4.654v-6.717l13.867-6.025
		C143.392,533.178,185.03,536.467,234.209,550.574z"/>
	<path fill-rule="evenodd" clip-rule="evenodd" fill="#755559" d="M608.45,696.695l44.212,14.045l84.264-11.902
		c0,0-86.906-27.221-121.215-34.363L608.45,696.695z"/>
	<polygon fill-rule="evenodd" clip-rule="evenodd" fill="#755559" points="713.789,622.875 852.246,660.494 917.234,667.947 
		972.621,665.379 	"/>
	
		<linearGradient id="SVGID_16_" gradientUnits="userSpaceOnUse" x1="841.4443" y1="556.7188" x2="841.4443" y2="550.5742" gradientTransform="matrix(-1 0 0 1 1280 0)">
		<stop  offset="0" style="stop-color:#9D7C90"/>
		<stop  offset="1" style="stop-color:#775477"/>
	</linearGradient>
	<polygon opacity="0.6" fill-rule="evenodd" clip-rule="evenodd" fill="url(#SVGID_16_)" points="226.598,550.574 247.793,554.957 
		650.512,556.719 500.253,553.109 	"/>
	
		<linearGradient id="SVGID_17_" gradientUnits="userSpaceOnUse" x1="1178.7041" y1="568.627" x2="1178.7041" y2="546.3926" gradientTransform="matrix(-1 0 0 1 1280 0)">
		<stop  offset="0" style="stop-color:#9D7C90"/>
		<stop  offset="1" style="stop-color:#775477"/>
	</linearGradient>
	<polygon opacity="0.6" fill-rule="evenodd" clip-rule="evenodd" fill="url(#SVGID_17_)" points="132.101,546.393 132.101,553.109 
		192.524,555.432 147.564,555.254 132.101,555.508 112.429,555.832 83.57,561.742 116.645,564.818 207.278,568.627 -4.687,568.627 
		-4.687,557.764 52.827,553.109 119.545,553.109 125.75,549.152 	"/>
	
		<linearGradient id="SVGID_18_" gradientUnits="userSpaceOnUse" x1="1112.3574" y1="603.0703" x2="1112.3574" y2="593.5742" gradientTransform="matrix(-1 0 0 1 1280 0)">
		<stop  offset="0" style="stop-color:#9D7C90"/>
		<stop  offset="1" style="stop-color:#775477"/>
	</linearGradient>
	<polygon opacity="0.3" fill-rule="evenodd" clip-rule="evenodd" fill="url(#SVGID_18_)" points="339.971,603.07 145.968,593.574 
		-4.687,603.07 	"/>
	
		<linearGradient id="SVGID_19_" gradientUnits="userSpaceOnUse" x1="1159.959" y1="628.8438" x2="1159.959" y2="623.6523" gradientTransform="matrix(-1 0 0 1 1280 0)">
		<stop  offset="0" style="stop-color:#9D7C90"/>
		<stop  offset="1" style="stop-color:#775477"/>
	</linearGradient>
	<polygon opacity="0.3" fill-rule="evenodd" clip-rule="evenodd" fill="url(#SVGID_19_)" points="187.254,624.391 112.429,623.652 
		52.827,628.844 	"/>
	
		<linearGradient id="SVGID_20_" gradientUnits="userSpaceOnUse" x1="1169.0439" y1="747.084" x2="1169.0439" y2="683.8691" gradientTransform="matrix(-1 0 0 1 1280 0)">
		<stop  offset="0" style="stop-color:#9D7C90"/>
		<stop  offset="1" style="stop-color:#775477"/>
	</linearGradient>
	<polygon opacity="0.3" fill-rule="evenodd" clip-rule="evenodd" fill="url(#SVGID_20_)" points="-4.687,683.869 184.444,727.848 
		77.3,716.336 226.598,747.084 -4.687,747.084 	"/>
	
		<linearGradient id="SVGID_21_" gradientUnits="userSpaceOnUse" x1="448.9966" y1="740.4375" x2="448.9966" y2="712.2324" gradientTransform="matrix(-1 0 0 1 1280 0)">
		<stop  offset="0" style="stop-color:#9D7C90"/>
		<stop  offset="1" style="stop-color:#775477"/>
	</linearGradient>
	<polygon opacity="0.3" fill-rule="evenodd" clip-rule="evenodd" fill="url(#SVGID_21_)" points="1027.891,712.232 
		1030.611,721.627 976.252,721.627 871.215,728.799 609.057,740.438 839.6,740.438 925.08,738.633 992.059,730.309 
		1052.949,732.479 	"/>
	
		<linearGradient id="SVGID_22_" gradientUnits="userSpaceOnUse" x1="512.9312" y1="740.4375" x2="512.9312" y2="726.334" gradientTransform="matrix(-1 0 0 1 1280 0)">
		<stop  offset="0" style="stop-color:#9D7C90"/>
		<stop  offset="1" style="stop-color:#775477"/>
	</linearGradient>
	<polygon opacity="0.5" fill-rule="evenodd" clip-rule="evenodd" fill="url(#SVGID_22_)" points="925.08,738.633 904.236,726.334 
		858.121,729.379 609.057,740.438 846.867,740.283 	"/>
	<polygon fill-rule="evenodd" clip-rule="evenodd" fill="#88A2F8" points="1422.037,627.604 1133.98,667.555 1147.33,668.453 
		1313.842,660.494 1211.029,675.324 1219.85,676.277 1450.012,654.584 1464.193,653.246 1436.09,660.494 1332.898,675.324 
		1634.045,647.408 1561.77,630.031 	"/>
	
		<linearGradient id="SVGID_23_" gradientUnits="userSpaceOnUse" x1="-6.4404" y1="668.4531" x2="-6.4404" y2="649.4629" gradientTransform="matrix(-1 0 0 1 1280 0)">
		<stop  offset="0" style="stop-color:#9D7C90"/>
		<stop  offset="1" style="stop-color:#775477"/>
	</linearGradient>
	<polygon opacity="0.3" fill-rule="evenodd" clip-rule="evenodd" fill="url(#SVGID_23_)" points="1147.33,668.453 1317.705,657.602 
		1425.551,649.463 1313.842,660.494 	"/>
	
		<linearGradient id="SVGID_24_" gradientUnits="userSpaceOnUse" x1="-132.502" y1="676.2773" x2="-132.502" y2="640.2617" gradientTransform="matrix(-1 0 0 1 1280 0)">
		<stop  offset="0" style="stop-color:#9D7C90"/>
		<stop  offset="1" style="stop-color:#775477"/>
	</linearGradient>
	<polygon opacity="0.3" fill-rule="evenodd" clip-rule="evenodd" fill="url(#SVGID_24_)" points="1219.85,676.277 1362.465,660.494 
		1605.154,640.262 1478.537,653.246 1464.193,653.246 	"/>
	
		<linearGradient id="SVGID_25_" gradientUnits="userSpaceOnUse" x1="-203.4717" y1="675.3242" x2="-203.4717" y2="643.1016" gradientTransform="matrix(-1 0 0 1 1280 0)">
		<stop  offset="0" style="stop-color:#9D7C90"/>
		<stop  offset="1" style="stop-color:#775477"/>
	</linearGradient>
	<polygon opacity="0.3" fill-rule="evenodd" clip-rule="evenodd" fill="url(#SVGID_25_)" points="1332.898,675.324 
		1616.635,643.102 1634.045,647.408 	"/>
	<polygon fill-rule="evenodd" clip-rule="evenodd" fill="#B59AA0" points="515.715,647.834 318.899,719.68 318.899,729.895 
		302.458,726.598 298.938,715.477 509.753,646.521 	"/>
	<polygon fill-rule="evenodd" clip-rule="evenodd" fill="#92959B" points="465.373,641.572 219.69,675.324 186.884,688.207 
		185.03,700.732 150.837,692.688 143.811,675.324 192.524,655.408 440.819,638.215 	"/>
	<polygon fill-rule="evenodd" clip-rule="evenodd" fill="#92959B" points="713.789,622.875 468.403,628.844 465.373,636.738 
		381.869,617.721 387.594,610.938 615.71,618.379 	"/>
	<polygon fill-rule="evenodd" clip-rule="evenodd" fill="#92959B" points="1119.654,683.572 1115.627,666.32 1312.201,617.807 
		1297.676,616.51 1106.215,665.955 1106.383,682.631 1065.361,681.234 1061.379,662.67 1184.039,615.57 1171.389,616.51 
		1052.949,662.102 1058.23,680.992 	"/>
	<polygon fill-rule="evenodd" clip-rule="evenodd" fill="#92959B" points="1414.133,695.881 1153.967,729.879 1098.238,728.799 
		1384.266,694.641 	"/>
	<polygon fill-rule="evenodd" clip-rule="evenodd" fill="#B59AA0" points="1478.537,698.549 1300.551,735.584 1391.869,738.041 
		1522.148,700.357 	"/>
	<polygon fill-rule="evenodd" clip-rule="evenodd" fill="#B59AA0" points="1087.844,589.234 1050.373,616.51 1027.891,617.088 
		1083.043,589.506 	"/>
	<polygon fill-rule="evenodd" clip-rule="evenodd" fill="#B59AA0" points="1105.174,589.234 1058.453,616.68 1065.479,616.68 
		1123.6,591.033 	"/>
	
		<linearGradient id="SVGID_26_" gradientUnits="userSpaceOnUse" x1="1104.5918" y1="626.2705" x2="1098.7322" y2="568.7907" gradientTransform="matrix(-1 0 0 1 1280 0)">
		<stop  offset="0" style="stop-color:#382C44"/>
		<stop  offset="1" style="stop-color:#594C4C"/>
	</linearGradient>
	<polygon fill-rule="evenodd" clip-rule="evenodd" fill="url(#SVGID_26_)" points="226.598,595.023 185.03,578.654 149.315,574.313 
		136.424,574.313 131.347,587.607 158.096,593.574 	"/>
	
		<linearGradient id="SVGID_27_" gradientUnits="userSpaceOnUse" x1="1172.71" y1="612.6406" x2="1169.3925" y2="580.0974" gradientTransform="matrix(-1 0 0 1 1280 0)">
		<stop  offset="0" style="stop-color:#382C44"/>
		<stop  offset="1" style="stop-color:#594C4C"/>
	</linearGradient>
	<polygon fill-rule="evenodd" clip-rule="evenodd" fill="url(#SVGID_27_)" points="139.361,591.586 119.545,585.979 
		106.106,585.979 79.642,590.32 92.054,593.574 	"/>
	
		<linearGradient id="SVGID_28_" gradientUnits="userSpaceOnUse" x1="1053.4023" y1="585.7373" x2="1215.1113" y2="585.7373" gradientTransform="matrix(-1 0 0 1 1280 0)">
		<stop  offset="0" style="stop-color:#9D7C90"/>
		<stop  offset="1" style="stop-color:#775477"/>
	</linearGradient>
	<polygon opacity="0.6" fill-rule="evenodd" clip-rule="evenodd" fill="url(#SVGID_28_)" points="226.598,595.023 158.799,587.607 
		147.324,584.668 136.424,574.313 131.347,587.607 119.545,585.979 129.525,589.777 109.501,589.777 79.642,590.32 64.888,591.768 
		89.045,597.162 145.968,593.574 	"/>
	
		<linearGradient id="SVGID_29_" gradientUnits="userSpaceOnUse" x1="967.6963" y1="645.3926" x2="964.0208" y2="609.3379" gradientTransform="matrix(-1 0 0 1 1280 0)">
		<stop  offset="0" style="stop-color:#382C44"/>
		<stop  offset="1" style="stop-color:#594C4C"/>
	</linearGradient>
	<polygon fill-rule="evenodd" clip-rule="evenodd" fill="url(#SVGID_29_)" points="346.154,622.875 336.319,617.449 
		298.938,613.107 283.858,614.918 294.163,624.141 335.323,623.838 	"/>
	
		<linearGradient id="SVGID_30_" gradientUnits="userSpaceOnUse" x1="468.5039" y1="704.5332" x2="524.3594" y2="704.5332" gradientTransform="matrix(-1 0 0 1 1280 0)">
		<stop  offset="0" style="stop-color:#382C44"/>
		<stop  offset="1" style="stop-color:#594C4C"/>
	</linearGradient>
	<polygon fill-rule="evenodd" clip-rule="evenodd" fill="url(#SVGID_30_)" points="811.496,706.164 785.852,700.732 
		767.068,700.732 755.641,703.447 779.875,708.334 808.912,708.334 	"/>
	<polygon fill-rule="evenodd" clip-rule="evenodd" fill="#271624" points="1600.734,632.451 1605.154,632.451 1597.459,636.711 
		1684.107,658.959 1700.969,658.959 1827.902,687.963 1849.662,700.732 1849.662,713.936 1843.359,713.936 1847.574,702.121 
		1828.371,691.422 1699.682,660.133 1682.936,659.5 1579.832,633.998 1572.455,632.451 	"/>
	<polygon fill-rule="evenodd" clip-rule="evenodd" fill="#88A2F8" points="1763.574,635.65 1721.93,627.604 1567.736,617.178 
		1486.273,620.041 1629.189,627.215 1627.783,632.451 1605.154,632.451 1653.076,645.664 1768.301,643.102 1682.234,651.939 
		1693.123,653.531 1840.307,644.352 	"/>
	
		<linearGradient id="SVGID_31_" gradientUnits="userSpaceOnUse" x1="-363.71" y1="645.6641" x2="-363.71" y2="620.041" gradientTransform="matrix(-1 0 0 1 1280 0)">
		<stop  offset="0" style="stop-color:#9D7C90"/>
		<stop  offset="1" style="stop-color:#775477"/>
	</linearGradient>
	<polygon opacity="0.3" fill-rule="evenodd" clip-rule="evenodd" fill="url(#SVGID_31_)" points="1486.273,620.041 
		1581.297,622.332 1649.916,627.604 1726.73,630.832 1627.783,632.451 1615.488,633.186 1632.35,638.248 1692.537,640.262 
		1639.377,639.424 1641.66,641.572 1659.4,643.102 1781.297,641.572 1801.146,643.102 1768.301,643.102 1653.076,645.664 
		1605.154,632.451 1627.695,631.76 1629.189,627.215 	"/>
	
		<linearGradient id="SVGID_32_" gradientUnits="userSpaceOnUse" x1="-481.2705" y1="653.5313" x2="-481.2705" y2="644.1094" gradientTransform="matrix(-1 0 0 1 1280 0)">
		<stop  offset="0" style="stop-color:#9D7C90"/>
		<stop  offset="1" style="stop-color:#775477"/>
	</linearGradient>
	<polygon opacity="0.3" fill-rule="evenodd" clip-rule="evenodd" fill="url(#SVGID_32_)" points="1682.234,651.939 
		1699.359,651.361 1838.176,644.109 1840.307,644.352 1693.123,653.531 	"/>
	
		<linearGradient id="SVGID_33_" gradientUnits="userSpaceOnUse" x1="194.7119" y1="682.5371" x2="194.7119" y2="663.043" gradientTransform="matrix(-1 0 0 1 1280 0)">
		<stop  offset="0" style="stop-color:#9D7C90"/>
		<stop  offset="1" style="stop-color:#775477"/>
	</linearGradient>
	<polygon opacity="0.5" fill-rule="evenodd" clip-rule="evenodd" fill="url(#SVGID_33_)" points="1103.645,682.537 
		1091.027,664.664 1066.932,663.043 1066.932,681.486 	"/>
	
		<linearGradient id="SVGID_34_" gradientUnits="userSpaceOnUse" x1="-455.8843" y1="713.5498" x2="-458.0044" y2="692.7523" gradientTransform="matrix(-1 0 0 1 1280 0)">
		<stop  offset="0" style="stop-color:#9D7C90"/>
		<stop  offset="1" style="stop-color:#775477"/>
	</linearGradient>
	<polygon opacity="0.5" fill-rule="evenodd" clip-rule="evenodd" fill="url(#SVGID_34_)" points="1809.281,712.26 1809.281,700.018 
		1664.26,697.453 1664.26,706.248 	"/>
	
		<linearGradient id="SVGID_35_" gradientUnits="userSpaceOnUse" x1="-364.2212" y1="705.8945" x2="-365.187" y2="696.4202" gradientTransform="matrix(-1 0 0 1 1280 0)">
		<stop  offset="0" style="stop-color:#9D7C90"/>
		<stop  offset="1" style="stop-color:#775477"/>
	</linearGradient>
	<polygon opacity="0.5" fill-rule="evenodd" clip-rule="evenodd" fill="url(#SVGID_35_)" points="1655.314,705.877 1653.422,697.26 
		1634.045,696.918 1634.045,704.857 	"/>
	<polygon fill-rule="evenodd" clip-rule="evenodd" fill="#866D6A" points="1721.93,698.023 1697.34,694.641 1660.102,696.334 
		1626.379,694.641 1492.531,694.414 	"/>
	<polygon fill-rule="evenodd" clip-rule="evenodd" fill="#271624" points="1682.936,659.5 1707.41,664.654 1733.898,668.453 
		1743.201,670.715 1707.176,665.107 1669.588,658.27 1664.26,653.861 	"/>
	<polygon fill-rule="evenodd" clip-rule="evenodd" fill="#866D6A" points="1828.371,691.422 1798.861,694.641 1749.33,698.549 
		1847.574,702.121 	"/>
	<polygon fill-rule="evenodd" clip-rule="evenodd" fill="#A59391" points="1655.314,696.771 1621.813,691.422 1565.133,695.557 	"/>
	<polygon fill-rule="evenodd" clip-rule="evenodd" fill="#271624" points="1533.563,700.83 1534.691,694.641 1577.197,683.572 
		1669.588,658.27 1668.252,657.164 1665.723,658.27 1530.119,695.006 1529.949,700.703 	"/>
	<polygon fill-rule="evenodd" clip-rule="evenodd" fill="#AA9D9F" points="1669.588,658.27 1707.41,664.654 1743.201,670.715 
		1828.371,691.422 1847.574,702.121 1534.691,694.641 	"/>
	<polygon fill-rule="evenodd" clip-rule="evenodd" fill="#AA9D9F" points="1537.764,678.998 1450.613,693.137 1366.959,690.695 
		1432.115,678.998 1437.268,680.195 1506.59,670.715 	"/>
	<polygon fill-rule="evenodd" clip-rule="evenodd" fill="#8D7C7F" points="1118.758,666.529 1103.645,661.219 1068.648,661.219 
		1029.063,660.494 	"/>
	
		<linearGradient id="SVGID_36_" gradientUnits="userSpaceOnUse" x1="34.5449" y1="607.8311" x2="64.0508" y2="607.8311" gradientTransform="matrix(-1 0 0 1 1280 0)">
		<stop  offset="0" style="stop-color:#9D7C90"/>
		<stop  offset="1" style="stop-color:#775477"/>
	</linearGradient>
	<polygon opacity="0.5" fill-rule="evenodd" clip-rule="evenodd" fill="url(#SVGID_36_)" points="1245.455,604.789 
		1215.949,610.873 1235.152,609.854 	"/>
	<polygon fill-rule="evenodd" clip-rule="evenodd" fill="#8D7C7F" points="610.036,689.66 591.636,703.271 615.71,699.002 	"/>
	<path fill-rule="evenodd" clip-rule="evenodd" fill="#8D7C7F" d="M852.246,660.494l-21.244,6.035c0,0,31.814,4.246,43.498,3.551
		c11.686-0.693,40.986-1.809,40.986-1.809L852.246,660.494z"/>
	<polygon fill-rule="evenodd" clip-rule="evenodd" fill="#8D7C7F" points="1083.439,728.799 1039.449,721.572 1048.395,728.799 	"/>
	
		<linearGradient id="SVGID_37_" gradientUnits="userSpaceOnUse" x1="-315.4297" y1="689.0078" x2="-249.0703" y2="689.0078" gradientTransform="matrix(-1 0 0 1 1280 0)">
		<stop  offset="0" style="stop-color:#9D7C90"/>
		<stop  offset="1" style="stop-color:#775477"/>
	</linearGradient>
	<polygon opacity="0.8" fill-rule="evenodd" clip-rule="evenodd" fill="url(#SVGID_37_)" points="1595.43,677.313 1580.271,680.391 
		1539.887,685.635 1529.307,695.041 1529.07,700.664 1529.949,700.703 1530.119,695.006 	"/>
	<polygon fill-rule="evenodd" clip-rule="evenodd" fill="#AA9D9F" points="1539.887,685.635 1522.148,683.572 1568.086,675.324 
		1595.43,677.313 1580.271,680.391 	"/>
	<polygon fill-rule="evenodd" clip-rule="evenodd" fill="#8D7C7F" points="1543.984,685.104 1533.393,684.879 1534.691,690.252 	"/>
	<polygon fill-rule="evenodd" clip-rule="evenodd" fill="#271624" points="1053.215,625.305 1027.891,617.088 1042.352,609.855 
		1086.082,588.682 1083.439,588.516 1078.262,591.896 1035.068,612.566 1017.506,618.535 1018.297,619.553 1034.016,620.451 
		1044.73,623.652 1045.514,625.877 	"/>
	<polygon fill-rule="evenodd" clip-rule="evenodd" fill="#271624" points="848.553,623.838 848.553,615.809 888.506,597.514 
		885.859,597.514 846.775,615.523 846.775,623.4 	"/>
	<polygon fill-rule="evenodd" clip-rule="evenodd" fill="#725C60" points="885.859,597.514 876.133,598.277 815.77,608.588 
		818.275,610.938 846.775,615.523 	"/>
	<polygon fill-rule="evenodd" clip-rule="evenodd" fill="#8D7C7F" points="852.725,612.781 839.193,614.303 846.775,618.67 
		846.775,615.523 	"/>
	
		<linearGradient id="SVGID_38_" gradientUnits="userSpaceOnUse" x1="333.8438" y1="637.2188" x2="349.2988" y2="637.2188" gradientTransform="matrix(-1 0 0 1 1280 0)">
		<stop  offset="0" style="stop-color:#9D7C90"/>
		<stop  offset="1" style="stop-color:#775477"/>
	</linearGradient>
	<polygon opacity="0.8" fill-rule="evenodd" clip-rule="evenodd" fill="url(#SVGID_38_)" points="940.244,632.643 933.283,645.412 
		930.701,629.025 946.156,629.025 946.156,632.643 	"/>
	
		<linearGradient id="SVGID_39_" gradientUnits="userSpaceOnUse" x1="-1.2949" y1="605.1016" x2="92.7422" y2="605.1016" gradientTransform="matrix(-1 0 0 1 1280 0)">
		<stop  offset="0" style="stop-color:#9D7C90"/>
		<stop  offset="1" style="stop-color:#775477"/>
	</linearGradient>
	<polygon opacity="0.8" fill-rule="evenodd" clip-rule="evenodd" fill="url(#SVGID_39_)" points="1250.381,615.18 1245.455,604.789 
		1187.258,595.023 1253.191,595.023 1259.75,598.098 1245.455,598.639 1239.734,602.957 1278.943,608.115 1281.295,615.18 	"/>
	<polygon fill-rule="evenodd" clip-rule="evenodd" fill="#8D7C7F" points="1167.025,613.469 1141.834,613.469 1115.721,613.469 
		1086.082,616.311 1118.758,616.311 	"/>
	<polygon fill-rule="evenodd" clip-rule="evenodd" fill="#8D7C7F" points="1475.385,694.164 1437.736,691.422 1399.797,689.008 
		1361.506,690.252 1318.648,683.572 1258.807,680.48 1333.014,688.486 1405.176,692.869 	"/>
	<polygon fill-rule="evenodd" clip-rule="evenodd" fill="#766165" points="273.362,705.391 255.645,693.852 216.973,675.324 
		233.488,689.66 250.024,700.732 	"/>
	<polygon fill-rule="evenodd" clip-rule="evenodd" fill="#766165" points="713.719,659.539 690.895,655.408 603.673,652.174 
		671.623,656.723 	"/>
	<polygon fill-rule="evenodd" clip-rule="evenodd" fill="#B59AA0" points="1691.133,747.084 1749.33,732.256 1678.018,718.295 
		1599.77,718.295 1492.531,740.75 1590.898,744.568 	"/>
	<polygon fill-rule="evenodd" clip-rule="evenodd" fill="#BAC0FD" points="1358.016,590.311 820.824,527.32 233.625,550.41 
		815.881,536.4 	"/>
</g>
<g id="_x32_" opacity="0.6">
	<polygon display="none" fill-rule="evenodd" clip-rule="evenodd" fill="#31025D" points="405.771,4.354 405.771,4.354 
		302.321,101.768 301.769,107.916 335.108,81.579 378.2,63.226 379.325,66.256 249.393,218.313 144.943,274.616 -3.087,426.625 
		-3.087,373.482 -5.308,375.463 -3.087,308.014 -3.087,190.209 -3.087,167.84 -3.087,-64.771 216.713,-64.771 333.234,-64.771 
		353.609,-64.771 430.19,-64.771 257.409,6 257.411,5.999 416.958,-39.554 436.513,-35.425 436.513,-25.789 423.165,-12.024 	"/>
	<polygon display="none" fill-rule="evenodd" clip-rule="evenodd" fill="#31025D" points="801.488,80.89 800.938,91.903 
		800.938,91.903 797.605,158.663 797.605,158.665 797.273,165.326 793.994,193.076 788.842,193.076 788.842,162.229 
		773.854,135.263 757.928,45.331 717.178,35.236 707.342,27.895 673.617,-64.771 706.641,-64.771 748.859,-64.771 757.928,-64.771 
		826.313,-64.771 811.324,74.696 	"/>
	<path fill-rule="evenodd" clip-rule="evenodd" fill="#52025D" d="M119.545,553.109l6.205-3.957l6.894-2.996l-3.119-0.236v-6.717
		l13.867-6.025c0,0,41.31,3.268,90.233,17.232l4.565-0.107l20.372,0.49l556.445-14.732l543.008,54.25l72.361-271.726l12.941-14.062
		l16.357-110.74l-20.703,11.223l-5.621-5.047l-19.674-32.119v-18.813l-19.672-57.354l7.027-6.424l-7.027,0.458L1289.432-39.077
		l-128.537-17.817l-138.746-8.616l36.668-0.656l0,0l19.957-1.856l-0.436,1.507l84.227-1.507l-0.43,2.858l181.773-1.234l-3.346,1.628
		h18.023l-0.645-1.628h21.07l0.537,1.628h14.818l-0.361-1.204l20.609-0.192l0.258,1.396h45.762h19.672h114.787l28.744-4.378
		l-0.846,4.378h30.852h6.324h128.455h28.221h35.07v698.33l-0.557,0.785v26.205l-1.695,0.086v40.098v13.203v33.148H1727.9h-130.441
		H226.598H-4.687v-63.215V568.627v-3.809v-1.086v-5.969l57.514-4.654H119.545z"/>
</g>
<line fill-rule="evenodd" clip-rule="evenodd" fill="#52025D" x1="1126" y1="93" x2="1116" y2="109"/>
</svg>
