<?xml version="1.0" encoding="utf-8"?>
<!-- Generator: Adobe Illustrator 16.0.3, SVG Export Plug-In . SVG Version: 6.00 Build 0)  -->
<!DOCTYPE svg PUBLIC "-//W3C//DTD SVG 1.1//EN" "http://www.w3.org/Graphics/SVG/1.1/DTD/svg11.dtd">
<svg version="1.1" id="Capa_2" xmlns="http://www.w3.org/2000/svg" xmlns:xlink="http://www.w3.org/1999/xlink" x="0px" y="0px"
	 width="1280px" height="720px" viewBox="0 0 1280 720" enable-background="new 0 0 1280 720" xml:space="preserve">
<linearGradient id="SVGID_1_" gradientUnits="userSpaceOnUse" x1="620.4468" y1="564.4746" x2="620.4468" y2="254.6079" gradientTransform="matrix(-1 0 0 1 1280 0)">
	<stop  offset="0" style="stop-color:#A18C89"/>
	<stop  offset="0.2825" style="stop-color:#6B5D5B"/>
	<stop  offset="0.6182" style="stop-color:#322B2A"/>
	<stop  offset="0.8673" style="stop-color:#0E0C0C"/>
	<stop  offset="1" style="stop-color:#000000"/>
</linearGradient>
<path opacity="0.5" fill-rule="evenodd" clip-rule="evenodd" fill="url(#SVGID_1_)" d="M700.375,564.475
	c0,0-20.192-11.77,2.158-31.086c1.558-1.346,36.372-28.256,39.998-35.828c3.626-7.57,16.513-41.003-38.76-38.224
	c0,0,5.641-2.375,6.481-8.899c0.424-3.291-4.06-7.248-4.06-7.248s29.601-19.156,33.377-42.442s-14.321-61.025-60.777-65.729
	c-46.454-4.703-33.31-23.63-5.28-30.513c28.03-6.883,30.813-34.413,5.534-49.898c0,0-4.354,36.382-25.355,52.948
	c-21.001,16.565-79.534,47.073-81.006,73.803c-1.472,26.73,88.787,37.503,95.648,64.637c6.862,27.133-36.81,52.463-31.309,79.028
	C642.526,551.59,700.375,564.475,700.375,564.475z"/>
<g>
	
		<radialGradient id="SVGID_2_" cx="492.8472" cy="1024.9277" r="92.1296" gradientTransform="matrix(-0.9889 0 0 0.5742 1180.8322 -0.0879)" gradientUnits="userSpaceOnUse">
		<stop  offset="0" style="stop-color:#FF7C07"/>
		<stop  offset="0.1244" style="stop-color:#CF6506"/>
		<stop  offset="0.3042" style="stop-color:#914704"/>
		<stop  offset="0.4768" style="stop-color:#5D2D03"/>
		<stop  offset="0.6372" style="stop-color:#351A01"/>
		<stop  offset="0.7827" style="stop-color:#180C01"/>
		<stop  offset="0.9084" style="stop-color:#060300"/>
		<stop  offset="1" style="stop-color:#000000"/>
	</radialGradient>
	
		<ellipse opacity="0.5" fill-rule="evenodd" clip-rule="evenodd" fill="url(#SVGID_2_)" cx="693.456" cy="588.426" rx="91.104" ry="52.902"/>
	
		<radialGradient id="SVGID_3_" cx="495.6445" cy="1024.3203" r="157.6768" gradientTransform="matrix(-0.9889 0 0 0.5742 1180.8322 -0.0879)" gradientUnits="userSpaceOnUse">
		<stop  offset="0" style="stop-color:#FF0000"/>
		<stop  offset="0.2218" style="stop-color:#BC0000"/>
		<stop  offset="0.5044" style="stop-color:#6C0000"/>
		<stop  offset="0.7375" style="stop-color:#320000"/>
		<stop  offset="0.9088" style="stop-color:#0E0000"/>
		<stop  offset="1" style="stop-color:#000000"/>
	</radialGradient>
	
		<ellipse opacity="0.5" fill-rule="evenodd" clip-rule="evenodd" fill="url(#SVGID_3_)" cx="690.689" cy="588.077" rx="155.92" ry="90.541"/>
</g>
</svg>
