<?xml version="1.0" encoding="utf-8"?>
<!-- Generator: Adobe Illustrator 16.0.3, SVG Export Plug-In . SVG Version: 6.00 Build 0)  -->
<!DOCTYPE svg PUBLIC "-//W3C//DTD SVG 1.1//EN" "http://www.w3.org/Graphics/SVG/1.1/DTD/svg11.dtd">
<svg version="1.1" id="Capa_1" xmlns="http://www.w3.org/2000/svg" xmlns:xlink="http://www.w3.org/1999/xlink" x="0px" y="0px"
	 width="1280px" height="720px" viewBox="0 0 1280 720" enable-background="new 0 0 1280 720" xml:space="preserve">
<g>
	<g>
		
			<radialGradient id="SVGID_1_" cx="-1027.2168" cy="290.2563" r="38.3999" gradientTransform="matrix(-1.6929 -1.6929 -1.6785 1.6785 -292.4361 -2057.6377)" gradientUnits="userSpaceOnUse">
			<stop  offset="0" style="stop-color:#6A229D"/>
			<stop  offset="0.1554" style="stop-color:#672199"/>
			<stop  offset="0.3155" style="stop-color:#5F1E8C"/>
			<stop  offset="0.4779" style="stop-color:#511A78"/>
			<stop  offset="0.6419" style="stop-color:#3D145B"/>
			<stop  offset="0.8071" style="stop-color:#240C36"/>
			<stop  offset="0.9711" style="stop-color:#060209"/>
			<stop  offset="1" style="stop-color:#000000"/>
		</radialGradient>
		<path fill-rule="evenodd" clip-rule="evenodd" fill="url(#SVGID_1_)" d="M894.336,103.526
			c-35.599,35.597-35.352,93.56,0.552,129.461c35.901,35.903,93.863,36.15,129.462,0.552c35.597-35.598,35.351-93.559-0.553-129.462
			C987.895,68.176,929.934,67.928,894.336,103.526z"/>
	</g>
	<g>
		
			<radialGradient id="SVGID_2_" cx="-1026.3975" cy="288.7842" r="32.7593" gradientTransform="matrix(-1.6929 -1.6929 -1.6785 1.6785 -292.4361 -2057.6377)" gradientUnits="userSpaceOnUse">
			<stop  offset="0" style="stop-color:#0037A4"/>
			<stop  offset="0.1534" style="stop-color:#0036A0"/>
			<stop  offset="0.31" style="stop-color:#003294"/>
			<stop  offset="0.4681" style="stop-color:#002B7F"/>
			<stop  offset="0.6272" style="stop-color:#002163"/>
			<stop  offset="0.7871" style="stop-color:#00153E"/>
			<stop  offset="0.9456" style="stop-color:#000611"/>
			<stop  offset="1" style="stop-color:#000000"/>
		</radialGradient>
		<path fill-rule="evenodd" clip-rule="evenodd" fill="url(#SVGID_2_)" d="M904.969,109.215
			c-30.367,30.369-30.156,79.816,0.471,110.444c30.629,30.629,80.075,30.839,110.444,0.472
			c30.368-30.369,30.157-79.816-0.472-110.444C984.783,79.058,935.337,78.847,904.969,109.215z"/>
	</g>
	<path fill-rule="evenodd" clip-rule="evenodd" fill="#E7EFFF" d="M890.24,164.858c0,38.505,31.216,69.718,69.72,69.718
		c32.726,0,60.184-22.546,67.692-52.95c1.325-5.368,2.03-10.984,2.03-16.768c0-2.556-0.139-5.08-0.406-7.563
		c-3.769-34.95-33.362-62.159-69.316-62.159C921.456,95.136,890.24,126.348,890.24,164.858z"/>
	<g opacity="0.2">
		<path fill-rule="evenodd" clip-rule="evenodd" fill="#635EB0" d="M977.574,211.989c-0.874,1.872-1.463,3.516-2.956,5.065
			c-1.621,1.684-2.885,2.002-4.987,2.616c-1.223,0.358-1.478,0.784-3.037,0.762c-1.022-0.016-2.437-0.264-3.422-0.042
			c-2.209,0.502-3.387,2.462-5.865,2.597c-2.356,0.127-3.869-0.65-5.915-1.277c-1.917-0.587-4.154-1.423-5.934-2.097
			c-1.944-0.735-3.683-1.255-5.699-1.9c-2.159-0.69-3.268-2.134-5.974-1.377c-0.174,1.006,0.075,2.599-1.161,3.103
			c-0.849,0.345-2.258-0.551-3.167-0.9c-2.366-0.911-4.507-1.41-6.753-2.351c-1.087-0.457-1.877-0.425-2.979-1.244
			c-1.057-0.787-2.196-1.375-3.298-2.111c-2.04-1.363-4.044-2.842-6.073-4.223c-3.9-2.654-6.416-6.292-8.784-10.137
			c-1.246-2.026-1.961-4.255-2.745-6.565c-0.962-2.845-0.639-3.651,1.266-5.975c3.416,1.421,4.771-0.692,3.823-4.347
			c-0.831-3.198-1.188-7.45-0.469-10.792c0.127-0.595,0.58-1.015,0.679-1.857c0.109-0.926-0.079-1.619,0.166-2.554
			c0.399-1.534,0.667-2.572,0.656-4.222c-0.011-1.659-0.229-3.468,0.188-5.069c0.261-1.006,0.622-1.438,0.676-2.533
			c0.054-1.125-0.142-2.105,0.172-3.188c0.813-2.818,3.391-3.608,5.721-4.414c1.588-0.548,2.385-1.09,3.397-0.014
			c1.081,1.151,0.811,2.734,0.821,4.234c0.02,2.821-1.8,5.309-3.376,7.601c-0.7,1.019-1.931,2.003-1.752,3.405
			c0.101,0.77,1.051,0.885,0.992,1.661c-0.07,0.94-1.082,1.224-1.585,1.88c-4.031,5.263,3.561,9.895,7.181,12.689
			c2.063,1.593,5.163,2.405,5.953,5.049c0.844,2.828-1.105,5.185-2.133,7.601c-1.072,2.523-2.004,6.957-0.438,9.328
			c0.668,1.011,1.968,1.612,2.973,2.095c1.482,0.712,2.045,1.602,3.354,2.556c2.132,1.55,4.771,2.062,7.413,1.896
			c1.68-0.106,2.899-0.786,4.22-1.709c1.015-0.708,2.374-2.001,3.571-2.343c0.858-0.245,1.495-0.062,2.366-0.168
			c1.189-0.146,1.419-0.639,2.464-0.908c1.797-0.464,3.072,0.806,4.479,1.52c1.197,0.607,2.61,1.473,4.059,1.096
			c1.397-0.363,3.021-1.263,4.366-1.542c3.221-0.667,8.437-0.899,11.018,1.292c1.302,1.105,1.758,2.652,2.922,3.816
			C975.078,209.104,977.228,209.401,977.574,211.989z"/>
		<path fill-rule="evenodd" clip-rule="evenodd" fill="#635EB0" d="M913.39,138.515c3.094,0.061,5.938-2.267,8.467-4.014
			c2.075-1.434,4.252-3.69,5.255-5.914c0.3-0.669,0.402-1.22,0.635-1.896c0.053-0.149,0.807-2.156,0.805-2.215
			c-0.03-1.176-0.987-2.579-1.862-3.482c-2.518-2.596-6.367-0.729-8.889,0.839c-2.389,1.482-4.7,3.154-6.711,5.069
			c-0.972,0.926-2.306,1.767-2.995,2.935c-0.908,1.543-0.643,3.424-0.618,5.296c0.039,2.855-3.697,6.146,0.825,6.774
			c1.776,0.248,7.219-1.25,7.625-3.394H913.39z"/>
		<path fill-rule="evenodd" clip-rule="evenodd" fill="#635EB0" d="M969.13,228.878c0.768,0.853,1.674,0.265,2.543-0.011
			c0.838-0.267,1.57-0.417,2.522-0.41c1.854,0.012,3.528,0.014,5.278-0.422c1.67-0.416,3.261-0.659,4.857-1.056
			c0.635-0.159,1.241-0.516,1.883-0.649c0.397-0.083,0.844,0.053,1.247-0.019c0.19-0.036,0.206-0.263,0.341-0.293
			c0.326-0.072,0.637-0.025,0.958-0.083c1.596-0.281,3.104-0.759,4.53-1.187c0.676-0.201,1.292-0.226,1.915-0.607
			c0.648-0.396,1.538-0.836,2.123-1.267c2.275-1.683,4.771-3.1,6.849-5.184c1.958-1.966,3.975-3.764,6.025-5.595
			c0.477-0.424,0.86-0.984,1.359-1.378c0.55-0.433,1.07-0.631,1.588-1.158c1.066-1.083,1.893-2.26,2.747-3.492
			c1.665-2.408,3.811-4.378,5.117-7.01c0.633-1.274,1.206-2.512,1.955-3.731c0.473-0.77,0.938-1.717,1.276-2.554
			c0.257-0.635,0.773-1.384,0.949-1.992c0.265-0.908,0.257-1.779,0.507-2.66c0.109-0.386,0.364-0.645,0.455-1.022
			c0.114-0.474-0.139-1.037-0.037-1.516c0.089-0.428,0.362-0.615,0.459-1.019c0.116-0.475-0.14-1.037-0.037-1.516
			c0.091-0.427,0.361-0.615,0.461-1.018c0.132-0.541-0.175-1.192-0.044-1.733c0.097-0.401,0.368-0.591,0.458-1.017
			c0.095-0.439-0.011-1.041-0.014-1.494c-0.01-1.088,0.375-1.922,0.432-2.957c0.051-0.946,0.201-2.266,0.006-3.182
			c-0.091-0.425-0.365-0.618-0.461-1.019c-0.131-0.553,0.133-1.112-0.05-1.676c-1.139-0.298-0.778,2.12-0.771,2.709
			c0.01,1.091-0.449,1.687-0.424,2.746c0.032,1.308-0.517,1.488-1.287,2.441c-0.334,0.41-1.102,1.22-1.268,1.76
			c-0.109,0.359-0.099,0.937-0.189,1.289c-0.112,0.438-0.22,0.734-0.209,1.268c0.019,1.03,0.074,1.551-0.732,2.215
			c-0.554,0.458-1.506,1.03-2.2,1.185c-0.962,0.216-1.801,0.203-2.786,0.384c-0.444,0.082-0.601,0.362-1.018,0.46
			c-0.535,0.126-1.104-0.208-1.628,0.062c-0.492,0.255-1.119,1.236-1.255,1.701c-0.266,0.907-0.081,1.653,0.328,2.437
			c0.146,0.282,0.257,0.575,0.422,0.844c0.196,0.318,0.588,0.615,0.761,0.93c0.795,1.46-0.354,3.838-0.668,5.076
			c-0.123,0.48-0.848,1.941-0.45,2.378c0.401,0.441,2.793,0.061,3.248-0.204c0.26,0.534-0.239,1.561-0.396,2.125
			c-0.187,0.661-0.507,1.616-0.899,2.259c-0.766,1.256-2.146,2.429-3.444,3.11c-0.857,0.452-1.382,0.69-1.538-0.462
			c-0.072-0.524,0.081-0.81-0.185-1.293c-0.19-0.343-0.539-0.386-0.67-0.808c-0.144-0.458,0.147-1.045,0.036-1.515
			c-0.083-0.344-0.333-0.564-0.403-0.864c-0.233-0.997,0.152-2.12-0.016-3.131c-0.34-2.032-1.852-2.943-3.608-3.377
			c-1.795-0.443-3.563-0.938-5.259-1.689c-1.899-0.843-3.954-1.147-5.933-0.525c-1.619,0.508-2.903,1.482-4.381,2.266
			c-0.685,0.364-1.299,0.522-1.966,0.782c-0.773,0.299-1.576,0.593-2.35,0.815c-1.393,0.401-3.003,0.633-4.29,1.402
			c-1.208,0.722-2.846,1.678-3.703,2.851c-0.82,1.118-1.607,3.43-1.012,4.835c0.447,1.063,2.054,1.988,2.817,2.883
			c1.298,1.521,0.951,2.535,0,4.104c-0.351,0.575-0.96,1.329-1.126,1.949c-0.22,0.824-0.084,2.066-0.039,2.923
			c0.041,0.813,0.292,1.344,0.731,2.013c0.414,0.628,1.383,1.022,1.718,1.654c0.306,0.575,0.022,0.864-0.219,1.3
			c-0.069,0.122-0.275,0.164-0.344,0.29c-0.161,0.302-0.059,0.58-0.184,0.871c-0.42,0.968-1.255,0.819-2.123,1.044
			c-0.894,0.235-1.681,0.14-2.545-0.199c-0.514-0.199-0.68-0.355-1.244-0.442c-0.62-0.094-0.915,0.242-1.369,0.335
			c-1.041,0.214-1.634-0.497-2.669-0.554c-0.825-0.044-1.343,0.32-1.987,0.967c-0.537,0.536-1.287,1.426-1.195,2.228
			C967.503,227.602,968.549,228.119,969.13,228.878z"/>
		<path fill-rule="evenodd" clip-rule="evenodd" fill="#635EB0" d="M977.153,197.209c-0.263-0.147-0.489-0.258-0.74-0.359
			c-0.662,0.765-1.398,1.532-2.219,2.047c-1.232,0.774-1.844,0.285-2.124-1.038c-0.144-0.679,0.222-1.098,0.345-1.587
			c0.142-0.561,0.005-1.159,0.601-1.511c0.822-0.486,3.225-0.234,2.869,1.181L977.153,197.209z"/>
		<path fill-rule="evenodd" clip-rule="evenodd" fill="#635EB0" d="M1017.689,142.737c0.188,0.319,0.449,0.45,0.781,0.39
			c0.182-0.717,0.164-1.948,0.026-2.676c-0.074-0.395-0.335-0.588-0.396-1.081c-0.053-0.408,0.007-0.773-0.085-1.184
			c-0.112-0.523-0.543-1.352-0.656-1.877c-0.173-0.82-0.2-1.261-0.526-2.005c-0.301-0.684-0.474-1.576-0.781-2.352
			c-0.28-0.705-0.613-1.227-1.004-1.871c-0.776-1.283-1.424-2.525-2.216-3.813c-1.401-2.278-2.981-4.543-5.099-6.322
			c-0.722-0.609-1.545-1.064-2.301-1.596c-0.261-0.183-0.466-0.478-0.716-0.642c-0.246-0.163-0.646-0.239-0.87-0.401
			c-0.658-0.482-2.555-2.404-3.418-1.941c0.595,1.567,1.624,3.139,2.375,4.674c0.87,1.774,2.5,1.697,3.799,2.958
			c2.032,1.973-1.355,2.797-2.529,3.568c-1.15,0.754-1.17,1.836-1.165,3.081c0.007,1.159-0.085,2.086-0.422,3.167
			c-0.136,0.442-0.366,1.011-0.445,1.477c0.017,0.29,0.031,0.578,0.047,0.868c-0.027,0.229-0.146,0.395-0.352,0.494
			c-0.263,1.205,0.236,1.919,0.646,2.957c0.398,1.013,0.651,1.983,1.479,2.754c0.826,0.771,1.737,0.514,2.849,0.528
			c0.714,0.009,1.037-0.167,1.688-0.328c0.424-0.105,1.037-0.358,1.362-0.42c0.504-0.098,0.997-0.082,1.5-0.189
			c0.525-0.111,0.56-0.417,1.267-0.231c0.732,0.192,1.425,1.02,2.184,1.193c1.062,0.239,2.272-0.26,3.329,0.049
			C1018.063,142.081,1018.088,142.198,1017.689,142.737z"/>
	</g>
</g>
</svg>
