<?xml version="1.0" encoding="utf-8"?>
<!-- Generator: Adobe Illustrator 16.0.3, SVG Export Plug-In . SVG Version: 6.00 Build 0)  -->
<!DOCTYPE svg PUBLIC "-//W3C//DTD SVG 1.1//EN" "http://www.w3.org/Graphics/SVG/1.1/DTD/svg11.dtd">
<svg version="1.1" id="Mountain1" xmlns="http://www.w3.org/2000/svg" xmlns:xlink="http://www.w3.org/1999/xlink" x="0px" y="0px"
	 width="1280px" height="720px" viewBox="0 0 1280 720" enable-background="new 0 0 1280 720" xml:space="preserve">
<g>
	
		<linearGradient id="SVGID_1_" gradientUnits="userSpaceOnUse" x1="769.9248" y1="1158.3311" x2="769.9247" y2="325.6367" gradientTransform="matrix(1 0 0 1 -54.3335 0)">
		<stop  offset="0" style="stop-color:#5D9CDE"/>
		<stop  offset="0.1427" style="stop-color:#5A94D9"/>
		<stop  offset="0.3585" style="stop-color:#5280CA"/>
		<stop  offset="0.6207" style="stop-color:#455EB2"/>
		<stop  offset="0.9168" style="stop-color:#342F90"/>
		<stop  offset="1" style="stop-color:#2E2086"/>
	</linearGradient>
	<polygon fill="url(#SVGID_1_)" points="1387.722,763.236 376.365,753.107 376.542,689.263 43.462,657.063 377.871,217.253 
		511.292,79.063 513.451,76.827 514.338,75.911 543.132,94.612 615.342,243.195 616.05,243 646.628,234.536 648.872,233.914 
		660.045,253.326 672.509,253.326 796.728,462.694 856.898,525.168 868.072,525.168 1090.293,433.145 1380.398,703.28 	"/>
	<path opacity="0.5" fill="#A18BD9" d="M656.636,482.464l-6.381-35.004l21.75,14.106l-43.5-172.672l11.019-7.053l18.851,14.891
		l-11.746-62.197l-0.144-0.76L616.05,243l-0.595,0.181L502.117,381.278L486.13,257.807l10.135-7.574l7.25-12.8l9.86,20.376
		l-9.86-75.233l9.86-13.061l13.629,9.403l-13.554-102.09l-2.158,2.236l-133.422,138.19L272.996,371.582L376.85,579.28
		l-0.308,109.982l228.762-93.427l14.5,7.838L595.156,387.9l10.149-2.352L656.636,482.464z M460.32,432.203l-66.067,80.504
		l5.442-244.188l11.846-3.814l13.385,38.818l38.288-28.602C462.356,316.057,460.784,393.645,460.32,432.203z"/>
	<polygon opacity="0.3" fill="#A18BD9" points="734.064,734.287 734.064,725.405 697.813,725.405 653.154,707.642 665.915,693.013 
		666.204,674.989 688.534,503.625 724.312,616.281 747.053,608.376 783.365,570.497 794.001,560.578 773.795,521.126 
		805.097,550.236 816.424,539.673 868.044,525.044 902.92,510.42 1086.703,433.354 1096.274,550.122 1082.063,550.122 
		1085.543,577.552 1066.112,605.241 1105.552,689.88 1055.093,724.1 1315.224,752.572 1361.041,769.813 665.915,766.68 	"/>
	<polygon opacity="0.3" fill="#A18BD9" points="1082.063,550.122 822.515,608.376 800.474,605.241 1085.543,525.568 
		1093.887,521.013 1096.274,550.122 	"/>
	<polygon opacity="0.3" fill="#A18BD9" points="1061.184,611.249 887.474,689.356 1105.552,689.88 	"/>
	<polygon opacity="0.3" fill="#A18BD9" points="1046.103,728.018 998.543,766.157 711.734,770.337 761.034,739.252 990.424,727.496 
		990.424,721.748 1071.624,709.47 	"/>
	<polygon opacity="0.3" fill="#A18BD9" points="584.425,295.164 639.523,281.842 656.391,295.164 653.154,273.482 578.247,288.519 
		504.083,378.979 428.695,477.239 399.695,550.122 352.136,512.768 329.806,641.813 437.105,598.188 605.305,595.836 
		619.805,602.367 616.615,585.388 438.266,564.49 447.545,525.306 475.385,510.677 483.795,492.129 453.056,500.227 501.775,398.61 
		595.156,388.684 605.305,385.549 655.528,480.375 650.255,447.46 640.686,444.064 609.365,370.138 540.345,365.434 	"/>
	<polygon opacity="0.3" fill="#A18BD9" points="513.375,169.515 425.796,182.575 524.274,161.116 527.005,178.917 	"/>
	<polygon opacity="0.3" fill="#A18BD9" points="503.515,237.433 366.926,255.459 366.926,242.918 503.515,207.393 513.067,255.459 	
		"/>
	<polygon opacity="0.3" fill="#A18BD9" points="460.807,399.563 475.385,263.816 418.256,271.393 463.206,273.482 	"/>
	<polygon opacity="0.5" fill="#A18BD9" points="901.684,532.62 777.274,600.54 800.474,605.241 869.204,620.914 822.515,696.933 
		734.064,724.1 724.138,725.405 697.813,725.405 653.154,707.642 665.915,693.013 715.127,641.678 687.955,500.227 698.105,489.518 
		750.719,604.548 783.365,570.497 794.001,560.578 772.345,517.991 778.435,521.126 748.564,477.762 808.418,547.14 
		816.424,539.673 868.044,525.044 902.92,510.42 912.414,510.677 	"/>
	<path fill-rule="evenodd" clip-rule="evenodd" fill="#BAC0FD" d="M1311.732,639.632c0,0-221.249-206.206-221.952-205.798
		c-0.311,0.181-221.736,91.21-221.736,91.21l-11.146,0.124l-60.171-62.474L672.509,253.326h-12.464l-11.173-19.413L616.05,243
		L543.132,94.612l-29.682-17.785l38.034,15.744l69.313,141.071l36.695-5.708l4.893,21.202l15.29,1.53l122.112,210.281l58.303,60.955
		l9.785-2.649l223.839-97.039L1311.732,639.632z"/>
</g>
</svg>
