<?xml version="1.0" encoding="utf-8"?>
<!-- Generator: Adobe Illustrator 16.0.3, SVG Export Plug-In . SVG Version: 6.00 Build 0)  -->
<!DOCTYPE svg PUBLIC "-//W3C//DTD SVG 1.1//EN" "http://www.w3.org/Graphics/SVG/1.1/DTD/svg11.dtd">
<svg version="1.1" id="Capa_2" xmlns="http://www.w3.org/2000/svg" xmlns:xlink="http://www.w3.org/1999/xlink" x="0px" y="0px"
	 width="1280px" height="720px" viewBox="0 0 1280 720" enable-background="new 0 0 1280 720" xml:space="preserve">
<g>
	<g>
		<path fill-rule="evenodd" clip-rule="evenodd" fill="#7E88CB" d="M1050.929,267.826c-2.396-2.348,7.484-10.237,10.084-7.691
			C1063.612,262.682,1053.644,270.485,1050.929,267.826z"/>
		<path fill-rule="evenodd" clip-rule="evenodd" fill="#7E88CB" d="M1103.207,439.752c-2.396-2.349,7.485-10.238,10.084-7.692
			C1115.891,434.607,1105.922,442.41,1103.207,439.752z"/>
		<path fill-rule="evenodd" clip-rule="evenodd" fill="#7E88CB" d="M1004.345,385.203c-5.428-3.317,7.484-10.237,10.084-7.691
			C1017.027,380.058,1012.558,390.222,1004.345,385.203z"/>
		<path fill-rule="evenodd" clip-rule="evenodd" fill="#7E88CB" d="M1572.797,563.33c-5.428-3.317,7.484-10.237,10.084-7.691
			C1585.48,558.186,1581.009,568.349,1572.797,563.33z"/>
		<path fill-rule="evenodd" clip-rule="evenodd" fill="#7E88CB" d="M1297.729,164.302c-2.325-1.421,3.206-4.386,4.321-3.295
			C1303.163,162.098,1301.248,166.453,1297.729,164.302z"/>
		<path fill-rule="evenodd" clip-rule="evenodd" fill="#BCD3FF" d="M1289.07,366.708c-2.324-1.421,3.208-4.386,4.321-3.295
			C1294.506,364.504,1292.59,368.859,1289.07,366.708z"/>
		<path fill-rule="evenodd" clip-rule="evenodd" fill="#4F63CC" d="M1127.425,353.671c-1.147-0.7,1.581-2.163,2.131-1.625
			C1130.104,352.584,1129.16,354.731,1127.425,353.671z"/>
		<path fill-rule="evenodd" clip-rule="evenodd" fill="#7E88CB" d="M1410.187,104.504c-2.325-1.421,3.206-4.386,4.32-3.295
			C1415.62,102.299,1413.705,106.654,1410.187,104.504z"/>
		<path fill-rule="evenodd" clip-rule="evenodd" fill="#7E88CB" d="M1079.096,255.61c0-1.661,4.097-4.013,6.781-4.013
			s4.209,4.786,3.021,5.951C1087.707,258.713,1079.096,258.54,1079.096,255.61z"/>
		<path fill-rule="evenodd" clip-rule="evenodd" fill="#7E88CB" d="M1214.982,319.64c0-1.66,4.098-4.013,6.781-4.013
			c2.685,0,4.21,4.786,3.021,5.951C1223.595,322.742,1214.982,322.569,1214.982,319.64z"/>
		<path fill-rule="evenodd" clip-rule="evenodd" fill="#7E88CB" d="M1088.673,234.424c-0.686-0.301-0.917-2.35-0.432-3.414
			c0.485-1.063,2.737-0.803,3.004-0.121C1091.511,231.572,1089.882,234.954,1088.673,234.424z"/>
		<path fill-rule="evenodd" clip-rule="evenodd" fill="#7E88CB" d="M1160.431,429.885c-0.686-0.299-0.916-2.349-0.431-3.413
			c0.484-1.063,2.737-0.802,3.004-0.12C1163.27,427.033,1161.642,430.415,1160.431,429.885z"/>
		<path fill-rule="evenodd" clip-rule="evenodd" fill="#BCD3FF" d="M1327.927,352.889c-0.686-0.3-0.917-2.349-0.432-3.412
			c0.485-1.064,2.738-0.804,3.004-0.122C1330.765,350.038,1329.136,353.419,1327.927,352.889z"/>
		<path fill-rule="evenodd" clip-rule="evenodd" fill="#7E88CB" d="M1129.118,210.346c-0.686-0.301-0.917-2.35-0.432-3.413
			c0.485-1.064,2.738-0.803,3.004-0.121C1131.956,207.494,1130.328,210.875,1129.118,210.346z"/>
		<path fill-rule="evenodd" clip-rule="evenodd" fill="#7997F6" d="M1108.196,227.933c1.421-2.107,5.341-1.384,5.341,0
			c0,1.384-4.62,2.781-5.341,2.076C1107.477,229.304,1107.498,228.971,1108.196,227.933z"/>
		<path fill-rule="evenodd" clip-rule="evenodd" fill="#7E88CB" d="M545.715,657.832c-2.396-2.347,7.484-10.237,10.083-7.69
			C558.398,652.688,548.429,660.491,545.715,657.832z"/>
		<path fill-rule="evenodd" clip-rule="evenodd" fill="#7E88CB" d="M573.882,645.617c0-1.662,4.096-4.015,6.781-4.015
			c2.683,0,4.209,4.787,3.02,5.951C582.493,648.719,573.882,648.545,573.882,645.617z"/>
		<path fill-rule="evenodd" clip-rule="evenodd" fill="#7E88CB" d="M596.093,515.682c-0.686-0.3-0.917-2.35-0.431-3.413
			s2.738-0.803,3.004-0.121C598.932,512.829,597.303,516.211,596.093,515.682z"/>
		<path fill-rule="evenodd" clip-rule="evenodd" fill="#7E88CB" d="M623.903,600.352c-0.686-0.3-0.917-2.35-0.431-3.413
			c0.485-1.064,2.738-0.803,3.003-0.121C626.742,597.499,625.113,600.881,623.903,600.352z"/>
		<path fill-rule="evenodd" clip-rule="evenodd" fill="#7997F6" d="M638.801,497.854c1.419-2.106,5.34-1.383,5.34,0
			c0,1.385-4.619,2.782-5.34,2.076C638.081,499.225,638.102,498.893,638.801,497.854z"/>
		<path fill-rule="evenodd" clip-rule="evenodd" fill="#7997F6" d="M917.62,236.584c1.419-2.107,5.341-1.384,5.341,0
			s-4.62,2.782-5.341,2.076S916.922,237.622,917.62,236.584z"/>
		<path fill-rule="evenodd" clip-rule="evenodd" fill="#BCD3FF" d="M763.605,28.306c-2.397-2.348,7.484-10.238,10.082-7.691
			C776.288,23.162,766.318,30.965,763.605,28.306z"/>
		<path fill-rule="evenodd" clip-rule="evenodd" fill="#7E88CB" d="M1701.115,342.505c-2.396-2.349,7.484-10.238,10.083-7.692
			C1713.798,337.36,1703.83,345.163,1701.115,342.505z"/>
		<path fill-rule="evenodd" clip-rule="evenodd" fill="#7E88CB" d="M1701.115,637.113c-2.396-2.348,7.484-10.237,10.083-7.691
			C1713.798,631.97,1703.83,639.772,1701.115,637.113z"/>
		<path fill-rule="evenodd" clip-rule="evenodd" fill="#BCD3FF" d="M657.431,97.923c0-1.661,4.097-4.013,6.78-4.013
			c2.685,0,4.209,4.786,3.021,5.951S657.431,100.852,657.431,97.923z"/>
		<path fill-rule="evenodd" clip-rule="evenodd" fill="#BCD3FF" d="M932.333,135.404c0-1.661,4.097-4.014,6.781-4.014
			c2.684,0,4.21,4.786,3.02,5.951C940.945,138.506,932.333,138.333,932.333,135.404z"/>
		<path fill-rule="evenodd" clip-rule="evenodd" fill="#BCD3FF" d="M874.01,43.471c-0.686-0.3-0.916-2.349-0.431-3.413
			c0.485-1.063,2.738-0.803,3.004-0.121C876.849,40.619,875.22,44,874.01,43.471z"/>
		<path fill-rule="evenodd" clip-rule="evenodd" fill="#7E88CB" d="M1973.926,423.34c-0.686-0.3-0.916-2.349-0.431-3.413
			c0.485-1.063,2.738-0.802,3.004-0.12C1976.766,420.488,1975.136,423.87,1973.926,423.34z"/>
		<path fill-rule="evenodd" clip-rule="evenodd" fill="#7E88CB" d="M1948.442,228.401c-0.686-0.3-0.917-2.35-0.432-3.412
			c0.486-1.065,2.738-0.803,3.005-0.121C1951.281,225.55,1949.652,228.931,1948.442,228.401z"/>
		<path fill-rule="evenodd" clip-rule="evenodd" fill="#BCD3FF" d="M641.894,255.37c-0.686-0.3-0.916-2.349-0.431-3.414
			c0.485-1.063,2.737-0.802,3.004-0.12C644.732,252.519,643.104,255.9,641.894,255.37z"/>
		<path fill-rule="evenodd" clip-rule="evenodd" fill="#BCD3FF" d="M819.024,199.121c1.419-2.107,5.341-1.384,5.341,0
			s-4.62,2.781-5.341,2.075C818.305,200.491,818.325,200.159,819.024,199.121z"/>
		<path fill-rule="evenodd" clip-rule="evenodd" fill="#BCD3FF" d="M634.971,52.348c1.419-2.107,5.341-1.384,5.341,0
			c0,1.384-4.621,2.781-5.341,2.076C634.25,53.718,634.271,53.386,634.971,52.348z"/>
		<path fill-rule="evenodd" clip-rule="evenodd" fill="#7E88CB" d="M1969.542,190.841c1.419-2.108,5.34-1.384,5.34,0
			s-4.62,2.781-5.34,2.076C1968.821,192.211,1968.843,191.879,1969.542,190.841z"/>
		<path fill-rule="evenodd" clip-rule="evenodd" fill="#BCD3FF" d="M187.875,512.588c-2.396-2.348,7.484-10.238,10.083-7.691
			S190.589,515.246,187.875,512.588z"/>
		<path fill-rule="evenodd" clip-rule="evenodd" fill="#BCD3FF" d="M247.79,375.663c0-1.661,4.097-4.013,6.781-4.013
			s4.209,4.785,3.02,5.95C256.402,378.766,247.79,378.593,247.79,375.663z"/>
		<path fill-rule="evenodd" clip-rule="evenodd" fill="#BCD3FF" d="M413.301,432.679c-0.686-0.301-0.917-2.35-0.431-3.413
			s2.738-0.803,3.004-0.12C416.14,429.827,414.511,433.209,413.301,432.679z"/>
		<path fill-rule="evenodd" clip-rule="evenodd" fill="#BCD3FF" d="M190.541,474.264c1.419-2.109,5.34-1.385,5.34,0
			c0,1.383-4.62,2.78-5.34,2.074C189.82,475.633,189.842,475.301,190.541,474.264z"/>
	</g>
	
		<radialGradient id="SVGID_1_" cx="480.8696" cy="605.4688" r="26.7432" gradientTransform="matrix(1.2068 -0.6018 0.4033 0.7763 -255.5314 154.5031)" gradientUnits="userSpaceOnUse">
		<stop  offset="0" style="stop-color:#6D86FF"/>
		<stop  offset="0.3706" style="stop-color:#6C85FD"/>
		<stop  offset="0.5041" style="stop-color:#6981F6"/>
		<stop  offset="0.5992" style="stop-color:#647BEB"/>
		<stop  offset="0.6762" style="stop-color:#5D72DA"/>
		<stop  offset="0.7421" style="stop-color:#5467C4"/>
		<stop  offset="0.8005" style="stop-color:#4858A8"/>
		<stop  offset="0.8533" style="stop-color:#3A4788"/>
		<stop  offset="0.9018" style="stop-color:#2A3462"/>
		<stop  offset="0.947" style="stop-color:#181D37"/>
		<stop  offset="0.9871" style="stop-color:#040509"/>
		<stop  offset="0.9944" style="stop-color:#000000"/>
	</radialGradient>
	<path opacity="0.5" fill="url(#SVGID_1_)" d="M601.244,319.049c5.956,11.465-3.664,27.965-21.489,36.852
		c-17.825,8.889-37.105,6.8-43.062-4.665c-5.958-11.466,3.663-27.966,21.489-36.854
		C576.006,305.493,595.286,307.583,601.244,319.049z"/>
	
		<radialGradient id="SVGID_2_" cx="1108.7695" cy="867.5586" r="16.8628" gradientTransform="matrix(1.1293 -0.47 0.2745 0.633 -392.8823 331.6884)" gradientUnits="userSpaceOnUse">
		<stop  offset="0" style="stop-color:#6D86FF"/>
		<stop  offset="0.3706" style="stop-color:#6C85FD"/>
		<stop  offset="0.5041" style="stop-color:#6981F6"/>
		<stop  offset="0.5992" style="stop-color:#647BEB"/>
		<stop  offset="0.6762" style="stop-color:#5D72DA"/>
		<stop  offset="0.7421" style="stop-color:#5467C4"/>
		<stop  offset="0.8005" style="stop-color:#4858A8"/>
		<stop  offset="0.8533" style="stop-color:#3A4788"/>
		<stop  offset="0.9018" style="stop-color:#2A3462"/>
		<stop  offset="0.947" style="stop-color:#181D37"/>
		<stop  offset="0.9871" style="stop-color:#040509"/>
		<stop  offset="0.9944" style="stop-color:#000000"/>
	</radialGradient>
	<path opacity="0.5" fill="url(#SVGID_2_)" d="M1116.44,351.807c2.558,5.895-3.896,14.222-14.415,18.599
		c-10.518,4.378-21.117,3.147-23.674-2.748c-2.557-5.895,3.898-14.223,14.416-18.6S1113.884,345.911,1116.44,351.807z"/>
	
		<radialGradient id="SVGID_3_" cx="1529.7646" cy="1141.3809" r="16.8628" gradientTransform="matrix(1.1293 -0.47 0.2745 0.633 -392.8823 331.6884)" gradientUnits="userSpaceOnUse">
		<stop  offset="0" style="stop-color:#6D86FF"/>
		<stop  offset="0.3706" style="stop-color:#6C85FD"/>
		<stop  offset="0.5041" style="stop-color:#6981F6"/>
		<stop  offset="0.5992" style="stop-color:#647BEB"/>
		<stop  offset="0.6762" style="stop-color:#5D72DA"/>
		<stop  offset="0.7421" style="stop-color:#5467C4"/>
		<stop  offset="0.8005" style="stop-color:#4858A8"/>
		<stop  offset="0.8533" style="stop-color:#3A4788"/>
		<stop  offset="0.9018" style="stop-color:#2A3462"/>
		<stop  offset="0.947" style="stop-color:#181D37"/>
		<stop  offset="0.9871" style="stop-color:#040509"/>
		<stop  offset="0.9944" style="stop-color:#000000"/>
	</radialGradient>
	<path opacity="0.5" fill="url(#SVGID_3_)" d="M1667.033,327.267c2.557,5.896-3.896,14.223-14.414,18.6
		c-10.519,4.378-21.117,3.146-23.674-2.749s3.897-14.221,14.415-18.599C1653.878,320.143,1664.477,321.373,1667.033,327.267z"/>
	
		<radialGradient id="SVGID_4_" cx="1209.4941" cy="1225.3623" r="45.8394" gradientTransform="matrix(1.1293 -0.47 0.2745 0.633 -392.8823 331.6884)" gradientUnits="userSpaceOnUse">
		<stop  offset="0" style="stop-color:#255EFF"/>
		<stop  offset="0.3706" style="stop-color:#255DFD"/>
		<stop  offset="0.5041" style="stop-color:#245BF6"/>
		<stop  offset="0.5992" style="stop-color:#2256EB"/>
		<stop  offset="0.6762" style="stop-color:#2050DA"/>
		<stop  offset="0.7421" style="stop-color:#1C48C4"/>
		<stop  offset="0.8005" style="stop-color:#183EA8"/>
		<stop  offset="0.8533" style="stop-color:#143288"/>
		<stop  offset="0.9018" style="stop-color:#0E2462"/>
		<stop  offset="0.947" style="stop-color:#081437"/>
		<stop  offset="0.9871" style="stop-color:#010309"/>
		<stop  offset="0.9944" style="stop-color:#000000"/>
	</radialGradient>
	<path opacity="0.2" fill="url(#SVGID_4_)" d="M1361.13,517.338c6.949,16.023-10.595,38.66-39.186,50.558
		c-28.591,11.899-57.4,8.555-64.351-7.471c-6.949-16.025,10.595-38.661,39.186-50.56
		C1325.369,497.967,1354.18,501.313,1361.13,517.338z"/>
	
		<radialGradient id="SVGID_5_" cx="1159.126" cy="1293.4863" r="15.0454" gradientTransform="matrix(1.4236 -0.5221 0.2523 0.6602 -663.0241 367.2426)" gradientUnits="userSpaceOnUse">
		<stop  offset="0" style="stop-color:#A9D1FF"/>
		<stop  offset="0.3706" style="stop-color:#A8CFFD"/>
		<stop  offset="0.5041" style="stop-color:#A3CAF6"/>
		<stop  offset="0.5992" style="stop-color:#9BC0EB"/>
		<stop  offset="0.6762" style="stop-color:#90B2DA"/>
		<stop  offset="0.7421" style="stop-color:#82A0C4"/>
		<stop  offset="0.8005" style="stop-color:#708AA8"/>
		<stop  offset="0.8533" style="stop-color:#5A6F88"/>
		<stop  offset="0.9018" style="stop-color:#415062"/>
		<stop  offset="0.947" style="stop-color:#242D37"/>
		<stop  offset="0.9871" style="stop-color:#060809"/>
		<stop  offset="0.9944" style="stop-color:#000000"/>
	</radialGradient>
	<path opacity="0.3" fill="url(#SVGID_5_)" d="M1334.873,608.166c2.096,5.486-5.793,13.45-17.622,17.789s-23.118,3.409-25.216-2.076
		c-2.096-5.486,5.793-13.449,17.623-17.788C1321.487,601.751,1332.776,602.682,1334.873,608.166z"/>
	
		<radialGradient id="SVGID_6_" cx="1732.998" cy="1080.541" r="63.165" gradientTransform="matrix(0.9224 -0.2852 0.1764 0.5476 -168.7021 203.7492)" gradientUnits="userSpaceOnUse">
		<stop  offset="0" style="stop-color:#255EFF"/>
		<stop  offset="0.3706" style="stop-color:#255DFD"/>
		<stop  offset="0.5041" style="stop-color:#245BF6"/>
		<stop  offset="0.5992" style="stop-color:#2256EB"/>
		<stop  offset="0.6762" style="stop-color:#2050DA"/>
		<stop  offset="0.7421" style="stop-color:#1C48C4"/>
		<stop  offset="0.8005" style="stop-color:#183EA8"/>
		<stop  offset="0.8533" style="stop-color:#143288"/>
		<stop  offset="0.9018" style="stop-color:#0E2462"/>
		<stop  offset="0.947" style="stop-color:#081437"/>
		<stop  offset="0.9871" style="stop-color:#010309"/>
		<stop  offset="0.9944" style="stop-color:#000000"/>
	</radialGradient>
	<path opacity="0.2" fill="url(#SVGID_6_)" d="M1678.688,283.188c6.156,19.103-14.941,42.655-47.119,52.603
		c-32.18,9.95-63.254,2.53-69.409-16.572c-6.155-19.103,14.941-42.654,47.12-52.604
		C1641.458,256.665,1672.533,264.084,1678.688,283.188z"/>
</g>
</svg>
